<?xml version="1.0" encoding="UTF-8"?>
<svg  viewBox="0 0 500 534" version="1.1" xmlns="http://www.w3.org/2000/svg" xmlns:xlink="http://www.w3.org/1999/xlink">
    <title>ability</title>
    <defs>
        <linearGradient x1="49.6689957%" y1="74.9963732%" x2="49.6689957%" y2="18.3572408%" id="linearGradient-1">
            <stop stop-color="#FFFFFF" stop-opacity="0" offset="21%"></stop>
            <stop stop-color="#FFFFFF" stop-opacity="0.2" offset="100%"></stop>
        </linearGradient>
        <linearGradient x1="50.6572141%" y1="19.5668839%" x2="50.6572141%" y2="59.767201%" id="linearGradient-2">
            <stop stop-color="#E9EAF2" stop-opacity="0.8" offset="0%"></stop>
            <stop stop-color="#E9EAF2" stop-opacity="0" offset="100%"></stop>
        </linearGradient>
    </defs>
    <g id="ability-1" stroke="none" stroke-width="1" fill="none" fill-rule="evenodd">
        <g id="ability" transform="translate(0.000000, -0.000000)">
            <g id="Laptop" transform="translate(6.571936, 30.905861)">
                <path d="M473.333675,379.253448 L206.627076,225.23319 C202.883564,223.099945 199.854625,217.276188 199.854625,212.295062 L199.854625,5.93564826 C199.854625,0.943855964 202.883564,-1.34938195 206.627076,0.81586129 L473.333675,154.836119 C477.077188,156.969364 480.106572,162.793121 480.106572,167.774248 L480.106572,374.133661 C480.148788,379.125453 477.119849,381.418691 473.333675,379.253448 Z" id="路径" fill="#B1B4C4" fill-rule="nonzero"></path>
                <polygon id="路径" fill="#B1B4C4" fill-rule="nonzero" points="474.752157 381.386692 477.706439 379.680097 476.426606 370.923128"></polygon>
                <path d="M199.374688,2.06380936 L202.286308,0.378546153 L206.467097,2.76778007 C206.467097,2.76778007 202.009011,3.43975211 201.902358,3.41841966 C201.795706,3.39708722 199.374688,2.06380936 199.374688,2.06380936 Z" id="路径" fill="#B1B4C4" fill-rule="nonzero"></path>
                <path d="M470.933988,380.71472 L204.184728,226.651798 C200.441215,224.518553 197.401611,218.694795 197.401611,213.703003 L197.401611,7.39692079 C197.401611,2.40512849 200.441215,0.111890582 204.184728,2.27713382 L470.933988,156.297392 C474.6775,158.430636 477.706439,164.254394 477.706439,169.246186 L477.706439,375.552269 C477.706439,380.533395 474.6775,382.847965 470.933988,380.71472 Z" id="路径" fill="#E4E7F2" fill-rule="nonzero"></path>
                <path d="M470.464716,380.938711 L203.715456,226.918453 C199.971943,224.785209 196.932339,218.961451 196.932339,213.969659 L196.932339,7.61024524 C196.932339,2.62911917 199.971943,0.335881262 203.715456,2.49045828 L470.464716,156.510716 C474.197563,158.643961 477.237167,164.467718 477.237167,169.459511 L477.237167,375.818924 C477.237167,380.810716 474.197563,383.103954 470.464716,380.938711 Z" id="路径" fill="#D6D8E5" fill-rule="nonzero"></path>
                <path d="M473.568312,368.384567 L200.302567,210.620465 L200.462546,8.46354307 C200.462546,6.39429584 201.913024,5.55166423 203.662129,6.58628785 L470.411389,160.606546 C472.310673,161.865123 473.498454,163.951844 473.610973,166.227645 L473.568312,368.384567 Z" id="路径" fill="#FFFFFF" fill-rule="nonzero"></path>
                <path d="M473.482989,368.395233 L200.302567,210.631131 L200.387889,8.46354307 C200.387889,6.39429584 201.838367,5.55166423 203.587472,6.58628785 L470.336732,160.606546 C472.234731,161.866324 473.422109,163.952336 473.536316,166.227645 L473.482989,368.395233 Z" id="路径" fill="url(#linearGradient-1)" fill-rule="nonzero" opacity="0.5"></path>
                <path d="M269.274918,500.848388 L2.52565748,346.82813 C-1.21785498,344.694886 -0.748582765,340.897711 3.59218525,338.401814 L182.288913,235.216775 C186.555024,232.731545 193.146165,232.454223 196.879013,234.619466 L463.638938,388.639724 C467.371785,390.772969 466.902513,394.570144 462.57241,397.06604 L283.865017,500.25108 C279.54558,502.73631 273.007765,503.013632 269.274918,500.848388 Z" id="路径" fill="#D6D8E5" fill-rule="nonzero" opacity="0.4"></path>
                <path d="M275.098159,497.349867 L8.32756854,343.38294 C4.58405608,341.249696 5.05332829,337.452521 9.39409631,334.956624 L188.090824,231.782251 C192.356935,229.286355 198.948077,229.009033 202.691589,231.174276 L469.440849,385.194534 C473.184362,387.327779 472.715089,391.124954 468.374321,393.62085 L289.698924,496.752559 C285.379487,499.237789 278.841672,499.51511 275.098159,497.349867 Z" id="路径" fill="#B1B4C4" fill-rule="nonzero"></path>
                <polygon id="路径" fill="#B1B4C4" fill-rule="nonzero" points="5.82122829 339.852421 5.82122829 334.817964 11.4738255 337.185865"></polygon>
                <polygon id="路径" fill="#B1B4C4" fill-rule="nonzero" points="471.96852 388.90638 471.96852 383.989251 467.787731 385.429191 470.560703 389.503688"></polygon>
                <path d="M275.098159,493.115377 L8.32756854,339.116451 C4.58405608,336.983207 5.05332829,333.186031 9.39409631,330.690135 L188.090824,227.505095 C192.356935,225.009199 198.948077,224.742544 202.691589,226.907787 L469.440849,380.928045 C473.184362,383.061289 472.715089,386.858465 468.374321,389.354361 L289.698924,492.507402 C285.379487,495.003298 278.841672,495.28062 275.098159,493.115377 Z" id="路径" fill="#E4E7F2" fill-rule="nonzero"></path>
                <path d="M275.098159,492.464737 L8.32756854,338.444479 C4.58405608,336.311235 5.05332829,332.503393 9.39409631,330.018163 L188.090824,226.833123 C192.356935,224.337227 198.948077,224.070572 202.691589,226.225149 L469.440849,380.256073 C473.184362,382.389317 472.715089,386.186493 468.374321,388.682389 L289.698924,491.856762 C285.379487,494.352659 278.841672,494.619314 275.098159,492.464737 Z" id="路径" fill="#D6D8E5" fill-rule="nonzero"></path>
                <path d="M183.142135,261.637009 L170.727752,254.469307 C169.661224,253.882665 169.842534,252.858707 171.005049,252.186735 L182.864838,245.33902 C184.080326,244.662518 185.544734,244.603145 186.810991,245.179027 L199.236039,252.346728 C200.24924,252.933371 200.121257,253.957328 198.948077,254.6293 L187.098953,261.477015 C185.879689,262.153707 184.412044,262.213051 183.142135,261.637009 Z" id="路径" fill="#2B303F" fill-rule="nonzero"></path>
                <path d="M200.729178,271.791253 L188.304129,264.612885 C187.290928,264.036909 187.418911,263.012951 188.592092,262.330313 L200.441215,255.493264 C201.66048,254.816572 203.128124,254.757228 204.398033,255.333271 L216.812417,262.500973 C217.878944,263.087615 217.697635,264.111572 216.535119,264.783544 L204.675331,271.620593 C203.463014,272.305639 201.9961,272.369079 200.729178,271.791253 Z" id="路径" fill="#2B303F" fill-rule="nonzero"></path>
                <path d="M218.508196,282.062825 L206.093813,274.884457 C205.027285,274.297815 205.208595,273.273858 206.37111,272.601886 L218.230899,265.764837 C219.443215,265.079791 220.910129,265.016351 222.177051,265.594177 L234.6021,272.772545 C235.668628,273.348521 235.487318,274.372479 234.314137,275.055117 L222.465014,281.892166 C221.245585,282.565644 219.781074,282.628809 218.508196,282.062825 L218.508196,282.062825 Z" id="路径" fill="#2B303F" fill-rule="nonzero"></path>
                <path d="M235.892598,292.089075 L223.46755,284.921373 C222.454349,284.334731 222.582332,283.310773 223.755512,282.638801 L235.604636,275.791086 C236.8239,275.114394 238.291545,275.05505 239.561454,275.631093 L251.986502,282.798795 C252.999704,283.385437 252.87172,284.409394 251.69854,285.081366 L239.849416,291.929081 C238.630152,292.605774 237.162508,292.665118 235.892598,292.089075 Z" id="路径" fill="#2B303F" fill-rule="nonzero"></path>
                <path d="M253.479641,302.243319 L241.054593,295.075617 C239.988065,294.488975 240.169375,293.465018 241.342555,292.793045 L253.191679,285.94533 C254.410943,285.268638 255.878588,285.209294 257.148497,285.785337 L269.56288,292.953039 C270.576081,293.539681 270.448098,294.563638 269.274918,295.235611 L257.425794,302.083326 C256.210306,302.759827 254.745898,302.819201 253.479641,302.243319 L253.479641,302.243319 Z" id="路径" fill="#2B303F" fill-rule="nonzero"></path>
                <path d="M271.056019,312.450894 L258.641636,305.283192 C257.628434,304.69655 257.745752,303.672593 258.918933,303.000621 L270.768056,296.152906 C271.987321,295.476214 273.454965,295.41687 274.724874,295.992912 L287.149923,303.160614 C288.163124,303.747256 288.035141,304.771214 286.86196,305.443186 L275.012837,312.290901 C273.793573,312.967593 272.325928,313.026937 271.056019,312.450894 L271.056019,312.450894 Z" id="路径" fill="#2B303F" fill-rule="nonzero"></path>
                <path d="M288.643062,322.551807 L276.218013,315.384105 C275.204812,314.797463 275.332795,313.773506 276.505976,313.101534 L288.355099,306.253819 C289.574363,305.577127 291.042008,305.517783 292.311917,306.093825 L304.726301,313.261527 C305.739502,313.848169 305.611519,314.872127 304.449003,315.544099 L292.589215,322.381148 C291.376898,323.066194 289.909984,323.129634 288.643062,322.551807 Z" id="路径" fill="#2B303F" fill-rule="nonzero"></path>
                <path d="M306.219439,332.716718 L293.805056,325.53835 C292.791855,324.951707 292.919838,323.938416 294.082353,323.255778 L305.942142,316.418729 C307.154458,315.733683 308.621373,315.670243 309.888295,316.24807 L322.313343,323.426438 C323.379871,324.01308 323.198562,325.026371 322.025381,325.709009 L310.154927,332.535392 C308.94617,333.216888 307.485731,333.284177 306.219439,332.716718 Z" id="路径" fill="#2B303F" fill-rule="nonzero"></path>
                <path d="M323.806482,342.849629 L311.381434,335.681928 C310.368232,335.095285 310.496216,334.071328 311.669396,333.399356 L323.51852,326.562307 C324.734627,325.877096 326.204759,325.813689 327.475338,326.391647 L339.889721,333.570015 C340.902922,334.145991 340.774939,335.169949 339.612424,335.852587 L327.7633,342.689636 C326.544036,343.366328 325.076392,343.425672 323.806482,342.849629 L323.806482,342.849629 Z" id="路径" fill="#2B303F" fill-rule="nonzero"></path>
                <path d="M341.38286,352.982541 L328.968477,345.814839 C327.955275,345.228197 328.083259,344.20424 329.245774,343.532268 L341.084232,336.705885 C342.299721,336.029383 343.764129,335.97001 345.030385,336.545892 L357.455433,343.713593 C358.468635,344.300236 358.340651,345.324193 357.167471,345.996165 L345.350343,352.84388 C344.124825,353.517286 342.652393,353.568747 341.38286,352.982541 L341.38286,352.982541 Z" id="路径" fill="#2B303F" fill-rule="nonzero"></path>
                <path d="M358.969903,363.158118 L346.544854,355.990416 C345.531653,355.403774 345.659636,354.379816 346.832817,353.707844 L358.68194,346.860129 C359.901204,346.183437 361.368849,346.124093 362.638758,346.700136 L375.063807,353.867838 C376.077008,354.45448 375.949025,355.478437 374.775844,356.150409 L362.926721,362.998124 C361.707457,363.674816 360.239812,363.73416 358.969903,363.158118 Z" id="路径" fill="#2B303F" fill-rule="nonzero"></path>
                <path d="M376.556946,373.312362 L364.131897,366.14466 C363.118696,365.558018 363.246679,364.53406 364.41986,363.862088 L376.279649,357.014373 C377.498913,356.337681 378.966557,356.278337 380.236467,356.85438 L392.65085,364.022082 C393.717378,364.608724 393.536068,365.632681 392.362887,366.304653 L380.54576,373.152368 C379.319,373.843234 377.835089,373.902754 376.556946,373.312362 Z" id="路径" fill="#2B303F" fill-rule="nonzero"></path>
                <path d="M394.133323,383.466606 L381.71894,376.288238 C380.652412,375.701596 380.823057,374.688305 381.996237,374.005666 L393.845361,367.168617 C395.062915,366.488492 396.530597,366.42519 397.802179,366.997958 L410.227227,374.176326 C411.240429,374.762968 411.112445,375.776259 409.939265,376.458898 L398.090141,383.295946 C396.874034,383.981157 395.403902,384.044565 394.133323,383.466606 Z" id="路径" fill="#2B303F" fill-rule="nonzero"></path>
                <path d="M420.188597,398.50598 L399.295318,386.442482 C398.282116,385.85584 398.4101,384.831882 399.58328,384.15991 L411.475065,377.322862 C412.691172,376.637651 414.161304,376.574243 415.431883,377.152202 L436.271836,389.247699 C437.285037,389.834341 437.157054,390.858298 435.994538,391.53027 L424.13475,398.377985 C422.914128,399.04422 421.449819,399.091715 420.188597,398.50598 Z" id="路径" fill="#2B303F" fill-rule="nonzero"></path>
                <path d="M192.18629,286.531973 L179.761242,279.385603 C178.694714,278.798961 178.876024,277.775004 180.049204,277.103032 L191.898328,270.255317 C193.117592,269.578625 194.585237,269.519281 195.855146,270.095323 L208.269529,277.252359 C209.282731,277.839001 209.154747,278.862958 207.992232,279.53493 L196.132443,286.382646 C194.915242,287.05572 193.450869,287.111133 192.18629,286.531973 Z" id="路径" fill="#2B303F" fill-rule="nonzero"></path>
                <path d="M209.794664,296.707549 L197.380281,289.539848 C196.367079,288.953205 196.495063,287.929248 197.657578,287.257276 L209.517367,280.452226 C210.732855,279.775724 212.197263,279.716351 213.463519,280.292232 L225.899233,287.417269 C226.912435,288.003911 226.784451,289.027869 225.611271,289.699841 L213.762147,296.547556 C212.540055,297.227811 211.067554,297.287192 209.794664,296.707549 Z" id="路径" fill="#2B303F" fill-rule="nonzero"></path>
                <path d="M227.413703,306.87246 L214.988654,299.704758 C213.922126,299.118116 214.103436,298.094158 215.276617,297.422186 L227.12574,290.574471 C228.345004,289.897779 229.812649,289.838435 231.082558,290.414478 L243.496941,297.58218 C244.510143,298.168822 244.382159,299.192779 243.219644,299.864751 L231.359855,306.712466 C230.144367,307.388968 228.679959,307.448341 227.413703,306.87246 Z" id="路径" fill="#2B303F" fill-rule="nonzero"></path>
                <path d="M245.022076,317.048036 L232.597028,309.869668 C231.583826,309.293692 231.71181,308.269735 232.88499,307.587097 L244.734114,300.718049 C245.951667,300.037924 247.41935,299.974622 248.690932,300.54739 L261.09465,307.757756 C262.107851,308.344398 261.979868,309.35769 260.806687,310.040328 L248.957564,316.877377 C247.747091,317.555435 246.286692,317.618764 245.022076,317.048036 Z" id="路径" fill="#2B303F" fill-rule="nonzero"></path>
                <path d="M262.491801,327.138283 L250.077418,319.91725 C249.064216,319.330608 249.1922,318.317317 250.354715,317.634679 L262.214504,310.79763 C263.42682,310.112584 264.893734,310.049144 266.160656,310.62697 L278.585705,317.805338 C279.652233,318.381314 279.470923,319.405272 278.297742,320.08791 L266.427288,326.967623 C265.215394,327.64066 263.757399,327.703885 262.491801,327.138283 Z" id="路径" fill="#2B303F" fill-rule="nonzero"></path>
                <path d="M280.11084,337.303193 L267.685791,330.135492 C266.67259,329.548849 266.800573,328.524892 267.973754,327.85292 L279.822877,320.983872 C281.042141,320.30718 282.509786,320.247836 283.779695,320.823879 L296.194078,327.991581 C297.20728,328.578223 297.079296,329.602181 295.916781,330.274153 L284.056992,337.121868 C282.844935,337.805239 281.380449,337.872532 280.11084,337.303193 Z" id="路径" fill="#2B303F" fill-rule="nonzero"></path>
                <path d="M297.719213,347.468104 L285.294165,340.300402 C284.280963,339.71376 284.408947,338.689802 285.582127,338.01783 L297.431251,331.180782 C298.647358,330.495571 300.11749,330.432163 301.388069,331.010122 L313.813117,338.18849 C314.826319,338.764466 314.698335,339.788423 313.525155,340.471062 L301.676031,347.30811 C300.456767,347.984803 298.989122,348.044147 297.719213,347.468104 L297.719213,347.468104 Z" id="路径" fill="#2B303F" fill-rule="nonzero"></path>
                <path d="M315.327587,357.64368 L302.913203,350.475979 C301.900002,349.889336 302.027985,348.865379 303.201166,348.193407 L315.050289,341.345692 C316.265778,340.66919 317.730186,340.609817 318.996442,341.185699 L331.421491,348.3534 C332.434692,348.940043 332.306709,349.964 331.133528,350.635972 L319.284405,357.483687 C318.065141,358.160379 316.597496,358.219723 315.327587,357.64368 Z" id="路径" fill="#2B303F" fill-rule="nonzero"></path>
                <path d="M332.946625,367.808591 L320.521577,360.640889 C319.455049,360.054247 319.636359,359.030289 320.809539,358.358317 L332.658663,351.510602 C333.877927,350.83391 335.345572,350.774566 336.615481,351.350609 L349.029864,358.518311 C350.043065,359.104953 349.925747,360.12891 348.752567,360.800882 L336.903443,367.648597 C335.684179,368.32529 334.216535,368.384634 332.946625,367.808591 Z" id="路径" fill="#2B303F" fill-rule="nonzero"></path>
                <path d="M350.554999,377.984167 L338.140616,370.805799 C337.127414,370.229823 337.255398,369.205866 338.417913,368.523228 L350.277702,361.686179 C351.492898,361.011269 352.954937,360.94804 354.223854,361.515519 L366.680899,368.693887 C367.6941,369.28053 367.566117,370.304487 366.392936,370.976459 L354.543813,377.813508 C353.319287,378.509539 351.83449,378.573066 350.554999,377.984167 Z" id="路径" fill="#2B303F" fill-rule="nonzero"></path>
                <path d="M368.174038,388.181076 L355.748989,381.013375 C354.735788,380.426732 354.863771,379.402775 356.036952,378.730803 L367.886075,371.883088 C369.105339,371.206396 370.572984,371.147052 371.842893,371.723095 L384.257276,378.890796 C385.270478,379.477439 385.142494,380.501396 383.979979,381.173368 L372.12019,388.021083 C370.904702,388.697585 369.440294,388.756958 368.174038,388.181076 Z" id="路径" fill="#2B303F" fill-rule="nonzero"></path>
                <path d="M385.782411,398.324654 L373.368028,391.146286 C372.354826,390.559644 372.472144,389.546353 373.645325,388.863715 L385.494448,382.026666 C386.712002,381.346541 388.179684,381.283239 389.451266,381.856006 L401.876315,389.034374 C402.889516,389.621017 402.761533,390.634308 401.588352,391.316946 L389.739229,398.153995 C388.523122,398.839206 387.05299,398.902613 385.782411,398.324654 Z" id="路径" fill="#2B303F" fill-rule="nonzero"></path>
                <path d="M174.567252,276.367062 L153.684638,264.303564 C152.671437,263.716922 152.79942,262.703631 153.961935,262.020993 L165.821724,255.183944 C167.03404,254.498898 168.500955,254.435458 169.767877,255.013284 L190.703817,267.076782 C191.717018,267.663424 191.589035,268.687382 190.415854,269.359354 L178.52407,276.185737 C177.308228,276.8693 175.840506,276.93656 174.567252,276.367062 Z" id="路径" fill="#2B303F" fill-rule="nonzero"></path>
                <path d="M419.335375,399.15662 L406.920991,391.988918 C405.762274,391.396383 404.389522,391.396383 403.230805,391.988918 L390.709769,399.220617 C389.643241,399.807259 389.643241,400.756553 390.709769,401.353862 L391.70164,401.929838 C392.640185,402.463149 392.629519,403.348445 391.70164,403.892423 L378.412704,411.529438 C377.346176,412.126747 377.346176,413.076041 378.412704,413.662683 L386.315675,418.227826 C387.471919,418.814998 388.838951,418.814998 389.995196,418.227826 L402.388248,411.081457 L404.947915,409.598852 L406.793008,408.53223 L408.648766,407.465607 L419.314044,401.311197 C420.348576,400.692556 420.348576,399.743262 419.335375,399.15662 Z" id="路径" fill="#2B303F" fill-rule="nonzero"></path>
                <path d="M115.044337,301.038036 L102.629954,293.870334 C101.563426,293.283692 101.744736,292.259734 102.907251,291.587762 L114.76704,284.718715 C115.982528,284.042213 117.446936,283.98284 118.713193,284.558721 L131.138241,291.726423 C132.151442,292.313065 132.023459,293.337023 130.850279,294.008995 L119.001155,300.85671 C117.785313,301.540273 116.317591,301.607533 115.044337,301.038036 Z" id="路径" fill="#2B303F" fill-rule="nonzero"></path>
                <path d="M132.578054,311.160281 L120.16367,303.992579 C119.097143,303.405937 119.278452,302.38198 120.440968,301.710008 L132.300756,294.862293 C133.516245,294.185791 134.980653,294.126418 136.246909,294.702299 L148.671958,301.870001 C149.685159,302.456643 149.557176,303.480601 148.383995,304.152573 L136.534872,311.000288 C135.315607,311.67698 133.847963,311.736324 132.578054,311.160281 Z" id="路径" fill="#2B303F" fill-rule="nonzero"></path>
                <path d="M150.11177,321.282527 L137.697387,314.114825 C136.630859,313.528183 136.801503,312.504225 137.974684,311.832253 L149.823808,304.984538 C151.043072,304.307846 152.510716,304.248502 153.780626,304.824545 L166.173678,311.992247 C167.18688,312.578889 167.058896,313.602846 165.885716,314.274818 L154.036592,321.122533 C152.825839,321.788608 151.372712,321.847844 150.11177,321.282527 Z" id="路径" fill="#2B303F" fill-rule="nonzero"></path>
                <path d="M299.425658,407.497606 L287.000609,400.319238 C285.934081,399.743262 286.115391,398.719305 287.288572,398.036666 L299.137695,391.199617 C300.355249,390.519492 301.822931,390.45619 303.094513,391.028958 L315.487566,398.207326 C316.554094,398.793968 316.372784,399.807259 315.199603,400.489898 L303.37181,407.380278 C302.150868,408.048224 300.684121,408.091834 299.425658,407.497606 Z" id="路径" fill="#2B303F" fill-rule="nonzero"></path>
                <path d="M316.948709,417.619851 L304.534326,410.45215 C303.467798,409.865507 303.649108,408.84155 304.811623,408.169578 L316.671412,401.321863 C317.8869,400.645361 319.351308,400.585988 320.617564,401.16187 L333.042613,408.329571 C334.109141,408.916214 333.927831,409.940171 332.75465,410.612143 L320.905527,417.459858 C319.686263,418.13655 318.218618,418.195894 316.948709,417.619851 L316.948709,417.619851 Z" id="路径" fill="#2B303F" fill-rule="nonzero"></path>
                <path d="M334.482425,427.742097 L322.068042,420.574395 C321.054841,419.987753 321.182824,418.963796 322.345339,418.291824 L334.205128,411.444108 C335.420617,410.767607 336.885024,410.708234 338.151281,411.284115 L350.576329,418.451817 C351.642857,419.038459 351.461547,420.062417 350.288367,420.734389 L338.439243,427.582104 C337.219979,428.258796 335.752335,428.31814 334.482425,427.742097 Z" id="路径" fill="#2B303F" fill-rule="nonzero"></path>
                <path d="M352.016142,437.864342 L339.601759,430.696641 C338.588557,430.109998 338.716541,429.086041 339.879056,428.414069 L351.74951,421.566354 C352.964998,420.889852 354.429406,420.830479 355.695663,421.406361 L368.120711,428.574062 C369.187239,429.160705 369.005929,430.184662 367.832749,430.856634 L356.015621,437.704349 C354.78507,438.395366 353.29795,438.454856 352.016142,437.864342 L352.016142,437.864342 Z" id="路径" fill="#2B303F" fill-rule="nonzero"></path>
                <path d="M172.156899,334.017997 L155.220438,324.23707 C154.207237,323.650428 154.33522,322.626471 155.508401,321.954499 L167.357524,315.106784 C168.576788,314.430092 170.044433,314.370748 171.314342,314.94679 L188.250803,324.727717 C189.317331,325.314359 189.136021,326.32765 187.962841,327.010288 L176.113717,333.847337 C174.89761,334.532548 173.427478,334.595956 172.156899,334.017997 L172.156899,334.017997 Z" id="路径" fill="#2B303F" fill-rule="nonzero"></path>
                <path d="M281.891941,397.375361 L264.95548,387.594434 C263.888952,387.007792 264.070262,385.983835 265.232777,385.311862 L277.092566,378.464147 C278.308055,377.787646 279.772462,377.728272 281.038719,378.304154 L297.97518,388.08508 C298.988381,388.671723 298.860398,389.685014 297.697883,390.367652 L285.838094,397.204701 C284.625778,397.889747 283.158863,397.953187 281.891941,397.375361 L281.891941,397.375361 Z" id="路径" fill="#2B303F" fill-rule="nonzero"></path>
                <path d="M259.836147,384.63989 L177.276232,336.983207 C176.263031,336.396564 176.391014,335.372607 177.55353,334.700635 L189.413318,327.85292 C190.628807,327.176418 192.093215,327.117045 193.359471,327.692927 L275.930051,375.381609 C276.943252,375.968251 276.815269,376.992209 275.642088,377.664181 L263.792965,384.511896 C262.568581,385.178319 261.101034,385.225791 259.836147,384.63989 L259.836147,384.63989 Z" id="路径" fill="#2B303F" fill-rule="nonzero"></path>
                <path d="M179.921221,299.139448 L167.506838,291.971746 C166.493637,291.385104 166.62162,290.361147 167.7948,289.689175 L179.643924,282.84146 C180.859412,282.164958 182.32382,282.105585 183.590077,282.681466 L196.036456,289.849168 C197.102983,290.43581 196.921674,291.459768 195.748493,292.13174 L183.89937,298.979455 C182.674453,299.663285 181.197088,299.722702 179.921221,299.139448 Z" id="路径" fill="#2B303F" fill-rule="nonzero"></path>
                <path d="M197.486933,309.251027 L185.07255,302.072659 C184.059349,301.486017 184.187332,300.472726 185.349847,299.790088 L197.209636,292.953039 C198.42341,292.273105 199.887856,292.209772 201.155789,292.782379 L213.580838,299.960747 C214.647365,300.54739 214.466056,301.560681 213.292875,302.243319 L201.443752,309.080368 C200.227644,309.765579 198.757512,309.828986 197.486933,309.251027 Z" id="路径" fill="#2B303F" fill-rule="nonzero"></path>
                <path d="M215.052646,319.415938 L202.627597,312.248236 C201.56107,311.661594 201.742379,310.637636 202.91556,309.965664 L214.764683,303.117949 C215.983947,302.441257 217.451592,302.381913 218.721501,302.957956 L231.135885,310.125658 C232.202412,310.7123 232.031768,311.736257 230.858587,312.408229 L219.009464,319.255944 C217.7902,319.932636 216.322555,319.99198 215.052646,319.415938 Z" id="路径" fill="#2B303F" fill-rule="nonzero"></path>
                <path d="M232.618358,329.516851 L220.19331,322.349149 C219.126782,321.762507 219.308092,320.738549 220.481272,320.066577 L232.2984,313.261527 C233.517664,312.584835 234.985309,312.525491 236.255218,313.101534 L248.669601,320.269236 C249.736129,320.855878 249.554819,321.879835 248.392304,322.551807 L236.564511,329.399522 C235.342182,330.062344 233.877901,330.10588 232.618358,329.516851 Z" id="路径" fill="#2B303F" fill-rule="nonzero"></path>
                <path d="M250.173405,339.703094 L237.759022,332.535392 C236.692494,331.94875 236.873804,330.924792 238.036319,330.25282 L249.896108,323.405105 C251.111597,322.728603 252.576004,322.66923 253.842261,323.245112 L266.267309,330.412813 C267.333837,330.999456 267.152527,332.023413 265.979347,332.695385 L254.130223,339.5431 C252.910959,340.219792 251.443314,340.279136 250.173405,339.703094 Z" id="路径" fill="#2B303F" fill-rule="nonzero"></path>
                <path d="M267.739118,349.846672 L255.324734,342.668304 C254.258207,342.081661 254.428851,341.06837 255.602032,340.385732 L267.493816,333.548683 C268.709923,332.863472 270.180056,332.800065 271.450634,333.378023 L283.875683,340.556391 C284.888884,341.143034 284.760901,342.156325 283.58772,342.838963 L271.738597,349.676012 C270.511273,350.375675 269.021571,350.439241 267.739118,349.846672 Z" id="路径" fill="#2B303F" fill-rule="nonzero"></path>
                <path d="M285.30483,359.979583 L272.879781,352.811881 C271.86658,352.225239 271.994563,351.201282 273.167744,350.52931 L285.016867,343.681595 C286.236132,343.004903 287.703776,342.945559 288.973685,343.521601 L301.388069,350.689303 C302.454596,351.275945 302.273287,352.299903 301.110771,352.971875 L289.250983,359.81959 C288.035494,360.496092 286.571086,360.555465 285.30483,359.979583 L285.30483,359.979583 Z" id="路径" fill="#2B303F" fill-rule="nonzero"></path>
                <path d="M302.870542,370.123161 L290.445494,362.955459 C289.432292,362.368817 289.560276,361.34486 290.733456,360.672888 L302.58258,353.825173 C303.801844,353.148481 305.269489,353.089137 306.539398,353.665179 L318.953781,360.832881 C319.966982,361.419523 319.838999,362.443481 318.665819,363.115453 L306.816695,369.963168 C305.601206,370.63967 304.136799,370.699043 302.870542,370.123161 Z" id="路径" fill="#2B303F" fill-rule="nonzero"></path>
                <path d="M320.425589,380.266739 L308.021871,373.099037 C307.00867,372.512395 307.136653,371.488438 308.299169,370.816466 L320.158957,363.968751 C321.374446,363.292249 322.838854,363.232876 324.10511,363.808757 L336.530159,370.976459 C337.54336,371.563101 337.415377,372.587059 336.242196,373.259031 L324.393073,380.106746 C323.17098,380.787001 321.698479,380.846381 320.425589,380.266739 L320.425589,380.266739 Z" id="路径" fill="#2B303F" fill-rule="nonzero"></path>
                <path d="M337.991302,390.410317 L325.566253,383.231949 C324.553052,382.645307 324.681035,381.632016 325.854216,380.949377 L337.703339,374.112328 C338.919446,373.427118 340.389579,373.36371 341.660157,373.941669 L354.085206,381.120037 C355.098407,381.696013 354.970424,382.71997 353.797243,383.402609 L341.94812,390.239657 C340.730566,390.919783 339.262884,390.983084 337.991302,390.410317 Z" id="路径" fill="#2B303F" fill-rule="nonzero"></path>
                <path d="M355.557014,400.543229 L343.131966,393.375527 C342.118764,392.788885 342.246747,391.764927 343.419928,391.092955 L355.269052,384.24524 C356.488316,383.568548 357.95596,383.509204 359.22587,384.085247 L371.640253,391.252949 C372.706781,391.839591 372.525471,392.863548 371.362956,393.53552 L359.503167,400.383235 C358.287678,401.059737 356.82327,401.11911 355.557014,400.543229 Z" id="路径" fill="#2B303F" fill-rule="nonzero"></path>
                <path d="M373.080065,410.686807 L360.665682,403.519105 C359.652481,402.932463 359.780464,401.908505 360.953645,401.236533 L372.802768,394.388818 C374.018257,393.712316 375.482664,393.652943 376.748921,394.228825 L389.173969,401.396527 C390.187171,401.983169 390.059187,403.007126 388.886007,403.679098 L377.068879,410.580144 C375.832541,411.250489 374.350455,411.29012 373.080065,410.686807 L373.080065,410.686807 Z" id="路径" fill="#2B303F" fill-rule="nonzero"></path>
                <path d="M162.366174,288.985204 L136.67352,274.159154 C135.606992,273.572512 135.788302,272.548555 136.961483,271.876582 L148.810606,265.028867 C150.02987,264.352175 151.497515,264.292831 152.767424,264.868874 L178.449413,279.694924 C179.515941,280.281566 179.334631,281.305523 178.172116,281.977496 L166.312327,288.825211 C165.096838,289.501712 163.63243,289.561086 162.366174,288.985204 L162.366174,288.985204 Z" id="路径" fill="#2B303F" fill-rule="nonzero"></path>
                <path d="M154.164576,303.917916 L141.750192,296.771547 C140.736991,296.184904 140.854309,295.171613 142.02749,294.488975 L153.876613,287.651926 C155.09272,286.966715 156.562852,286.903308 157.833431,287.481267 L170.25848,294.659634 C171.271681,295.235611 171.143698,296.259568 169.970517,296.942206 L158.121394,303.779255 C156.898714,304.449096 155.431137,304.500525 154.164576,303.917916 L154.164576,303.917916 Z" id="路径" fill="#2B303F" fill-rule="nonzero"></path>
                <path d="M171.730288,314.082826 L159.305239,306.915125 C158.292038,306.328482 158.420021,305.304525 159.593202,304.632553 L171.442325,297.784838 C172.661589,297.108146 174.129234,297.048802 175.399143,297.624844 L187.813527,304.792546 C188.880054,305.379188 188.698745,306.403146 187.536229,307.075118 L175.676441,313.922833 C174.460952,314.599335 172.996544,314.658708 171.730288,314.082826 Z" id="路径" fill="#2B303F" fill-rule="nonzero"></path>
                <path d="M189.285335,324.183739 L176.838956,317.048036 C175.772428,316.461394 175.953738,315.448103 177.126918,314.765465 L188.976042,307.928416 C190.193596,307.248291 191.661278,307.184989 192.93286,307.757756 L205.357908,314.936124 C206.424436,315.522766 206.243126,316.536058 205.069946,317.218696 L193.220822,324.055745 C192.003504,324.720101 190.543242,324.767594 189.285335,324.183739 Z" id="路径" fill="#2B303F" fill-rule="nonzero"></path>
                <path d="M206.840382,334.359316 L194.425999,327.191614 C193.359471,326.604972 193.540781,325.581015 194.713961,324.909042 L206.563085,318.061327 C207.778573,317.384826 209.242981,317.325452 210.509238,317.901334 L222.934286,325.069036 C223.947487,325.655678 223.819504,326.679635 222.646324,327.351608 L210.7972,334.199323 C209.577936,334.876015 208.110291,334.935359 206.840382,334.359316 L206.840382,334.359316 Z" id="路径" fill="#2B303F" fill-rule="nonzero"></path>
                <path d="M224.406094,344.502894 L212.034372,337.335192 C211.021171,336.74855 211.149154,335.724592 212.322335,335.05262 L224.171458,328.204905 C225.390722,327.528213 226.858367,327.468869 228.128276,328.044912 L240.542659,335.212614 C241.555861,335.799256 241.438543,336.823213 240.265362,337.495185 L228.416239,344.332234 C227.186122,345.03554 225.691506,345.099147 224.406094,344.502894 Z" id="路径" fill="#2B303F" fill-rule="nonzero"></path>
                <path d="M241.961141,354.635806 L229.546758,347.468104 C228.533557,346.881462 228.66154,345.857504 229.824055,345.185532 L241.683844,338.337817 C242.899333,337.661315 244.363741,337.601942 245.629997,338.177824 L258.055045,345.345525 C259.068247,345.932168 258.940263,346.956125 257.767083,347.628097 L245.917959,354.475812 C244.698695,355.152504 243.231051,355.211848 241.961141,354.635806 Z" id="路径" fill="#2B303F" fill-rule="nonzero"></path>
                <path d="M259.526854,364.779383 L247.101805,357.611682 C246.088604,357.025039 246.216587,356.001082 247.389768,355.32911 L259.238891,348.481395 C260.458155,347.804703 261.9258,347.745359 263.195709,348.321402 L275.610093,355.489103 C276.623294,356.075746 276.495311,357.099703 275.332795,357.771675 L263.483672,364.61939 C262.264408,365.296082 260.796763,365.355426 259.526854,364.779383 L259.526854,364.779383 Z" id="路径" fill="#2B303F" fill-rule="nonzero"></path>
                <path d="M277.092566,374.922961 L264.678183,367.744593 C263.664982,367.157951 263.792965,366.14466 264.95548,365.462022 L276.815269,358.624973 C278.027585,357.939927 279.4945,357.876487 280.761422,358.454313 L293.18647,365.632681 C294.199672,366.208657 294.071688,367.232615 292.898508,367.915253 L281.049384,374.752302 C279.83183,375.432427 278.364148,375.495729 277.092566,374.922961 Z" id="路径" fill="#2B303F" fill-rule="nonzero"></path>
                <path d="M294.647613,385.055873 L282.222565,377.888171 C281.209363,377.301529 281.337347,376.277572 282.510527,375.6056 L294.359651,368.757885 C295.578915,368.081192 297.046559,368.021849 298.316469,368.597891 L310.730852,375.765593 C311.744053,376.352235 311.61607,377.376193 310.453555,378.048165 L298.593766,384.89588 C297.378277,385.572382 295.91387,385.631755 294.647613,385.055873 L294.647613,385.055873 Z" id="路径" fill="#2B303F" fill-rule="nonzero"></path>
                <path d="M312.20266,395.199451 L299.788277,388.021083 C298.775076,387.445107 298.903059,386.42115 300.065574,385.738511 L311.925363,378.901463 C313.139137,378.221528 314.603583,378.158195 315.871516,378.730803 L328.285899,385.909171 C329.2991,386.495813 329.171117,387.509104 327.997936,388.191743 L316.148813,395.028791 C314.935521,395.71042 313.470259,395.773788 312.20266,395.199451 Z" id="路径" fill="#2B303F" fill-rule="nonzero"></path>
                <path d="M329.768373,405.332363 L317.343324,398.164661 C316.330123,397.578019 316.458106,396.554061 317.631287,395.882089 L329.48041,389.034374 C330.699674,388.357682 332.167319,388.298338 333.437228,388.874381 L345.851611,396.042083 C346.864813,396.628725 346.736829,397.652682 345.574314,398.324654 L333.714525,405.172369 C332.499037,405.848871 331.034629,405.908244 329.768373,405.332363 Z" id="路径" fill="#2B303F" fill-rule="nonzero"></path>
                <path d="M369.059256,428.030085 L334.930367,408.308239 C333.917166,407.721597 334.034484,406.697639 335.207664,406.025667 L347.056788,399.177952 C348.276052,398.50126 349.743696,398.441916 351.013606,399.017959 L385.142494,418.739805 C386.155696,419.315781 386.027712,420.339738 384.854532,421.022377 L373.005408,427.859425 C371.790682,428.536 370.327848,428.599264 369.059256,428.030085 Z" id="路径" fill="#2B303F" fill-rule="nonzero"></path>
                <path d="M136.609528,293.806337 L119.673068,284.02541 C118.60654,283.438768 118.787849,282.414811 119.950365,281.742839 L131.810154,274.90579 C133.02247,274.220744 134.489384,274.157304 135.756306,274.73513 L152.692767,284.516057 C153.705969,285.102699 153.577985,286.126656 152.41547,286.798628 L140.577012,293.646343 C139.355879,294.330003 137.881737,294.389449 136.609528,293.806337 Z" id="路径" fill="#2B303F" fill-rule="nonzero"></path>
                <path d="M437.828966,388.319737 L188.432113,244.325729 C187.365585,243.749753 187.546895,242.725795 188.720075,242.043157 L194.64997,238.629966 C195.863744,237.950032 197.328189,237.886699 198.596122,238.459306 L447.992976,382.453315 C449.006177,383.039957 448.878194,384.053248 447.705013,384.735886 L441.785784,388.181076 C440.563105,388.850917 439.095528,388.902346 437.828966,388.319737 Z" id="路径" fill="#2B303F" fill-rule="nonzero"></path>
                <path d="M283.331754,404.692389 C282.975632,405.468331 282.366393,406.10019 281.603979,406.484315 L212.983582,446.109333 C210.640994,447.411621 207.819841,447.526376 205.379239,446.418653 L88.0611845,378.698804 C87.5597921,378.438469 87.1558151,378.023233 86.9093345,377.514854 C86.4827234,376.448231 87.0799789,375.264281 88.6371095,374.368318 L157.268171,334.732634 C159.610759,333.430346 162.431912,333.31559 164.872514,334.423313 L282.190569,402.143162 C283.17351,402.569292 283.668635,403.675324 283.331754,404.692389 Z" id="路径" fill="#B1B4C4" fill-rule="nonzero"></path>
                <path d="M283.331754,404.692389 C282.975632,405.468331 282.366393,406.10019 281.603979,406.484315 L212.983582,446.109333 C210.640994,447.411621 207.819841,447.526376 205.379239,446.418653 L88.0611845,378.698804 C87.5597921,378.438469 87.1558151,378.023233 86.9093345,377.514854 C87.2729137,376.746677 87.8804037,376.120381 88.6371095,375.733594 L157.268171,336.108576 C159.609523,334.804539 162.429906,334.685859 164.872514,335.78859 L282.190569,403.519105 C282.688632,403.775398 283.08935,404.187387 283.331754,404.692389 L283.331754,404.692389 Z" id="路径" fill="#C3C6D1" fill-rule="nonzero"></path>
                <path d="M456.81316,377.397525 L207.416307,233.403517 C206.302801,232.579872 205.642746,231.27941 205.635206,229.894329 L205.635206,226.961118 C205.635206,225.606508 206.456432,224.987867 207.469633,225.574509 L456.866487,369.568518 C457.999799,370.376305 458.680954,371.675368 458.700914,373.067039 L458.700914,376.00025 C458.647588,377.365526 457.826362,377.984167 456.81316,377.397525 Z" id="路径" fill="#2B303F" fill-rule="nonzero"></path>
                <path d="M245.096733,219.185442 L220.459942,204.988699 C217.377676,203.20744 214.871336,198.418306 214.871336,194.322476 L214.871336,167.902242 C214.871336,163.78508 217.377676,161.897159 220.459942,163.635753 L245.096733,177.875161 C248.189664,179.65642 250.685339,184.445554 250.685339,188.541383 L250.685339,214.961617 C250.642677,219.078779 248.147002,220.966701 245.096733,219.185442 Z" id="路径" fill="#E9EAF2" fill-rule="nonzero"></path>
                <path d="M245.000746,158.675959 L220.406615,144.479217 C217.32435,142.697958 214.81801,135.412927 214.81801,131.850409 L214.81801,101.003692 C214.81801,96.8865305 217.32435,94.998609 220.406615,96.7372034 L245.000746,110.933946 C248.093676,112.715205 250.589351,117.504339 250.589351,121.600169 L250.589351,152.446885 C250.589351,156.073401 248.093676,160.457219 245.000746,158.675959 Z" id="路径" fill="#E9EAF2" fill-rule="nonzero"></path>
                <path d="M232.842329,138.068817 C227.840314,135.17827 223.766178,128.117231 223.766178,122.336138 C223.766178,116.555045 227.840314,114.19781 232.842329,117.088357 C237.844344,119.978903 241.929146,127.039942 241.929146,132.821035 C241.929146,138.602128 237.85501,140.959363 232.842329,138.068817 Z M232.842329,119.776245 C229.120147,117.643 226.091208,119.381594 226.091208,123.680082 C226.338026,128.445105 228.846877,132.805265 232.842329,135.412927 C236.575176,137.546172 239.604115,135.818244 239.604115,131.519756 C239.358228,126.748917 236.844788,122.383707 232.842329,119.776245 L232.842329,119.776245 Z" id="形状" fill="#8C50FF" fill-rule="nonzero"></path>
                <polygon id="路径" fill="#8C50FF" fill-rule="nonzero" points="235.338004 133.791662 231.221207 127.242601 231.221207 121.792161 233.546237 123.136105 233.546237 127.370595 236.873804 132.650376"></polygon>
                <path d="M244.96875,93.4306743 L220.374619,79.2339317 C217.292354,77.4420062 214.786014,69.4210066 214.786014,65.847822 L214.786014,37.4543368 C214.786014,33.8918183 217.292354,32.441212 220.374619,34.2544699 L244.96875,48.4618787 C248.269447,50.6091128 250.346078,54.2039037 250.557355,58.1361429 L250.557355,86.5402943 C250.557355,90.0708141 248.06168,95.2119335 244.96875,93.4306743 Z" id="路径" fill="#E9EAF2" fill-rule="nonzero"></path>
                <path d="M232.671685,59.3947572 C231.189211,58.5414593 229.9947,59.2347638 229.9947,60.9520257 C230.094558,62.8375343 231.089383,64.5617862 232.671685,65.5918326 C234.154158,66.4451305 235.359335,65.751826 235.359335,64.0452303 C235.251909,62.1564309 234.254557,60.4307001 232.671685,59.3947572 L232.671685,59.3947572 Z M239.828086,60.4613794 L237.69503,59.2240976 C237.349296,58.9883038 237.09955,58.6363581 236.991122,58.2321389 L236.436528,55.9815659 C236.320339,55.578155 236.067784,55.2275625 235.721954,54.9896071 L229.642746,51.4804198 C229.344118,51.3097602 229.034825,51.3844238 228.938837,51.6617456 L228.384243,53.261679 C228.32831,53.3925894 228.214764,53.4901028 228.076915,53.5256124 C227.939066,53.561122 227.792545,53.5306017 227.680335,53.4430048 L225.547279,52.205723 C224.566074,51.6297469 223.766178,52.0990607 223.766178,53.2723453 L223.766178,62.5732916 C223.834775,63.8287987 224.495911,64.9769796 225.547279,65.6664962 L239.860082,73.9328189 C240.841287,74.4981287 241.651848,74.0394811 241.651848,72.8661966 L241.651848,63.5332516 C241.57354,62.2669983 240.896075,61.1140173 239.828086,60.4293808 L239.828086,60.4613794 Z M232.671685,67.6930785 C230.036167,65.9688275 228.377272,63.0942102 228.202933,59.9494008 C228.202933,57.090853 230.208005,55.938901 232.671685,57.3681748 C235.313641,59.0863286 236.974597,61.9645183 237.140436,65.1118526 C237.140436,67.9277354 235.146029,69.0903537 232.671685,67.6610799 L232.671685,67.6930785 Z M239.198835,63.6079152 C238.834701,63.371047 238.605019,62.975009 238.580248,62.5412929 C238.580248,62.1359764 238.857546,61.9759831 239.198835,62.1786413 C239.567035,62.4131231 239.800911,62.8095589 239.828086,63.2452636 C239.828086,63.6185814 239.550789,63.7785748 239.198835,63.5759165 L239.198835,63.6079152 Z" id="形状" fill="#8C50FF" fill-rule="nonzero"></path>
                <path d="M240.436007,193.362516 C240.436007,198.172983 232.895655,204.423389 232.895655,204.423389 C232.895655,204.423389 225.344639,189.490677 225.344639,184.648212 C225.344639,179.805747 228.725532,177.885827 232.895655,180.285727 C237.348848,183.194201 240.149418,188.051065 240.436007,193.362516 L240.436007,193.362516 Z" id="路径" fill="#8C50FF" fill-rule="nonzero"></path>
                <ellipse id="椭圆形" fill="#E9EAF2" fill-rule="nonzero" transform="translate(232.895298, 188.677838) rotate(-30.000000) translate(-232.895298, -188.677838) " cx="232.895298" cy="188.677838" rx="4.03156428" ry="6.97555521"></ellipse>
                <path d="M419.079408,258.053158 L270.181466,172.072735 C267.664461,170.632795 265.638058,166.739624 265.638058,163.401096 L265.638058,63.3199272 C265.638058,59.9813994 267.664461,58.4454633 270.181466,59.8960696 L419.079408,145.865826 C421.585748,147.316432 423.612151,151.198937 423.612151,154.548131 L423.612151,254.618634 C423.612151,257.967828 421.585748,259.503764 419.079408,258.053158 Z" id="路径" fill="#E9EAF2" fill-rule="nonzero"></path>
                <path d="M401.876315,185.298852 L286.467345,118.666958 C283.673042,117.045692 281.401338,112.715205 281.401338,108.992693 L281.401338,101.451674 C281.401338,97.7184959 283.673042,96.0119002 286.467345,97.6224998 L401.876315,164.254394 C404.670618,165.864994 406.931657,170.19548 406.931657,173.928658 L406.931657,181.469678 C406.931657,185.202856 404.670618,186.909451 401.876315,185.298852 Z" id="路径" fill="#FFFFFF" fill-rule="nonzero"></path>
                <path d="M339.111156,182.962949 L286.467345,152.564214 C283.673042,150.953614 281.401338,146.623128 281.401338,142.88995 L281.401338,135.391595 C281.401338,131.658417 283.673042,129.951821 286.467345,131.562421 L339.111156,161.961156 C341.905459,163.571756 344.166497,167.902242 344.166497,171.63542 L344.166497,179.123109 C344.166497,182.856287 341.905459,184.573548 339.111156,182.962949 Z" id="路径" fill="#8C50FF" fill-rule="nonzero"></path>
                <path d="M449.720751,280.068242 C449.720751,280.068242 393.589394,292.44106 348.208638,242.032491 C302.827881,191.623922 265.808702,198.087653 265.808702,198.087653 L265.808702,229.55301 L449.720751,335.735259 L449.720751,280.068242 Z" id="路径" fill="url(#linearGradient-2)" fill-rule="nonzero"></path>
                <path d="M449.720751,280.068242 C449.720751,280.068242 393.589394,292.44106 348.208638,242.032491 C302.827881,191.623922 265.808702,198.087653 265.808702,198.087653" id="路径" stroke="#CCCEDD" stroke-width="1.06"></path>
            </g>
            <g id="Men_12" transform="translate(247.779751, 0.000000)" fill-rule="nonzero">
                <path d="M24.2450974,47.3818258 C22.6036976,50.3184317 20.6083634,53.042431 18.3038219,55.4927631 C17.6638281,56.2398231 12.7252095,54.3508285 13.7598661,53.8172142 C14.7945227,53.2835999 18.0264913,48.7798952 19.6478088,45.7703106 C21.0042161,42.1772841 22.158019,38.5109254 23.1037752,34.7885283 C24.1170987,31.1065897 24.9917568,25.706413 25.7384162,23.1664089 C26.1283252,21.2499116 27.606911,19.7412793 29.5143795,19.3137137 C31.2956955,18.8974945 32.4476843,19.3884197 32.1170208,21.5442215 C31.5090268,25.3008661 28.5970551,39.964587 24.2450974,47.3818258 Z" id="_Контур_" fill="#FFCEA9"></path>
                <path d="M27.0717366,104.852086 C25.5464181,106.100743 23.2851068,104.958809 23.1677746,105.076204 C21.3703985,106.74261 19.4869432,108.313592 17.5251628,109.782682 C16.5651722,110.529742 15.0825199,111.532937 15.3918502,112.984368 C15.8718456,115.556389 19.9998054,114.766639 21.5571236,113.97689 C23.1144418,113.187141 24.3944293,111.842433 25.8237487,110.967306 C26.890405,110.305624 27.9570613,109.974783 28.0743935,108.640747 C28.1703926,107.840326 27.3490672,104.820069 27.0717366,104.852086 Z" id="路径" fill="#38226D"></path>
                <path d="M28.0530604,108.107133 C27.8503957,109.377135 26.8264057,109.72932 25.7810825,110.38033 C24.2877637,111.308819 22.9651099,112.653527 21.4077917,113.443276 C19.8504735,114.233025 16.3838406,114.894707 15.3705171,113.048401 C15.9145118,115.535044 19.9784723,114.755967 21.5144573,113.97689 C23.0504424,113.197813 24.3517631,111.842433 25.7810825,110.967306 C26.8477388,110.305624 27.9143951,109.974783 28.0317273,108.640747 C28.0532918,108.463749 28.0604264,108.285289 28.0530604,108.107133 L28.0530604,108.107133 Z" id="路径" fill="#9C73FF"></path>
                <path d="M11.541221,95.8980378 C10.0159025,97.1466953 7.33859526,95.7913149 7.22126307,95.8980378 C5.63237461,97.5169311 3.94756883,99.0387029 2.17597883,100.455104 C1.21598817,101.212836 -0.266664072,102.216031 0.0426662515,103.65679 C0.522661581,106.239483 4.65062142,105.449734 6.21860616,104.659985 C7.78659091,103.870235 9.04524533,102.525527 10.4852313,101.639728 C11.5518876,100.988718 12.6185439,100.647205 12.7358761,99.3238416 C12.8212086,98.5234202 11.8185517,95.8660209 11.541221,95.8980378 Z" id="路径" fill="#38226D"></path>
                <path d="M12.6825433,98.9716562 C12.4798786,100.241658 11.4558885,100.593844 10.4105654,101.244853 C8.91724657,102.173342 7.59459277,103.51805 6.03727459,104.307799 C4.47995641,105.097548 1.00265691,105.75923 0,103.912925 C0.543994707,106.399567 4.5972886,105.62049 6.14394022,104.841413 C7.69059184,104.062337 8.97057939,102.706956 10.4105654,101.821157 C11.4772217,101.170147 12.543878,100.839306 12.6612101,99.5052705 C12.6827747,99.3282724 12.6899093,99.1498121 12.6825433,98.9716562 Z" id="路径" fill="#9C73FF"></path>
                <path d="M47.5088711,55.748898 C49.2048546,66.3571502 44.5009004,70.3165683 38.3782933,72.5684207 C33.9836693,74.1906081 27.7117304,76.6879231 27.7117304,76.6879231 C27.7117304,76.6879231 27.7970629,79.0144814 27.8397291,84.2332292 C27.8397291,88.8329845 27.2850679,105.577801 27.2850679,105.577801 C25.8123288,106.335684 24.0645193,106.335684 22.5917802,105.577801 C22.5917802,105.577801 20.1278042,92.7176966 19.6051426,86.911973 C18.8904829,79.0464983 17.6851613,73.8917841 18.0904907,72.1948907 C18.4424872,70.7007706 27.0397369,66.4745454 29.770377,64.2120208 L11.7545523,70.2525346 C12.1130807,72.2062691 12.2880643,74.1892895 12.2772139,76.1756533 C12.1172154,82.4189406 11.7652189,95.940727 11.7652189,95.940727 C11.7652189,95.940727 9.30124283,97.7229987 7.18926338,95.940727 C7.18926338,95.940727 2.65597416,69.185306 3.21063543,65.6421071 C3.73329701,62.280337 19.6051426,55.4073848 22.4104486,53.0381373 C23.3961343,52.2365695 24.675568,51.891325 25.9304144,52.0883039 L47.5088711,55.748898 Z" id="_Контур_2" fill="#8C50FF"></path>
                <g id="_Группа_2" transform="translate(1.244037, 45.311402)">
                    <path d="M3.10792098,14.8558221 L15.2144699,7.86547476 C15.4277371,7.736979 15.6945292,7.736979 15.9077964,7.86547476 L37.1342566,20.1279313 L24.6863777,27.3210521 L3.10792098,14.8558221 Z" id="_Контур_3" fill="#F4F4F4"></path>
                    <path d="M25.2517055,24.7490312 L26.1796965,25.2826455 C26.2543624,25.2826455 26.2436959,25.4000406 26.1796965,25.453402 L25.2943718,25.9656718 C25.2030726,26.0081769 25.0976737,26.0081769 25.0063746,25.9656718 L24.0783836,25.4320575 C24.0037177,25.4320575 24.0143842,25.3146623 24.0783836,25.2613009 L24.9637083,24.7490312 C25.0550075,24.706526 25.1604064,24.706526 25.2517055,24.7490312 L25.2517055,24.7490312 Z" id="路径" fill="#3A2C6D"></path>
                    <path d="M23.9503849,24.0553326 L24.8677093,24.5782746 C24.9423752,24.5782746 24.9317086,24.706342 24.8677093,24.7490312 L23.9930511,25.2613009 C23.8991674,25.3088476 23.788271,25.3088476 23.6943873,25.2613009 L22.7770629,24.7276866 C22.702397,24.7276866 22.7130636,24.6102914 22.7770629,24.55693 L23.6517211,24.0553326 C23.744128,24.0019528 23.857978,24.0019528 23.9503849,24.0553326 L23.9503849,24.0553326 Z" id="路径" fill="#3A2C6D"></path>
                    <path d="M22.6277311,23.2335666 L23.5450555,23.7671809 C23.6197214,23.7671809 23.6197214,23.884576 23.5450555,23.9379374 L22.6703973,24.4395349 C22.5765136,24.4870816 22.4656172,24.4870816 22.3717335,24.4395349 L21.4544091,23.9059206 C21.3797432,23.9059206 21.3904098,23.7885254 21.4544091,23.735164 L22.3290673,23.2228943 C22.4246413,23.1786681 22.5355539,23.1826314 22.6277311,23.2335666 L22.6277311,23.2335666 Z" id="路径" fill="#3A2C6D"></path>
                    <path d="M21.3370769,22.4865065 L22.2544014,23.0201208 C22.3290673,23.0201208 22.3290673,23.137516 22.2544014,23.1908774 L21.3797432,23.7031471 C21.2848093,23.7460659 21.1760133,23.7460659 21.0810794,23.7031471 L20.163755,23.1695328 C20.0890891,23.1695328 20.0997557,23.0521377 20.163755,22.9987763 L21.0384132,22.4865065 C21.1333471,22.4435878 21.242143,22.4435878 21.3370769,22.4865065 L21.3370769,22.4865065 Z" id="路径" fill="#3A2C6D"></path>
                    <path d="M20.0250897,21.7287742 L20.9530807,22.2623885 C21.0277466,22.2623885 21.0170801,22.390456 20.9530807,22.4331451 L20.067756,22.9454148 C19.9776115,22.9928549 19.8699032,22.9928549 19.7797588,22.9454148 L18.8517678,22.4118005 C18.7771019,22.4118005 18.7877684,22.2944054 18.8517678,22.241044 L19.7370925,21.7394465 C19.8254704,21.6886295 19.9331969,21.6846375 20.0250897,21.7287742 Z" id="路径" fill="#3A2C6D"></path>
                    <path d="M18.723769,20.9817142 L19.65176,21.5153285 C19.726426,21.5153285 19.7157594,21.6327237 19.65176,21.6860851 L18.7664353,22.1876825 C18.6762908,22.2351226 18.5685826,22.2351226 18.4784381,22.1876825 L17.5504471,21.6540682 C17.4757812,21.6540682 17.4864477,21.5366731 17.5504471,21.4939839 L18.4357718,20.9817142 C18.5259163,20.9342741 18.6336246,20.9342741 18.723769,20.9817142 L18.723769,20.9817142 Z" id="路径" fill="#3A2C6D"></path>
                    <path d="M17.4651146,20.2239819 L18.382439,20.7575962 C18.457105,20.7575962 18.4464384,20.8749914 18.382439,20.9283528 L17.5077809,21.4406225 C17.412847,21.4835412 17.304051,21.4835412 17.2091171,21.4406225 L16.2917927,20.9070082 C16.2171268,20.9070082 16.2171268,20.7896131 16.2917927,20.7362516 L17.1664509,20.2239819 C17.2613848,20.1810632 17.3701807,20.1810632 17.4651146,20.2239819 L17.4651146,20.2239819 Z" id="路径" fill="#3A2C6D"></path>
                    <path d="M16.1104611,19.4662496 L17.0384521,19.9998639 C17.113118,19.9998639 17.1024515,20.1279313 17.0384521,20.1706205 L16.1531274,20.6828902 C16.0629829,20.7303303 15.9552746,20.7303303 15.8651302,20.6828902 L14.9371392,20.1492759 C14.8624733,20.1492759 14.8731398,20.0318808 14.9371392,19.9785193 L15.8224639,19.4769219 C15.9108419,19.4261049 16.0185683,19.4221129 16.1104611,19.4662496 L16.1104611,19.4662496 Z" id="路径" fill="#3A2C6D"></path>
                    <path d="M14.8091405,18.7191896 L15.7264649,19.2528039 C15.8011308,19.2528039 15.7904642,19.370199 15.7264649,19.4235605 L14.8518067,19.9251579 C14.757923,19.9727046 14.6470266,19.9727046 14.553143,19.9251579 L13.6358185,19.3915436 C13.5611526,19.3915436 13.5718192,19.2741485 13.6358185,19.2314593 L14.5104767,18.7191896 C14.6043604,18.6716429 14.7152568,18.6716429 14.8091405,18.7191896 L14.8091405,18.7191896 Z" id="路径" fill="#3A2C6D"></path>
                    <path d="M13.4971532,17.9614573 L14.4251442,18.4950716 C14.4998101,18.4950716 14.4891436,18.6124667 14.4251442,18.6658282 L13.5398195,19.1780979 C13.4485203,19.2206031 13.3431214,19.2206031 13.2518223,19.1780979 L12.3238313,18.6444836 C12.2491654,18.6444836 12.2598319,18.5270884 12.3238313,18.473727 L13.209156,17.9614573 C13.2993005,17.9140172 13.4070088,17.9140172 13.4971532,17.9614573 Z" id="路径" fill="#3A2C6D"></path>
                    <path d="M12.1958326,17.203725 L13.113157,17.7373393 C13.1878229,17.7373393 13.1878229,17.8547344 13.113157,17.9080959 L12.2384988,18.4203656 C12.1446151,18.4679123 12.0337187,18.4679123 11.939835,18.4203656 L11.0225106,17.8867513 C10.9478447,17.8867513 10.9585113,17.7693561 11.0225106,17.7159947 L11.8971688,17.2143973 C11.989346,17.1634621 12.1002586,17.1594988 12.1958326,17.203725 L12.1958326,17.203725 Z" id="路径" fill="#3A2C6D"></path>
                    <path d="M10.8945119,16.456665 L11.8118363,16.9902793 C11.8865022,16.9902793 11.8758357,17.1076744 11.8118363,17.1610358 L10.9265116,17.6626333 C10.8363671,17.7100734 10.7286588,17.7100734 10.6385144,17.6626333 L9.71052341,17.129019 C9.63585747,17.129019 9.64652403,17.0116238 9.71052341,16.9582624 L10.5958481,16.456665 C10.6897318,16.4091183 10.8006282,16.4091183 10.8945119,16.456665 Z" id="路径" fill="#3A2C6D"></path>
                    <path d="M9.58252465,15.6989327 L10.5105156,16.232547 C10.5851816,16.232547 10.574515,16.3499421 10.5105156,16.4033035 L9.6251909,16.904901 C9.53504645,16.9523411 9.42733816,16.9523411 9.33719371,16.904901 L8.40920273,16.3712867 C8.33453679,16.3712867 8.34520336,16.2432192 8.40920273,16.2005301 L9.29452745,15.6882604 C9.38642029,15.6441237 9.49414673,15.6481157 9.58252465,15.6989327 L9.58252465,15.6989327 Z" id="路径" fill="#3A2C6D"></path>
                    <path d="M7.65187677,14.5783426 L9.19852839,15.4748147 C9.27319433,15.4748147 9.26252777,15.5922098 9.19852839,15.6455712 L8.32387023,16.157841 C8.22893633,16.2007597 8.12014037,16.2007597 8.02520647,16.157841 L6.47855485,15.2613689 C6.40388891,15.2613689 6.40388891,15.1439738 6.47855485,15.0906124 L7.35321301,14.5783426 C7.44814691,14.5354239 7.55694287,14.5354239 7.65187677,14.5783426 L7.65187677,14.5783426 Z" id="路径" fill="#3A2C6D"></path>
                    <path d="M24.5797121,22.9027257 L25.507703,23.43634 C25.582369,23.43634 25.5717024,23.5537351 25.507703,23.6070966 L24.6223783,24.108694 C24.5339036,24.1624754 24.4228558,24.1624754 24.3343811,24.108694 L23.4063901,23.585752 C23.3317242,23.585752 23.3423908,23.4576846 23.4063901,23.4149954 L24.2917149,22.9027257 C24.3818593,22.8552856 24.4895676,22.8552856 24.5797121,22.9027257 L24.5797121,22.9027257 Z" id="路径" fill="#3A2C6D"></path>
                    <path d="M23.2783914,22.1449934 L24.1957158,22.6786077 C24.2703817,22.6786077 24.2597152,22.7960028 24.1957158,22.8493643 L23.3210576,23.361634 C23.2261237,23.4045527 23.1173278,23.4045527 23.0223939,23.361634 L22.1050695,22.8280197 C22.0304035,22.8280197 22.0304035,22.7106245 22.1050695,22.6572631 L22.9797276,22.1449934 C23.0736113,22.0974467 23.1845077,22.0974467 23.2783914,22.1449934 L23.2783914,22.1449934 Z" id="路径" fill="#3A2C6D"></path>
                    <path d="M21.9664042,21.3872611 L22.8837286,21.9208754 C22.9690611,21.9208754 22.9583945,22.0382705 22.8837286,22.091632 L22.0090704,22.6039017 C21.9141365,22.6468204 21.8053406,22.6468204 21.7104067,22.6039017 L20.7930822,22.0702874 C20.7184163,22.0702874 20.7290829,21.9528922 20.7930822,21.8995308 L21.6677404,21.3872611 C21.7626743,21.3443424 21.8714703,21.3443424 21.9664042,21.3872611 Z" id="路径" fill="#3A2C6D"></path>
                    <path d="M20.6650835,20.6295288 L21.5930745,21.1631431 C21.6677404,21.1631431 21.6570738,21.2912105 21.5930745,21.3338997 L20.7077497,21.8461694 C20.6176053,21.8936095 20.509897,21.8936095 20.4197525,21.8461694 L19.4917616,21.3125551 C19.4170956,21.3125551 19.4277622,21.1951599 19.4917616,21.1417985 L20.3770863,20.6402011 C20.4654642,20.5893841 20.5731906,20.5853921 20.6650835,20.6295288 L20.6650835,20.6295288 Z" id="路径" fill="#3A2C6D"></path>
                    <path d="M19.3637628,19.8824688 L20.2810872,20.4160831 C20.3557532,20.4160831 20.3450866,20.5334782 20.2810872,20.5868396 L19.4064291,21.0991094 C19.3114952,21.1420281 19.2026992,21.1420281 19.1077653,21.0991094 L18.1904409,20.5654951 C18.115775,20.5654951 18.115775,20.4480999 18.1904409,20.3947385 L19.0650991,19.8824688 C19.160033,19.83955 19.2688289,19.83955 19.3637628,19.8824688 L19.3637628,19.8824688 Z" id="路径" fill="#3A2C6D"></path>
                    <path d="M18.0517756,19.1247365 L18.9797666,19.6583508 C19.0544325,19.6583508 19.0437659,19.7864182 18.9797666,19.8291073 L18.0944418,20.3413771 C18.0042974,20.3888171 17.8965891,20.3888171 17.8064446,20.3413771 L16.8784537,19.8077628 C16.8037877,19.8077628 16.8144543,19.6903676 16.8784537,19.6370062 L17.7637784,19.1354087 C17.8521563,19.0845918 17.9598827,19.0805998 18.0517756,19.1247365 L18.0517756,19.1247365 Z" id="路径" fill="#3A2C6D"></path>
                    <path d="M16.7397883,18.3776764 L17.6677793,18.9112907 C17.7424453,18.9112907 17.7317787,19.0286859 17.6677793,19.071375 L16.7824546,19.5836448 C16.6923101,19.6310848 16.5846019,19.6310848 16.4944574,19.5836448 L15.5664664,19.0500305 C15.4918005,19.0500305 15.5024671,18.9326353 15.5664664,18.8792739 L16.4517911,18.3776764 C16.5419356,18.3302364 16.6496439,18.3302364 16.7397883,18.3776764 L16.7397883,18.3776764 Z" id="路径" fill="#3A2C6D"></path>
                    <path d="M15.4384677,17.651961 L16.3557921,18.1855753 C16.430458,18.1855753 16.4197915,18.3029704 16.3557921,18.3563319 L15.4811339,18.8579293 C15.3872503,18.905476 15.2763538,18.905476 15.1824702,18.8579293 L14.2651458,18.324315 C14.1904798,18.324315 14.2011464,18.2069199 14.2651458,18.1642307 L15.1398039,17.651961 C15.2336876,17.6044143 15.344584,17.6044143 15.4384677,17.651961 L15.4384677,17.651961 Z" id="路径" fill="#3A2C6D"></path>
                    <path d="M14.1264804,16.8622118 L15.0544714,17.3958261 C15.1291374,17.3958261 15.1184708,17.5132213 15.0544714,17.5665827 L14.1691467,18.0681801 C14.0790022,18.1156202 13.9712939,18.1156202 13.8811495,18.0681801 L12.9531585,17.5345658 C12.8784926,17.5345658 12.8891591,17.4064984 12.9531585,17.3638093 L13.8384832,16.8515395 C13.9303761,16.8074028 14.0381025,16.8113949 14.1264804,16.8622118 L14.1264804,16.8622118 Z" id="路径" fill="#3A2C6D"></path>
                    <path d="M12.8251598,16.1044795 L13.7424842,16.6380938 C13.8171501,16.6380938 13.8064836,16.755489 13.7424842,16.8088504 L12.8571595,17.3211201 C12.7658603,17.3636253 12.6604614,17.3636253 12.5691623,17.3211201 L11.6411713,16.7875058 C11.5665053,16.7875058 11.5771719,16.6701107 11.6411713,16.6167493 L12.526496,16.1044795 C12.6214299,16.0615608 12.7302259,16.0615608 12.8251598,16.1044795 L12.8251598,16.1044795 Z" id="路径" fill="#3A2C6D"></path>
                    <path d="M11.5131725,15.3467472 L12.4304969,15.8803615 C12.5051629,15.8803615 12.5051629,15.9977567 12.4304969,16.0511181 L11.5558388,16.5633878 C11.4619551,16.6109345 11.3510587,16.6109345 11.257175,16.5633878 L10.3398506,16.0297735 C10.2651847,16.0297735 10.2758512,15.9123784 10.3398506,15.859017 L11.2145088,15.3467472 C11.3094427,15.3038285 11.4182386,15.3038285 11.5131725,15.3467472 L11.5131725,15.3467472 Z" id="路径" fill="#3A2C6D"></path>
                    <path d="M10.2011853,14.5996872 L11.1291763,15.1226292 C11.2038422,15.1226292 11.1931756,15.2506967 11.1291763,15.2933858 L10.2438516,15.8056555 C10.1537071,15.8530956 10.0459988,15.8530956 9.95585435,15.8056555 L9.02786338,15.2720412 C8.95319744,15.2720412 8.963864,15.1546461 9.02786338,15.1012846 L9.9131881,14.5996872 C10.0016628,14.5459058 10.1127106,14.5459058 10.2011853,14.5996872 Z" id="路径" fill="#3A2C6D"></path>
                    <path d="M25.8916993,23.660458 L27.4383509,24.55693 C27.5130169,24.55693 27.5130169,24.6743252 27.4383509,24.7276866 L26.5636928,25.229284 C26.4698091,25.2768307 26.3589127,25.2768307 26.265029,25.229284 L24.7183774,24.332812 C24.6437114,24.332812 24.654378,24.2154169 24.7183774,24.1620554 L25.5930355,23.660458 C25.6869192,23.6129113 25.7978156,23.6129113 25.8916993,23.660458 L25.8916993,23.660458 Z" id="路径" fill="#3A2C6D"></path>
                    <path d="M7.71587615,14.5356535 L8.63320055,15.0692678 C8.72084179,15.1114303 8.82288995,15.1114303 8.91053119,15.0692678 L9.83852216,14.5249812 C9.87196748,14.5125602 9.89416021,14.4806332 9.89416021,14.4449391 C9.89416021,14.4092449 9.87196748,14.377318 9.83852216,14.3648969 L9.76385622,14.3648969 C9.69985684,14.3648969 9.69985684,14.2688463 9.76385622,14.2261572 L10.74518,13.660526 C10.8305125,13.660526 10.8305125,13.5431309 10.74518,13.5004418 L10.158519,13.1589286 C10.0708778,13.1167661 9.96882965,13.1167661 9.88118841,13.1589286 L8.963864,13.6925429 L8.77186587,13.7992658 L8.63320055,13.884644 L8.49453524,13.95935 L7.70520958,14.4182583 C7.67686346,14.4539617 7.68155985,14.5056497 7.71587615,14.5356535 L7.71587615,14.5356535 Z" id="路径" fill="#3A2C6D"></path>
                    <path d="M30.2649901,21.8248248 L31.1929811,22.3584391 C31.267647,22.3584391 31.2569804,22.4758343 31.1929811,22.5291957 L30.3076563,23.0307931 C30.2191817,23.0845745 30.1081338,23.0845745 30.0196591,23.0307931 L29.0916682,22.5078511 C29.0170022,22.4544897 29.0276688,22.3797837 29.0916682,22.3370945 L29.9769929,21.8248248 C30.0671373,21.7773847 30.1748456,21.7773847 30.2649901,21.8248248 Z" id="路径" fill="#3A2C6D"></path>
                    <path d="M29.0063357,21.0670925 L29.9343266,21.6007068 C30.0089926,21.6007068 29.998326,21.7287742 29.9343266,21.7714634 L29.0490019,22.2837331 C28.9588575,22.3311732 28.8511492,22.3311732 28.7610047,22.2837331 L27.8330137,21.7501188 C27.7583478,21.7501188 27.7690144,21.6327237 27.8330137,21.5793622 L28.7183385,21.0777648 C28.8067164,21.0269478 28.9144428,21.0229558 29.0063357,21.0670925 L29.0063357,21.0670925 Z" id="路径" fill="#3A2C6D"></path>
                    <path d="M27.705015,20.3200325 L28.633006,20.8536468 C28.7076719,20.8536468 28.6970053,20.9710419 28.633006,21.0244034 L27.7476812,21.5260008 C27.6575368,21.5734409 27.5498285,21.5734409 27.459684,21.5260008 L26.5316931,20.9923865 C26.4570271,20.9923865 26.4676937,20.8643191 26.5316931,20.8216299 L27.4170178,20.3093602 C27.5089106,20.2652235 27.6166371,20.2692155 27.705015,20.3200325 Z" id="路径" fill="#3A2C6D"></path>
                    <path d="M16.6224562,13.9166609 L17.5397806,14.4502752 C17.6144465,14.4502752 17.6037799,14.5676703 17.5397806,14.6210318 L16.6651224,15.1226292 C16.5712387,15.1701759 16.4603423,15.1701759 16.3664586,15.1226292 L15.4491342,14.5890149 C15.3638017,14.5890149 15.3744683,14.4716198 15.4491342,14.4182583 L16.3237924,13.9166609 C16.4176761,13.8691142 16.5285725,13.8691142 16.6224562,13.9166609 L16.6224562,13.9166609 Z" id="路径" fill="#3A2C6D"></path>
                    <path d="M15.331802,13.1589286 L16.259793,13.6925429 C16.334459,13.6925429 16.3237924,13.809938 16.259793,13.8632995 L15.3744683,14.3755692 C15.2831692,14.4180744 15.1777702,14.4180744 15.0864711,14.3755692 L14.1584801,13.8419549 C14.0838142,13.8419549 14.0944808,13.7245598 14.1584801,13.6711983 L15.0438048,13.1589286 C15.135104,13.1164234 15.2405029,13.1164234 15.331802,13.1589286 Z" id="路径" fill="#3A2C6D"></path>
                    <path d="M14.0091482,12.4118686 L14.9371392,12.9454829 C15.0118052,12.9454829 15.0011386,13.062878 14.9371392,13.1162395 L14.0518145,13.6178369 C13.96167,13.665277 13.8539618,13.665277 13.7638173,13.6178369 L12.8358263,13.0842226 C12.7611604,13.0842226 12.771827,12.9668275 12.8358263,12.9241383 L13.7211511,12.4118686 C13.8112955,12.3644285 13.9190038,12.3644285 14.0091482,12.4118686 L14.0091482,12.4118686 Z" id="路径" fill="#3A2C6D"></path>
                    <path d="M12.7078276,11.6541363 L13.6358185,12.1877506 C13.7104845,12.1877506 13.6998179,12.3051457 13.6358185,12.3585072 L12.7504938,12.8707769 C12.6591947,12.9132821 12.5537958,12.9132821 12.4624966,12.8707769 L11.5345057,12.3371626 C11.4598397,12.3371626 11.4705063,12.2197674 11.5345057,12.166406 L12.4198304,11.6541363 C12.5111295,11.6116311 12.6165284,11.6116311 12.7078276,11.6541363 Z" id="路径" fill="#3A2C6D"></path>
                    <path d="M26.0730309,19.370199 L27.3316853,20.0959145 C27.4063512,20.0959145 27.3956847,20.2239819 27.3316853,20.2666711 L26.4463606,20.7789408 C26.3562161,20.8263809 26.2485078,20.8263809 26.1583634,20.7789408 L24.9317086,20.0638976 C24.8570427,20.0638976 24.8570427,19.9465025 24.9317086,19.893141 L25.8063668,19.3808713 C25.8906679,19.3435306 25.9860182,19.3397145 26.0730309,19.370199 Z" id="路径" fill="#3A2C6D"></path>
                    <path d="M17.9237768,14.6637209 L19.1824312,15.3894364 C19.2570972,15.3894364 19.2464306,15.5068315 19.1824312,15.5601929 L18.2971065,16.0724627 C18.2058074,16.1149679 18.1004085,16.1149679 18.0091093,16.0724627 L16.7504549,15.3467472 C16.675789,15.3467472 16.675789,15.2293521 16.7504549,15.1759906 L17.6251131,14.6637209 C17.720047,14.6208022 17.8288429,14.6208022 17.9237768,14.6637209 L17.9237768,14.6637209 Z" id="路径" fill="#3A2C6D"></path>
                    <path d="M19.5984272,15.6135544 L25.7317009,19.1567533 C25.8063668,19.1567533 25.7957002,19.2741485 25.7317009,19.3275099 L24.8570427,19.8291073 C24.763159,19.876654 24.6522626,19.876654 24.5583789,19.8291073 L18.4251053,16.2859084 C18.3504393,16.2859084 18.3611059,16.1685132 18.4251053,16.1258241 L19.31043,15.6135544 C19.4005745,15.5661143 19.5082827,15.5661143 19.5984272,15.6135544 L19.5984272,15.6135544 Z" id="路径" fill="#3A2C6D"></path>
                    <path d="M25.4970365,21.9208754 L26.4143609,22.4544897 C26.4890268,22.4544897 26.4783603,22.5718848 26.4143609,22.6252463 L25.5397027,23.137516 C25.4447688,23.1804347 25.3359729,23.1804347 25.241039,23.137516 L24.3237146,22.6039017 C24.2490486,22.6039017 24.2490486,22.4865065 24.3237146,22.4331451 L25.1983727,21.9208754 C25.2933066,21.8779567 25.4021026,21.8779567 25.4970365,21.9208754 L25.4970365,21.9208754 Z" id="路径" fill="#3A2C6D"></path>
                    <path d="M24.1850492,21.2058322 L25.1130402,21.7394465 C25.1877062,21.7394465 25.1770396,21.867514 25.1130402,21.9102031 L24.2277155,22.4224728 C24.137571,22.4699129 24.0298627,22.4699129 23.9397183,22.4224728 L23.0117273,21.8888585 C22.9370614,21.8888585 22.9477279,21.7714634 23.0117273,21.7181019 L23.897052,21.2165045 C23.98543,21.1656875 24.0931564,21.1616955 24.1850492,21.2058322 L24.1850492,21.2058322 Z" id="路径" fill="#3A2C6D"></path>
                    <path d="M22.8837286,20.4587722 L23.8117195,20.9923865 C23.8863855,20.9923865 23.8757189,21.1097816 23.8117195,21.1631431 L22.9263948,21.6647405 C22.8325112,21.7122872 22.7216147,21.7122872 22.6277311,21.6647405 L21.7104067,21.1311262 C21.6357407,21.0777648 21.6464073,21.0030588 21.7104067,20.9603696 L22.5957314,20.4480999 C22.6876242,20.4039632 22.7953506,20.4079552 22.8837286,20.4587722 Z" id="路径" fill="#3A2C6D"></path>
                    <path d="M21.5824079,19.7010399 L22.4997323,20.2346542 C22.5743982,20.2346542 22.5637317,20.3520493 22.4997323,20.4054108 L21.6250741,20.9176805 C21.5301402,20.9605992 21.4213443,20.9605992 21.3264104,20.9176805 L20.409086,20.3840662 C20.33442,20.3840662 20.3450866,20.2666711 20.409086,20.2133096 L21.2837441,19.7010399 C21.378678,19.6581212 21.487474,19.6581212 21.5824079,19.7010399 L21.5824079,19.7010399 Z" id="路径" fill="#3A2C6D"></path>
                    <path d="M20.2704207,18.9539799 L21.1984116,19.4875942 C21.2730776,19.4875942 21.262411,19.6049893 21.1984116,19.6583508 L20.3130869,20.1599482 C20.2229425,20.2073883 20.1152342,20.2073883 20.0250897,20.1599482 L19.0970987,19.6263339 C19.0224328,19.6263339 19.0330994,19.5089388 19.0970987,19.4555773 L19.9824235,18.9539799 C20.0725679,18.9065398 20.1802762,18.9065398 20.2704207,18.9539799 L20.2704207,18.9539799 Z" id="路径" fill="#3A2C6D"></path>
                    <path d="M18.9691,18.1962476 L19.897091,18.7298619 C19.9717569,18.7298619 19.9610903,18.847257 19.897091,18.9006185 L19.0117662,19.4128882 C18.9204671,19.4553934 18.8150682,19.4553934 18.723769,19.4128882 L17.7957781,18.8792739 C17.7211121,18.8792739 17.7317787,18.7618787 17.7957781,18.7085173 L18.6811028,18.1962476 C18.7724019,18.1537424 18.8778008,18.1537424 18.9691,18.1962476 Z" id="路径" fill="#3A2C6D"></path>
                    <path d="M17.6677793,17.4385153 L18.5851037,17.9721296 C18.6597697,17.9721296 18.6597697,18.100197 18.5851037,18.1428861 L17.7104456,18.6551559 C17.6165619,18.7027026 17.5056655,18.7027026 17.4117818,18.6551559 L16.4944574,18.1215416 C16.4197915,18.1215416 16.430458,18.0041464 16.4944574,17.950785 L17.3691156,17.4491876 C17.4612927,17.3982524 17.5722054,17.3942891 17.6677793,17.4385153 L17.6677793,17.4385153 Z" id="路径" fill="#3A2C6D"></path>
                    <path d="M16.3984583,16.6914553 L17.3157827,17.2250696 C17.3904487,17.2250696 17.3797821,17.3424647 17.3157827,17.3958261 L16.4411246,17.8974236 C16.3487177,17.9508033 16.2348677,17.9508033 16.1424608,17.8974236 L15.2251364,17.3744816 C15.1504705,17.3744816 15.1504705,17.2464141 15.2251364,17.203725 L16.0997946,16.6914553 C16.1936782,16.6439086 16.3045747,16.6439086 16.3984583,16.6914553 Z" id="路径" fill="#3A2C6D"></path>
                    <path d="M15.0544714,15.933723 L15.9824624,16.4673373 C16.0571283,16.4673373 16.0464618,16.5847324 15.9824624,16.6380938 L15.0971377,17.1503636 C15.0058385,17.1928687 14.9004396,17.1928687 14.8091405,17.1503636 L13.8811495,16.6167493 C13.8064836,16.6167493 13.8171501,16.4993541 13.8811495,16.4459927 L14.7664742,15.933723 C14.8577734,15.8912178 14.9631723,15.8912178 15.0544714,15.933723 L15.0544714,15.933723 Z" id="路径" fill="#3A2C6D"></path>
                    <path d="M13.7531507,15.1866629 L14.6704751,15.7202772 C14.7558077,15.7202772 14.7451411,15.8376724 14.6704751,15.8803615 L13.7851504,16.3926313 C13.6912668,16.4401779 13.5803703,16.4401779 13.4864867,16.3926313 L12.5691623,15.859017 C12.4944963,15.859017 12.5051629,15.7416218 12.5691623,15.6882604 L13.4438204,15.1866629 C13.5405741,15.1354334 13.6563971,15.1354334 13.7531507,15.1866629 L13.7531507,15.1866629 Z" id="路径" fill="#3A2C6D"></path>
                    <path d="M12.4518301,14.4502752 L13.3691545,14.9838895 C13.4438204,14.9838895 13.4331539,15.1012846 13.3691545,15.1546461 L12.4944963,15.6669158 C12.3995624,15.7098345 12.2907665,15.7098345 12.1958326,15.6669158 L11.2785082,15.1333015 C11.2038422,15.1333015 11.2145088,15.0159064 11.2785082,14.9625449 L12.1318332,14.4502752 C12.2313962,14.3951965 12.352267,14.3951965 12.4518301,14.4502752 Z" id="路径" fill="#3A2C6D"></path>
                    <path d="M11.1398428,13.6711983 L12.0678338,14.2048126 C12.1424997,14.2048126 12.1318332,14.3328801 12.0678338,14.3755692 L11.1825091,14.8878389 C11.0923646,14.935279 10.9846563,14.935279 10.8945119,14.8878389 L9.96652092,14.3542246 C9.89185498,14.3542246 9.90252154,14.2368295 9.96652092,14.1834681 L10.8518456,13.6818706 C10.9402236,13.6310536 11.04795,13.6270616 11.1398428,13.6711983 Z" id="路径" fill="#3A2C6D"></path>
                    <path d="M26.7983571,22.7212968 L28.7076719,23.7885254 C28.7823378,23.7885254 28.7716713,23.9059206 28.7076719,23.959282 L27.8223472,24.4715517 C27.731048,24.5140569 27.6256491,24.5140569 27.53435,24.4715517 L25.6250352,23.4043231 C25.5503693,23.4043231 25.5610359,23.286928 25.6250352,23.2335666 L26.4996934,22.7319691 C26.5918705,22.6810339 26.7027832,22.6770707 26.7983571,22.7212968 Z" id="路径" fill="#3A2C6D"></path>
                    <path d="M27.4063512,21.6113791 L28.3236756,22.1449934 C28.4090081,22.1449934 28.3983416,22.2623885 28.3236756,22.3050777 L27.4490175,22.8173474 C27.3551338,22.8648941 27.2442374,22.8648941 27.1503537,22.8173474 L26.2330293,22.2837331 C26.1583634,22.2837331 26.1690299,22.166338 26.2330293,22.1129765 L27.1076875,21.6113791 C27.2015711,21.5638324 27.3124676,21.5638324 27.4063512,21.6113791 L27.4063512,21.6113791 Z" id="路径" fill="#3A2C6D"></path>
                    <path d="M26.1050306,20.8536468 L27.022355,21.3872611 C27.0970209,21.3872611 27.0863543,21.5046562 27.022355,21.5580177 L26.1476968,22.0702874 C26.0527629,22.1132061 25.943967,22.1132061 25.849033,22.0702874 L24.9317086,21.5366731 C24.8570427,21.5366731 24.8677093,21.4192779 24.9317086,21.3659165 L25.8063668,20.8536468 C25.9002505,20.8061001 26.0111469,20.8061001 26.1050306,20.8536468 L26.1050306,20.8536468 Z" id="路径" fill="#3A2C6D"></path>
                    <path d="M24.7930433,20.0959145 L25.7210343,20.6295288 C25.7957002,20.6295288 25.7850337,20.7575962 25.7210343,20.8002854 L24.8357096,21.3125551 C24.7455651,21.3599952 24.6378568,21.3599952 24.5477124,21.3125551 L23.6197214,20.7789408 C23.5450555,20.7789408 23.555722,20.6615456 23.6197214,20.6081842 L24.5050461,20.1065868 C24.593424,20.0557698 24.7011505,20.0517778 24.7930433,20.0959145 L24.7930433,20.0959145 Z" id="路径" fill="#3A2C6D"></path>
                    <path d="M23.4917227,19.3488545 L24.4197136,19.8824688 C24.4943796,19.8824688 24.483713,19.9998639 24.4197136,20.0532253 L23.5343889,20.5548228 C23.4459142,20.6086042 23.3348664,20.6086042 23.2463917,20.5548228 L22.3184007,20.0318808 C22.2437348,19.9785193 22.2544014,19.9038133 22.3184007,19.8611242 L23.2037255,19.3488545 C23.2938699,19.3014144 23.4015782,19.3014144 23.4917227,19.3488545 L23.4917227,19.3488545 Z" id="路径" fill="#3A2C6D"></path>
                    <path d="M22.190402,18.5911222 L23.1077264,19.1247365 C23.1823923,19.1247365 23.1823923,19.2421316 23.1077264,19.295493 L22.2330682,19.8077628 C22.1381343,19.8506815 22.0293384,19.8506815 21.9344045,19.8077628 L21.0170801,19.2741485 C20.9424141,19.2741485 20.9530807,19.1567533 21.0170801,19.1033919 L21.8917382,18.5911222 C21.9866721,18.5482034 22.0954681,18.5482034 22.190402,18.5911222 L22.190402,18.5911222 Z" id="路径" fill="#3A2C6D"></path>
                    <path d="M20.8890813,17.8440621 L21.8064057,18.3776764 C21.8810717,18.3776764 21.8704051,18.4950716 21.8064057,18.5377607 L20.9317476,19.0500305 C20.8378639,19.0975772 20.7269675,19.0975772 20.6330838,19.0500305 L19.7157594,18.5164162 C19.6410935,18.5164162 19.6410935,18.399021 19.7157594,18.3456596 L20.5904175,17.8440621 C20.6843012,17.7965154 20.7951976,17.7965154 20.8890813,17.8440621 Z" id="路径" fill="#3A2C6D"></path>
                    <path d="M19.5984272,17.0863298 L20.5264182,17.6199441 C20.6010841,17.6199441 20.5904175,17.7373393 20.5264182,17.7907007 L19.6410935,18.3029704 C19.5497943,18.3454756 19.4443954,18.3454756 19.3530963,18.3029704 L18.4251053,17.7693561 C18.3504393,17.7693561 18.3611059,17.651961 18.4251053,17.5985996 L19.31043,17.0863298 C19.4017291,17.0438247 19.5071281,17.0438247 19.5984272,17.0863298 Z" id="路径" fill="#3A2C6D"></path>
                    <path d="M18.2757734,16.3285975 L19.2037644,16.8622118 C19.2784303,16.8622118 19.2677638,16.9902793 19.2037644,17.0329684 L18.3184397,17.5452381 C18.2282952,17.5926782 18.1205869,17.5926782 18.0304425,17.5452381 L17.1024515,17.0116238 C17.0277855,17.0116238 17.0384521,16.8942287 17.1024515,16.8408673 L17.9877762,16.3392698 C18.0761541,16.2884528 18.1838806,16.2844608 18.2757734,16.3285975 Z" id="路径" fill="#3A2C6D"></path>
                    <path d="M16.9744527,15.5815375 L17.8917771,16.1151518 C17.9664431,16.1151518 17.9557765,16.232547 17.8917771,16.2859084 L17.017119,16.7875058 C16.9232353,16.8350525 16.8123389,16.8350525 16.7184552,16.7875058 L15.8011308,16.2538915 C15.7264649,16.2538915 15.7371314,16.1258241 15.8011308,16.083135 L16.675789,15.5708652 C16.7713629,15.5266391 16.8822756,15.5306023 16.9744527,15.5815375 L16.9744527,15.5815375 Z" id="路径" fill="#3A2C6D"></path>
                    <path d="M15.6731321,14.8238052 L16.5904565,15.3574195 C16.6651224,15.3574195 16.6544558,15.4748147 16.5904565,15.5281761 L15.7157983,16.0404458 C15.6208644,16.0833645 15.5120685,16.0833645 15.4171345,16.0404458 L14.4998101,15.5068315 C14.4144776,15.5068315 14.4251442,15.3894364 14.4998101,15.3360749 L15.3744683,14.8238052 C15.4694022,14.7808865 15.5781982,14.7808865 15.6731321,14.8238052 L15.6731321,14.8238052 Z" id="路径" fill="#3A2C6D"></path>
                    <path d="M14.3611448,14.0767452 L15.2891358,14.6103595 C15.3638017,14.6103595 15.3531352,14.7277546 15.2891358,14.7811161 L14.4038111,15.2827135 C14.3136666,15.3301536 14.2059583,15.3301536 14.1158139,15.2827135 L13.1878229,14.7490992 C13.113157,14.7490992 13.1238235,14.6317041 13.1878229,14.5890149 L14.0731476,14.0767452 C14.1632921,14.0293051 14.2710004,14.0293051 14.3611448,14.0767452 L14.3611448,14.0767452 Z" id="路径" fill="#3A2C6D"></path>
                    <path d="M11.4491732,12.390524 L13.9878151,13.8526272 C14.0624811,13.8526272 14.0518145,13.9700223 13.9878151,14.0233838 L13.1024904,14.5356535 C13.0075565,14.5785722 12.8987605,14.5785722 12.8038266,14.5356535 L10.2758512,13.062878 C10.2011853,13.062878 10.2011853,12.9454829 10.2758512,12.9027937 L11.1505094,12.390524 C11.2443931,12.3429773 11.3552895,12.3429773 11.4491732,12.390524 L11.4491732,12.390524 Z" id="路径" fill="#3A2C6D"></path>
                    <path d="M28.7076719,22.3584391 L29.9663263,23.0841546 C30.0409923,23.0841546 30.0303257,23.212222 29.9663263,23.2549111 L29.0916682,23.7671809 C28.9977845,23.8147275 28.8868881,23.8147275 28.7930044,23.7671809 L27.53435,23.0414654 C27.459684,23.0414654 27.4703506,22.9240703 27.53435,22.8707088 L28.4196747,22.3584391 C28.5109738,22.3159339 28.6163728,22.3159339 28.7076719,22.3584391 L28.7076719,22.3584391 Z" id="路径" fill="#3A2C6D"></path>
                    <path d="M6.33988953,15.3360749 L24.8570427,26.0083609 C24.9317086,26.0083609 24.9317086,26.1257561 24.8570427,26.1791175 L24.4197136,26.4245801 C24.3295692,26.4720201 24.2218609,26.4720201 24.1317164,26.4245801 L5.6038967,15.7522941 C5.52923076,15.7522941 5.53989732,15.6348989 5.6038967,15.5815375 L6.04122577,15.3254027 C6.13768627,15.285846 6.24649516,15.2897341 6.33988953,15.3360749 L6.33988953,15.3360749 Z" id="路径" fill="#3A2C6D"></path>
                    <polygon id="_Контур_4" fill="#BFBFBF" points="28.0143453 15.8163278 27.8863466 15.8803615 24.6863777 17.7373393 19.0010997 14.4502752 18.8837675 14.3755692 22.2010685 12.46523"></polygon>
                    <polygon id="_Контур_5" fill="#E5E5E5" points="27.8863466 15.8803615 24.6863777 17.7373393 19.0010997 14.4502752 22.2010685 12.6039697"></polygon>
                    <path d="M37.1342956,20.1279313 L37.1342956,20.4160831 C37.137664,20.8328797 36.9179353,21.2196469 36.5582622,21.4299502 L25.2730387,27.9400447 C24.9145316,28.1523502 24.4688904,28.1523502 24.1103833,27.9400447 L3.69458194,16.2005301 C3.31545097,15.9820496 3.08930743,15.5706589 3.10792098,15.1333015 L3.10792098,14.8451498 L24.6863777,27.3103798 L37.1342956,20.1279313 Z" id="_Контур_6" fill="#E5E5E5"></path>
                    <path d="M24.3663808,27.4918087 C23.9757769,27.6457579 23.5364948,27.6143638 23.1717258,27.4064304 L2.90525629,15.6669158 C2.54678548,15.4606646 2.30002872,15.1040469 2.23326282,14.6957378 L0.00395118182,1.41941403 C-0.00131706061,1.34480101 -0.00131706061,1.26990905 0.00395118182,1.19529603 C0.00269871347,0.824888206 0.153015033,0.470105607 0.419947134,0.213445719 L21.5397416,12.4118686 C21.7970879,12.5699748 21.9753905,12.8298156 22.0304035,13.1269117 L24.3663808,27.4918087 Z" id="_Контур_7" fill="#F4F4F4"></path>
                    <path d="M24.6863777,27.3210521 L24.5477124,27.4064304 L24.3663808,27.4918087 L21.9557376,13.1269117 C21.9007245,12.8298156 21.722422,12.5699748 21.4650757,12.4118686 L0.398614009,0.213445719 C0.476514138,0.125153206 0.570670101,0.0526866814 0.675944644,0 L21.8384054,12.2197674 C22.0998082,12.3756513 22.2822194,12.6358238 22.3397339,12.9348106 L24.6863777,27.3210521 Z" id="_Контур_8" fill="#E5E5E5"></path>
                </g>
                <path d="M41.2795984,15.8238762 C41.2795984,15.8238762 41.0129343,20.8718674 41.1302665,21.3201034 C41.2475987,21.7683395 43.4449106,23.2517872 44.0849044,23.7854015 C44.7248982,24.3190158 40.5969383,28.395829 38.5916245,29.3136456 C36.5863107,30.2314622 30.2077061,27.8088533 30.0583742,24.6712012 C29.9090423,21.5335492 31.1250305,18.9188391 32.1276874,18.7800994 C33.1303443,18.6413597 41.2795984,15.8238762 41.2795984,15.8238762 Z" id="_Контур_9" fill="#FFCEA9"></path>
                <path d="M41.8342596,22.1952309 C41.8342596,22.1952309 38.1756286,27.6594413 33.0663449,28.171711 C31.4556939,26.5815404 31.3063621,20.9252289 33.5356737,19.1216125 C33.5356737,19.1216125 31.4876936,17.4567359 30.0797073,17.7875768 C28.5546974,18.6892167 27.4154076,20.1216924 26.8797385,21.8110286 C25.5713779,25.5822173 24.960525,29.5603167 25.0770893,33.5505432 C25.1624218,38.8866862 25.0770893,52.4511616 25.0770893,52.4511616 C25.6834935,55.6881193 27.6436396,58.5114675 30.4637036,60.2099135 C34.15665,62.3058943 38.5110127,62.9091883 42.6342518,61.8961347 C45.2262266,61.2878144 46.1862173,59.8470558 47.0822086,57.9580612 C46.8475442,54.2120888 45.3648919,46.4746815 46.0155523,41.7468588 C46.6662126,37.0190361 47.6368698,33.4971817 47.8928673,29.6871756 C48.1488649,25.8771696 47.3915389,25.9412033 45.4715576,24.5751507 C44.3182593,23.694857 43.1026342,22.8994615 41.8342596,22.1952309 Z" id="_Контур_10" fill="#F4F4F4"></path>
                <path d="M35.96765,65.7274854 C36.8860594,65.115709 37.8446708,64.5666184 38.8369555,64.0839533 C39.7620746,63.7887081 40.6032295,63.276426 41.2902649,62.5898333 C42.1862562,61.7147058 43.6582419,58.3849526 44.7142316,55.1192331 C45.7651811,51.456948 46.1800893,47.6413539 45.9408863,43.8386268 C45.5035573,39.2815607 43.8609066,32.910206 43.4449106,30.2954959 C43.0289147,27.6807859 43.8715731,26.6242296 45.0982279,25.6637238 C46.5275473,24.5324615 48.5008614,25.034059 49.5568512,28.7053253 C50.9167138,33.7846109 51.7038327,39.0002817 51.903495,44.254846 C51.9469897,48.1582441 51.3450998,52.0419761 50.122179,55.748898 C49.0347826,58.9243906 47.5662866,61.9561326 45.7488882,64.7776519 C45.2475598,65.6207625 45.0768947,66.3784948 44.3089022,68.1074051 C43.5714419,69.8446731 42.4218211,71.3758812 40.9596015,72.5684207 C39.6796139,73.4862373 39.0716198,73.6356493 38.7622895,73.4435481 C38.4529592,73.251447 38.4636258,72.8138833 39.0076205,72.3763195 C39.9157081,71.6620319 40.6887653,70.7909723 41.2902649,69.8042986 C41.2902649,69.8042986 40.1702758,70.9355609 39.434283,71.5545535 C38.7866002,72.1021759 38.0692541,72.5615237 37.3009704,72.9206061 C36.554311,73.251447 35.5089878,72.6111098 36.042316,72.1095124 C36.5756441,71.6079149 37.1089723,71.3517801 38.1756286,70.4232912 C38.7495968,69.9361981 39.2618423,69.3806691 39.7009471,68.7690869 C38.9504244,69.3473356 38.1550239,69.8648018 37.3223035,70.3165683 C36.6791405,70.7058629 35.9406665,70.9090522 35.188991,70.9035441 C34.7943281,70.9035441 34.3143328,70.3272406 35.0609922,69.8363155 C36.0873711,69.2800933 37.0434994,68.6029202 37.9089645,67.8192534 C38.7302898,67.0081597 39.188952,66.3144611 38.9756208,66.3037888 C38.7622895,66.2931165 38.2929608,66.794714 37.3329701,67.1042103 C36.3729794,67.4137066 35.3383228,67.1042103 35.1996575,66.6026128 C35.0609922,66.1010154 35.0716588,66.1650491 35.96765,65.7274854 Z" id="_Контур_11" fill="#FFCEA9"></path>
                <path d="M29.8450429,8.28924228 L29.8450429,8.28924228 C30.453037,4.37251332 33.2796762,1.40561782 37.311637,1.62973583 C40.646585,1.79944951 43.4996695,4.08337696 44.3968936,7.30156651 C45.2941177,10.519756 44.034553,13.9515117 41.2689318,15.8238762 C41.1259514,16.4189478 40.9147773,16.9955117 40.6396046,17.5421142 C39.2209517,19.2069908 34.9009938,20.2742194 33.6423393,20.0607737 C32.1354833,19.9238493 30.865965,18.8780517 30.4423705,17.4247191 C29.0983835,14.3511007 29.5143795,10.2315983 29.8450429,8.28924228 Z" id="_Контур_12" fill="#FFCEA9"></path>
                <path d="M41.2795984,15.8238762 L41.2795984,15.8238762 L40.9062687,12.3980724 C40.9062687,12.3980724 43.7009081,5.16226249 37.0983057,6.54965966 C32.7463481,7.46747626 31.6476921,7.87302312 30.3250383,4.94881677 C29.0023845,2.02461041 33.6423393,-0.611444224 39.2209517,0.124943508 C43.1851186,0.535057239 46.1724095,3.91844775 46.0902182,7.90503998 C45.9515529,10.0608417 45.3755585,14.4151344 41.2795984,15.8238762 Z" id="路径" fill="#3A2C6D"></path>
                <path d="M52.5754885,35.4608824 C52.5754885,35.4608824 48.9701902,39.0467704 44.7142316,38.0115587 C44.1062375,37.5953396 42.6342518,29.2175951 42.6342518,29.2175951 C42.6342518,29.2175951 42.6342518,24.5751507 46.1968839,24.6925458 C49.7595159,24.809941 52.5754885,35.4608824 52.5754885,35.4608824 Z" id="路径" fill="#EDEDED"></path>
                <path d="M25.3757531,28.5025519 C24.3675122,28.4662437 23.412211,28.0418624 22.7091124,27.3179282 C22.8584443,25.4396058 25.2584209,18.3105188 30.0797073,17.7875768 C28.7681924,18.707933 27.7290452,19.9651646 27.0717366,21.4268263 C26.3214514,23.7371462 25.7543668,26.1030503 25.3757531,28.5025519 L25.3757531,28.5025519 Z" id="路径" fill="#EDEDED"></path>
            </g>
            <g id="chart" transform="translate(388.454707, 112.078153)" fill-rule="nonzero">
                <path d="M101.432603,219.737021 L12.4324049,168.323221 C6.83792406,165.124519 2.30905861,156.434712 2.30905861,148.981737 L2.30905861,8.86793586 C2.30905861,1.40429832 6.83792406,-2.00765027 12.4324049,1.21237621 L101.432603,52.6368388 C107.016428,55.8355406 111.545293,64.5253472 111.545293,71.9783224 L111.545293,212.113448 C111.545293,219.577086 107.016428,222.96771 101.432603,219.737021 Z" id="路径" fill="#211B49"></path>
                <polygon id="路径" fill="#211B49" points="104.973357 221.847247 107.992895 220.354215 105.955235 216.34103"></polygon>
                <path d="M3.90763766,1.52354629 C4.81784781,0.993859258 5.77380216,0.543486733 6.76448199,0.177619893 L9.05861456,4.61811723 L3.90763766,1.52354629 Z" id="路径" fill="#211B49"></path>
                <path d="M99.1235443,220.809502 L10.1126901,169.363193 C4.52886544,166.164458 0,157.474563 0,150.021513 L0,9.93827551 C0,2.47456216 4.52886544,-0.948083531 10.1126901,2.2826381 L99.1235443,53.7076231 C104.707369,56.9063573 109.236234,65.5855897 109.236234,73.0386406 L109.236234,213.153865 C109.236234,220.606916 104.707369,224.040224 99.1235443,220.809502 Z" id="路径" fill="#2E245B"></path>
                <polygon id="路径" fill="#A298E2" points="26.1101243 31.616341 9.94671403 22.2153252 9.94671403 16.3410302 26.1101243 25.7420461"></polygon>
                <polygon id="路径" fill="#C33AFC" points="98.0461812 73.1793961 29.1296625 33.3732985 29.1296625 27.5310835 98.0461812 67.3265006"></polygon>
                <polygon id="路径" fill="#A298E2" points="26.1101243 50.2664298 9.94671403 40.865414 9.94671403 34.991119 26.1101243 44.3921349"></polygon>
                <polygon id="路径" fill="#F4CE2C" points="74.7779751 78.330373 29.3072824 52.0264815 29.3072824 46.1811723 74.7779751 72.4850638"></polygon>
                <polygon id="路径" fill="#A298E2" points="26.1101243 59.5026643 9.94671403 50.2150398 9.94671403 44.4049734 26.1101243 53.6925978"></polygon>
                <polygon id="路径" fill="#FF8657" points="85.9680284 94.1385435 29.3072824 61.4346305 29.3072824 55.5950266 85.9680284 88.2989396"></polygon>
                <polygon id="路径" fill="#A298E2" points="26.1101243 69.0941385 9.94671403 59.6931227 9.94671403 53.8188277 26.1101243 63.2198436"></polygon>
                <polygon id="路径" fill="#A298E2" points="68.7388988 93.4280639 29.3072824 70.667778 29.3072824 64.8312611 68.7388988 87.591547"></polygon>
                <polygon id="路径" fill="#A298E2" points="26.1101243 41.0301954 9.94671403 31.6291795 9.94671403 25.7548845 26.1101243 35.1559004"></polygon>
                <polygon id="路径" fill="#4D3BFF" points="63.5879218 62.5222025 29.1296625 42.6187594 29.1296625 36.7673179 63.5879218 56.6600832"></polygon>
                <polygon id="路径" fill="#A298E2" points="26.1101243 78.330373 9.94671403 68.9293571 9.94671403 63.0550622 26.1101243 72.456078"></polygon>
                <polygon id="路径" fill="#C33AFC" points="49.5559503 91.8294849 29.3072824 80.1065719 29.3072824 74.2451155 49.5559503 85.9680284"></polygon>
                <polygon id="路径" fill="#A298E2" points="26.1101243 96.9804618 9.94671403 87.6928373 9.94671403 81.8827709 26.1101243 91.1809977"></polygon>
                <polygon id="路径" fill="#F4CE2C" points="93.0728242 135.523979 29.3072824 98.7353464 29.3072824 92.8952043 93.0728242 129.683837"></polygon>
                <polygon id="路径" fill="#A298E2" points="26.1101243 106.394316 9.94671403 96.9933003 9.94671403 91.1190053 26.1101243 100.520021"></polygon>
                <polygon id="路径" fill="#FF8657" points="48.4902309 119.182948 29.3072824 108.128374 29.3072824 102.309059 48.4902309 113.363633"></polygon>
                <polygon id="路径" fill="#A298E2" points="26.1101243 115.808171 9.94671403 106.407155 9.94671403 100.53286 26.1101243 109.933876"></polygon>
                <polygon id="路径" fill="#A298E2" points="85.9680284 150.26643 29.3072824 117.553473 29.3072824 111.722913 85.9680284 144.425211"></polygon>
                <polygon id="路径" fill="#A298E2" points="26.1101243 87.7442274 9.94671403 78.3432115 9.94671403 72.4689165 26.1101243 81.8699324"></polygon>
                <polygon id="路径" fill="#4D3BFF" points="82.9484902 120.426288 29.3072824 89.4940379 29.3072824 83.6589698 82.9484902 114.59122"></polygon>
                <polygon id="路径" fill="#A298E2" points="26.1101243 125.044405 9.94671403 115.643389 9.94671403 109.769094 26.1101243 119.17011"></polygon>
                <polygon id="路径" fill="#C33AFC" points="36.4120782 130.905861 29.3072824 126.807645 29.3072824 120.959147 36.4120782 125.057364"></polygon>
                <polygon id="路径" fill="#A298E2" points="26.1101243 143.694494 9.94671403 134.406869 9.94671403 128.596803 26.1101243 137.89503"></polygon>
                <polygon id="路径" fill="#F4CE2C" points="42.4511545 153.108348 29.3072824 145.480279 29.3072824 139.609236 42.4511545 147.237306"></polygon>
                <polygon id="路径" fill="#A298E2" points="26.1101243 153.108348 9.94671403 143.707332 9.94671403 137.833037 26.1101243 147.234053"></polygon>
                <polygon id="路径" fill="#FF8657" points="63.5879218 174.777975 29.1296625 154.876959 29.1296625 149.023091 63.5879218 168.924107"></polygon>
                <polygon id="路径" fill="#A298E2" points="26.1101243 162.522202 9.94671403 153.121187 9.94671403 147.246892 26.1101243 156.647908"></polygon>
                <polygon id="路径" fill="#A298E2" points="83.8365897 195.737123 29.1296625 164.113895 29.1296625 158.259325 83.8365897 189.882552"></polygon>
                <polygon id="路径" fill="#A298E2" points="26.1101243 134.458259 9.94671403 125.057243 9.94671403 119.182948 26.1101243 128.583964"></polygon>
                <polygon id="路径" fill="#4D3BFF" points="98.0461812 176.021314 29.1296625 136.224528 29.1296625 130.373002 98.0461812 170.15911"></polygon>
            </g>
            <g id="chat" transform="translate(0.000000, 120.071048)" fill-rule="nonzero">
                <path d="M38.4976684,105.975799 L28.7665505,100.987706 L8.3760171,112.711856 C3.75587009,115.376436 0,113.223456 0,107.883638 L0,85.6930191 C0.31971994,79.8039387 3.43085175,74.4198965 8.3760171,71.1977061 L129.81226,1.14057915 C134.432407,-1.52400045 138.188277,0.639638186 138.188277,5.96879739 L138.188277,28.2340246 C137.868557,34.123105 134.757425,39.5071472 129.81226,42.7293376 L48.1647659,89.7751551" id="路径" fill="#B1B4C4"></path>
                <polygon id="路径" fill="#B1B4C4" points="135.065936 0.177619893 139.609236 2.03873929 135.76328 6.03907638 133.0373 1.62159184"></polygon>
                <polygon id="路径" fill="#B1B4C4" points="38.5435169 105.889422 43.3286907 107.815275 43.339254 103.688447 39.1033716 102.841918"></polygon>
                <path d="M8.09537728,115.586389 C8.27663496,115.967398 2.86022892,113.766011 2.66830902,113.469671 C2.47638913,113.17333 9.23623446,109.236234 9.23623446,109.236234 L8.09537728,115.586389 Z" id="路径" fill="#B1B4C4"></path>
                <path d="M52.9882987,91.711918 L134.610583,44.6321269 C139.550367,41.4061543 142.659306,36.0240173 142.984014,30.1361985 L142.984014,7.91266112 C142.984014,2.58327567 139.229304,0.451521489 134.610583,3.07357913 L13.169168,73.1336803 C8.22810071,76.3584397 5.11875204,81.7412865 4.79573712,87.6296087 L4.79573712,109.853146 C4.79573712,115.182532 8.55044755,117.314286 13.169168,114.681569 L33.5534056,102.956921 L43.3241861,107.955885 L52.9882987,91.711918 Z" id="路径" fill="#E9EAF2"></path>
                <polygon id="路径" fill="#8C50FF" points="131.971581 22.3100294 15.6305506 89.5204263 15.6305506 81.7858965 131.971581 14.5648313"></polygon>
                <polygon id="路径" fill="#8C50FF" points="91.8294849 59.0676768 15.6305506 103.019538 15.6305506 95.2840106 91.8294849 51.3321492"></polygon>
            </g>
        </g>
    </g>
</svg>