<?xml version="1.0" encoding="UTF-8"?>
<svg width="1153px" height="773px" viewBox="0 0 1153 773" version="1.1" xmlns="http://www.w3.org/2000/svg" xmlns:xlink="http://www.w3.org/1999/xlink">
    <title>community</title>
    <g id="community" stroke="none" stroke-width="1" fill="none" fill-rule="evenodd">
        <g id="编组-5" transform="translate(0.000000, 0.301800)">
            <path d="M1010.8,538 L958.9,538 C960.3,538 961.5,539.2 961.5,540.6 L1004.1,540.6 L1004.1,543.2 L1010.8,543.2 C1012.2,543.2 1013.4,542 1013.4,540.6 C1013.4,539.2 1012.3,538 1010.8,538 Z" id="路径" fill="#B2B6BB" fill-rule="nonzero"></path>
            <polygon id="路径" fill="#B2B6BB" fill-rule="nonzero" points="958.9 543.2 953.3 543.2 961.5 548.6 953.3 548.6 953.3 723.1 981.1 723.1 993.8 723.1 1004.1 723.1 1004.1 543.2"></polygon>
            <path d="M961.5,540.7 C961.5,542.1 960.3,543.3 958.9,543.3 L1004.1,543.3 L1004.1,540.7 L961.5,540.7 Z" id="路径" fill="#B2B6BB" fill-rule="nonzero"></path>
            <path d="M633.8,660.1 L633.8,709.7 L806.3,709.7 L806.3,660.1 L633.8,660.1 Z M777.3,677.3 C777,677.7 776.6,678.1 776.2,678.4 C775.6,678.8 774.8,679.1 774,679.1 C773.8,679.1 773.5,679.1 773.3,679 C773.2,679 773.1,679 773,678.9 C772.9,678.9 772.8,678.9 772.7,678.8 C771.1,678.3 769.9,676.8 769.9,675 C769.9,673.2 771.1,671.7 772.7,671.2 C772.8,671.2 772.9,671.2 773,671.1 C773.1,671.1 773.2,671 773.3,671 C773.5,671 773.8,670.9 774,670.9 C774.3,670.9 774.5,670.9 774.8,671 C775,671 775.3,671.1 775.5,671.2 C776.1,671.5 776.7,671.9 777.1,672.4 C777.4,672.7 777.6,673.1 777.8,673.6 C778,674 778,674.5 778,675 C778,675.8 777.7,676.6 777.3,677.3 Z" id="形状" fill="#DADDDF" fill-rule="nonzero"></path>
            <polygon id="路径" fill="#DADDDF" fill-rule="nonzero" points="632.7 710.8 632.7 660.1 632.7 658.9 632.7 609.9 632.7 608.8 632.7 559.2 806.4 559.2 806.4 547.3 625.2 545.7 625.2 723.1 633 723.1 645.7 723.1 679.9 723.1 692.6 723.1 806.4 723.1 806.4 710.8"></polygon>
            <path d="M806.4,560.4 L633.8,560.4 L633.8,608.8 L806.3,608.8 L806.3,560.4 L806.4,560.4 Z M777.7,577.1 C777.5,577.5 777.3,577.9 777,578.3 C776.6,578.8 776,579.2 775.4,579.5 C775.2,579.6 775,579.7 774.7,579.7 C774.4,579.8 774.2,579.8 773.9,579.8 C773.6,579.8 773.4,579.8 773.2,579.7 C773.1,579.7 773,579.7 772.9,579.6 C772.8,579.6 772.7,579.6 772.6,579.5 C771,579 769.8,577.5 769.8,575.7 C769.8,573.9 771,572.4 772.6,571.9 C772.7,571.9 772.8,571.9 772.9,571.8 C773,571.8 773.1,571.7 773.2,571.7 C773.4,571.7 773.7,571.6 773.9,571.6 C774.2,571.6 774.4,571.6 774.7,571.7 C775.4,571.9 776.1,572.2 776.6,572.7 L776.7,572.8 C777.4,573.5 777.9,574.5 777.9,575.6 C778,576.2 777.9,576.7 777.7,577.1 Z" id="形状" fill="#DADDDF" fill-rule="nonzero"></path>
            <path d="M806.4,609.9 L633.8,609.9 L633.8,658.9 L806.3,658.9 L806.3,609.9 L806.4,609.9 Z M777.7,626.3 C777.5,626.7 777.3,627.1 777,627.5 C776.6,628 776,628.4 775.4,628.7 C775.2,628.8 775,628.9 774.7,628.9 C774.4,629 774.2,629 773.9,629 C773.6,629 773.4,629 773.2,628.9 C773.1,628.9 773,628.9 772.9,628.8 C772.8,628.8 772.7,628.8 772.6,628.7 C771,628.2 769.8,626.7 769.8,624.9 C769.8,623.1 771,621.6 772.6,621.1 C772.7,621.1 772.8,621.1 772.9,621 C773,621 773.1,620.9 773.2,620.9 C773.4,620.9 773.7,620.8 773.9,620.8 C774.2,620.8 774.4,620.8 774.7,620.9 C774.9,620.9 775.2,621 775.4,621.1 C776,621.4 776.6,621.8 777,622.3 C777.3,622.6 777.5,623 777.7,623.5 C777.9,623.9 777.9,624.4 777.9,624.9 C777.9,625.4 777.9,625.9 777.7,626.3 Z" id="形状" fill="#DADDDF" fill-rule="nonzero"></path>
            <polygon id="路径" fill="#DADDDF" fill-rule="nonzero" points="806.4 547.3 806.4 559.2 945.2 559.2 945.2 608.8 945.2 609.9 945.2 658.9 945.2 660.1 945.2 710.8 806.4 710.8 806.4 723.1 935.5 723.1 948.2 723.1 953.3 723.1 953.3 548.6"></polygon>
            <polygon id="路径" fill="#DADDDF" fill-rule="nonzero" points="944 660.1 806.4 660.1 806.4 709.7 944 709.7"></polygon>
            <polygon id="路径" fill="#DADDDF" fill-rule="nonzero" points="944 609.9 806.4 609.9 806.4 658.9 944 658.9"></polygon>
            <polygon id="路径" fill="#DADDDF" fill-rule="nonzero" points="944 560.4 806.4 560.4 806.4 608.8 944 608.8"></polygon>
            <polygon id="路径" fill="#B2B6BB" fill-rule="nonzero" points="632.7 608.8 633.8 608.8 633.8 560.4 806.4 560.4 806.4 559.2 632.7 559.2"></polygon>
            <polygon id="路径" fill="#B2B6BB" fill-rule="nonzero" points="633.8 709.6 633.8 660.1 632.7 660.1 632.7 710.8 806.4 710.8 806.4 709.6"></polygon>
            <polygon id="路径" fill="#B2B6BB" fill-rule="nonzero" points="633.9 609.9 632.7 609.9 632.7 658.9 633.9 658.9"></polygon>
            <polygon id="路径" fill="#B2B6BB" fill-rule="nonzero" points="944 560.4 944 608.8 945.2 608.8 945.2 559.2 806.4 559.2 806.4 560.4"></polygon>
            <polygon id="路径" fill="#B2B6BB" fill-rule="nonzero" points="945.2 609.9 944 609.9 944 658.9 945.2 658.9"></polygon>
            <polygon id="路径" fill="#B2B6BB" fill-rule="nonzero" points="944 709.6 806.4 709.6 806.4 710.8 945.2 710.8 945.2 660.1 944 660.1"></polygon>
            <path d="M806.4,540.7 L953.3,540.7 L958.9,540.7 L958.9,538.1 L959,538.1 L619.2,538.1 C617.8,538.1 616.6,539.3 616.6,540.7 C616.6,542.1 617.8,543.3 619.2,543.3 L625.1,543.3 L625.1,540.7 L806.4,540.7 Z" id="路径" fill="#DADDDF" fill-rule="nonzero"></path>
            <path d="M958.9,540.7 L961.5,540.7 C961.5,539.3 960.3,538.1 958.9,538.1 L958.8,538.1 L958.8,540.7 L958.9,540.7 Z" id="路径" fill="#DADDDF" fill-rule="nonzero"></path>
            <polygon id="路径" fill="#DADDDF" fill-rule="nonzero" points="958.9 540.7 953.3 540.7 953.3 543.3 958.9 543.3"></polygon>
            <path d="M958.9,543.2 C960.4,543.2 961.5,542 961.5,540.6 L958.9,540.6 L958.9,543.2 Z" id="路径" fill="#DADDDF" fill-rule="nonzero"></path>
            <polygon id="路径" fill="#DADDDF" fill-rule="nonzero" points="806.4 540.7 625.2 540.7 625.2 543.3 806.4 543.3"></polygon>
            <polygon id="路径" fill="#DADDDF" fill-rule="nonzero" points="953.3 540.7 806.4 540.7 806.4 543.3 953.3 543.3"></polygon>
            <polygon id="路径" fill="#B2B6BB" fill-rule="nonzero" points="806.3 658.9 633.8 658.9 633.8 660.1 806.3 660.1"></polygon>
            <polygon id="路径" fill="#B2B6BB" fill-rule="nonzero" points="944 658.9 806.4 658.9 806.4 660.1 944 660.1"></polygon>
            <polygon id="路径" fill="#B2B6BB" fill-rule="nonzero" points="633.9 658.9 632.7 658.9 632.7 660.1 633.9 660.1"></polygon>
            <polygon id="路径" fill="#B2B6BB" fill-rule="nonzero" points="945.2 658.9 944 658.9 944 660.1 945.2 660.1"></polygon>
            <polygon id="路径" fill="#B2B6BB" fill-rule="nonzero" points="806.3 608.8 633.8 608.8 633.8 610 806.3 610"></polygon>
            <polygon id="路径" fill="#B2B6BB" fill-rule="nonzero" points="944 608.8 806.4 608.8 806.4 610 944 610"></polygon>
            <polygon id="路径" fill="#B2B6BB" fill-rule="nonzero" points="633.9 608.8 632.7 608.8 632.7 610 633.9 610"></polygon>
            <polygon id="路径" fill="#B2B6BB" fill-rule="nonzero" points="945.2 608.8 944 608.8 944 610 945.2 610"></polygon>
            <path d="M778,575.8 C778,574.7 777.6,573.7 776.8,573 C777.5,573.6 778,574.7 778,575.8 Z" id="路径" fill="#B2B6BB" fill-rule="nonzero"></path>
            <path d="M775.4,575.8 C775.4,574 774.3,572.5 772.7,572 C771.1,572.5 769.9,574 769.9,575.8 C769.9,577.6 771.1,579.1 772.7,579.6 C774.3,579 775.4,577.5 775.4,575.8 Z" id="路径" fill="#B2B6BB" fill-rule="nonzero"></path>
            <path d="M772.7,572 C772.8,572 772.9,572 773,571.9 C772.8,571.9 772.7,571.9 772.7,572 Z" id="路径" fill="#DADDDF" fill-rule="nonzero"></path>
            <path d="M772.7,572 C772.8,572 772.9,572 773,571.9 C772.8,571.9 772.7,571.9 772.7,572 Z" id="路径" fill="#000000" fill-rule="nonzero" opacity="0.15"></path>
            <path d="M772.7,579.6 C772.8,579.6 772.9,579.6 773,579.7 C772.8,579.6 772.8,579.6 772.7,579.6 Z" id="路径" fill="#DADDDF" fill-rule="nonzero"></path>
            <path d="M772.7,579.6 C772.8,579.6 772.9,579.6 773,579.7 C772.8,579.6 772.8,579.6 772.7,579.6 Z" id="路径" fill="#000000" fill-rule="nonzero" opacity="0.15"></path>
            <path d="M776.7,572.8 C776.2,572.3 775.5,571.9 774.8,571.8 C774.5,571.7 774.3,571.7 774,571.7 C773.7,571.7 773.5,571.7 773.3,571.8 C773.2,571.8 773.1,571.8 773,571.9 C772.9,571.9 772.8,571.9 772.8,572 C774.4,572.5 775.5,574 775.5,575.8 C775.5,577.6 774.4,579.1 772.8,579.6 C772.9,579.6 773,579.7 773,579.7 C773.1,579.7 773.2,579.8 773.3,579.8 C773.5,579.8 773.8,579.9 774,579.9 C774.3,579.9 774.5,579.9 774.8,579.8 C775,579.8 775.3,579.7 775.5,579.6 C776.1,579.3 776.7,578.9 777.1,578.4 C777.4,578.1 777.6,577.7 777.8,577.2 C778,576.8 778,576.3 778,575.8 C778,574.7 777.6,573.7 776.8,573 C776.7,572.9 776.7,572.9 776.7,572.8 Z" id="路径" fill="#B2B6BB" fill-rule="nonzero"></path>
            <path d="M776.7,572.8 C776.2,572.3 775.5,571.9 774.8,571.8 C774.5,571.7 774.3,571.7 774,571.7 C773.7,571.7 773.5,571.7 773.3,571.8 C773.2,571.8 773.1,571.8 773,571.9 C772.9,571.9 772.8,571.9 772.8,572 C774.4,572.5 775.5,574 775.5,575.8 C775.5,577.6 774.4,579.1 772.8,579.6 C772.9,579.6 773,579.7 773,579.7 C773.1,579.7 773.2,579.8 773.3,579.8 C773.5,579.8 773.8,579.9 774,579.9 C774.3,579.9 774.5,579.9 774.8,579.8 C775,579.8 775.3,579.7 775.5,579.6 C776.1,579.3 776.7,578.9 777.1,578.4 C777.4,578.1 777.6,577.7 777.8,577.2 C778,576.8 778,576.3 778,575.8 C778,574.7 777.6,573.7 776.8,573 C776.7,572.9 776.7,572.9 776.7,572.8 Z" id="路径" fill="#000000" fill-rule="nonzero" opacity="0.15"></path>
            <path d="M775.4,625 C775.4,623.2 774.3,621.7 772.7,621.2 C771.1,621.7 769.9,623.2 769.9,625 C769.9,626.8 771.1,628.3 772.7,628.8 C774.3,628.2 775.4,626.7 775.4,625 Z" id="路径" fill="#B2B6BB" fill-rule="nonzero"></path>
            <path d="M772.7,621.1 C772.7,621.2 772.7,621.2 772.7,621.1 C772.8,621.1 772.9,621.1 773,621 C772.8,621.1 772.7,621.1 772.7,621.1 Z" id="路径" fill="#DADDDF" fill-rule="nonzero"></path>
            <path d="M772.7,621.1 C772.7,621.2 772.7,621.2 772.7,621.1 C772.8,621.1 772.9,621.1 773,621 C772.8,621.1 772.7,621.1 772.7,621.1 Z" id="路径" fill="#000000" fill-rule="nonzero" opacity="0.15"></path>
            <path d="M772.7,628.8 C772.8,628.8 772.9,628.8 773,628.9 C772.8,628.8 772.8,628.8 772.7,628.8 C772.7,628.8 772.7,628.7 772.7,628.8 Z" id="路径" fill="#DADDDF" fill-rule="nonzero"></path>
            <path d="M772.7,628.8 C772.8,628.8 772.9,628.8 773,628.9 C772.8,628.8 772.8,628.8 772.7,628.8 C772.7,628.8 772.7,628.7 772.7,628.8 Z" id="路径" fill="#000000" fill-rule="nonzero" opacity="0.15"></path>
            <path d="M777,622.4 C776.6,621.9 776,621.5 775.4,621.2 C775.2,621.1 775,621 774.7,621 C774.4,620.9 774.2,620.9 773.9,620.9 C773.6,620.9 773.4,620.9 773.2,621 C773.1,621 773,621 772.9,621.1 C772.8,621.1 772.7,621.1 772.7,621.2 C774.3,621.7 775.4,623.2 775.4,625 C775.4,626.8 774.3,628.3 772.7,628.8 C772.8,628.8 772.9,628.9 772.9,628.9 C773,628.9 773.1,629 773.2,629 C773.4,629 773.7,629.1 773.9,629.1 C774.2,629.1 774.4,629.1 774.7,629 C774.9,629 775.2,628.9 775.4,628.8 C776,628.5 776.6,628.1 777,627.6 C777.3,627.3 777.5,626.9 777.7,626.4 C777.9,626 777.9,625.5 777.9,625 C777.9,624.5 777.8,624 777.7,623.6 C777.6,623.1 777.3,622.7 777,622.4 Z" id="路径" fill="#B2B6BB" fill-rule="nonzero"></path>
            <path d="M777,622.4 C776.6,621.9 776,621.5 775.4,621.2 C775.2,621.1 775,621 774.7,621 C774.4,620.9 774.2,620.9 773.9,620.9 C773.6,620.9 773.4,620.9 773.2,621 C773.1,621 773,621 772.9,621.1 C772.8,621.1 772.7,621.1 772.7,621.2 C774.3,621.7 775.4,623.2 775.4,625 C775.4,626.8 774.3,628.3 772.7,628.8 C772.8,628.8 772.9,628.9 772.9,628.9 C773,628.9 773.1,629 773.2,629 C773.4,629 773.7,629.1 773.9,629.1 C774.2,629.1 774.4,629.1 774.7,629 C774.9,629 775.2,628.9 775.4,628.8 C776,628.5 776.6,628.1 777,627.6 C777.3,627.3 777.5,626.9 777.7,626.4 C777.9,626 777.9,625.5 777.9,625 C777.9,624.5 777.8,624 777.7,623.6 C777.6,623.1 777.3,622.7 777,622.4 Z" id="路径" fill="#000000" fill-rule="nonzero" opacity="0.15"></path>
            <path d="M775.4,675 C775.4,673.2 774.3,671.7 772.7,671.2 C771.1,671.7 769.9,673.2 769.9,675 C769.9,676.8 771.1,678.3 772.7,678.8 C774.3,678.3 775.4,676.8 775.4,675 Z" id="路径" fill="#B2B6BB" fill-rule="nonzero"></path>
            <path d="M776.2,678.3 C776.6,678 777,677.6 777.3,677.2 C777,677.7 776.6,678.1 776.2,678.3 Z" id="路径" fill="#B2B6BB" fill-rule="nonzero"></path>
            <path d="M772.7,671.2 C772.8,671.2 772.9,671.2 773,671.1 C772.8,671.2 772.7,671.2 772.7,671.2 Z" id="路径" fill="#DADDDF" fill-rule="nonzero"></path>
            <path d="M772.7,671.2 C772.8,671.2 772.9,671.2 773,671.1 C772.8,671.2 772.7,671.2 772.7,671.2 Z" id="路径" fill="#000000" fill-rule="nonzero" opacity="0.15"></path>
            <path d="M772.7,678.8 C772.8,678.8 772.9,678.8 773,678.9 C772.8,678.9 772.8,678.8 772.7,678.8 Z" id="路径" fill="#DADDDF" fill-rule="nonzero"></path>
            <path d="M772.7,678.8 C772.8,678.8 772.9,678.8 773,678.9 C772.8,678.9 772.8,678.8 772.7,678.8 Z" id="路径" fill="#000000" fill-rule="nonzero" opacity="0.15"></path>
            <path d="M777,672.5 C776.6,672 776,671.6 775.4,671.3 C775.2,671.2 775,671.1 774.7,671.1 C774.4,671 774.2,671 773.9,671 C773.6,671 773.4,671 773.2,671.1 C773.1,671.1 773,671.1 772.9,671.2 C772.8,671.2 772.7,671.2 772.7,671.3 C774.3,671.8 775.4,673.3 775.4,675.1 C775.4,676.9 774.3,678.4 772.7,678.9 C772.8,678.9 772.9,679 772.9,679 C773,679 773.1,679.1 773.2,679.1 C773.4,679.1 773.7,679.2 773.9,679.2 C774.7,679.2 775.5,678.9 776.1,678.5 C776.5,678.2 776.9,677.8 777.2,677.4 C777.6,676.8 777.9,676 777.9,675.2 C777.9,674.7 777.8,674.2 777.7,673.8 C777.6,673.2 777.3,672.8 777,672.5 Z" id="路径" fill="#B2B6BB" fill-rule="nonzero"></path>
            <path d="M777,672.5 C776.6,672 776,671.6 775.4,671.3 C775.2,671.2 775,671.1 774.7,671.1 C774.4,671 774.2,671 773.9,671 C773.6,671 773.4,671 773.2,671.1 C773.1,671.1 773,671.1 772.9,671.2 C772.8,671.2 772.7,671.2 772.7,671.3 C774.3,671.8 775.4,673.3 775.4,675.1 C775.4,676.9 774.3,678.4 772.7,678.9 C772.8,678.9 772.9,679 772.9,679 C773,679 773.1,679.1 773.2,679.1 C773.4,679.1 773.7,679.2 773.9,679.2 C774.7,679.2 775.5,678.9 776.1,678.5 C776.5,678.2 776.9,677.8 777.2,677.4 C777.6,676.8 777.9,676 777.9,675.2 C777.9,674.7 777.8,674.2 777.7,673.8 C777.6,673.2 777.3,672.8 777,672.5 Z" id="路径" fill="#000000" fill-rule="nonzero" opacity="0.15"></path>
            <polygon id="路径" fill="#B2B6BB" fill-rule="nonzero" points="961.5 548.6 953.3 543.2 953.3 548.6"></polygon>
            <polygon id="路径" fill="#B2B6BB" fill-rule="nonzero" points="806.4 543.2 625.2 543.2 625.2 545.7 806.4 547.3"></polygon>
            <polygon id="路径" fill="#B2B6BB" fill-rule="nonzero" points="806.4 547.3 953.3 548.6 953.3 543.2 806.4 543.2"></polygon>
            <path d="M987.4,747.9 L992.8,769.2 C993.2,770.3 994.2,771 995.3,771 C995.7,771 996,770.9 996.3,770.8 L992.3,749.2 L987.4,747.9 Z" id="路径" fill="#DADDDF" fill-rule="nonzero"></path>
            <path d="M981.1,723.1 L987.4,747.9 L981.1,723.1 Z" id="路径" fill="#B2B6BB" fill-rule="nonzero"></path>
            <path d="M987.4,747.9 L992.3,749.1 L996.3,770.7 C996.4,770.7 996.4,770.6 996.5,770.6 C996.6,770.6 996.7,770.5 996.7,770.5 C996.8,770.5 996.8,770.4 996.9,770.4 C997,770.3 997,770.3 997.1,770.2 L997.2,770.1 C997.3,770 997.4,769.8 997.5,769.7 C997.5,769.7 997.5,769.6 997.6,769.6 C997.6,769.5 997.7,769.4 997.7,769.3 C997.7,769.2 997.7,769.2 997.7,769.1 C997.7,769 997.7,768.9 997.8,768.7 C997.8,768.6 997.8,768.6 997.8,768.5 C997.8,768.3 997.8,768.1 997.7,768 L994,727 L993.7,723.3 L981.1,723.3 L987.4,747.9 Z" id="路径" fill="#B2B6BB" fill-rule="nonzero"></path>
            <path d="M936.7,726.7 L935.5,723.1 L947.2,769.1 C947.6,770.2 948.6,770.9 949.7,770.9 C950.1,770.9 950.4,770.8 950.7,770.7 L943.9,728 L936.7,726.7 Z" id="路径" fill="#DADDDF" fill-rule="nonzero"></path>
            <path d="M952.3,768.3 C952.3,768.1 952.3,767.9 952.3,767.8 L948.6,726.8 L952.3,767.8 C952.3,768 952.3,768.2 952.3,768.3 Z" id="路径" fill="#B2B6BB" fill-rule="nonzero"></path>
            <path d="M935.5,723.1 L936.7,726.7 L943.9,728.1 L950.7,770.8 C950.8,770.8 950.8,770.7 950.9,770.7 C951,770.7 951.1,770.6 951.1,770.6 C951.2,770.6 951.2,770.5 951.3,770.5 C951.4,770.4 951.4,770.4 951.5,770.3 L951.6,770.2 C951.7,770.1 951.8,769.9 951.9,769.8 C951.9,769.8 951.9,769.7 952,769.7 C952,769.6 952.1,769.5 952.1,769.4 C952.1,769.3 952.1,769.3 952.1,769.2 C952.1,769.1 952.1,769 952.2,768.8 C952.2,768.7 952.2,768.7 952.2,768.6 C952.2,768.4 952.2,768.2 952.1,768.1 L948.4,727.1 L948.1,723.4 L935.5,723.1 Z" id="路径" fill="#B2B6BB" fill-rule="nonzero"></path>
            <path d="M682.1,746.9 L677.8,745.8 L675.8,767.8 C675.5,769.4 676.7,771 678.4,771 L678.3,771 L682.1,746.9 Z" id="路径" fill="#DADDDF" fill-rule="nonzero"></path>
            <path d="M679.9,770.5 C679.5,770.8 678.9,771 678.4,771 C678.9,770.9 679.5,770.8 679.9,770.5 Z" id="路径" fill="#B2B6BB" fill-rule="nonzero"></path>
            <path d="M680.9,769.2 C680.9,769.3 680.8,769.5 680.7,769.6 C680.8,769.4 680.8,769.3 680.9,769.2 L692.6,723.2 L680.9,769.2 Z" id="路径" fill="#B2B6BB" fill-rule="nonzero"></path>
            <path d="M692.6,723.1 L679.9,723.1 L677.8,745.8 L682.1,746.9 L678.3,770.9 L678.4,770.9 C679,770.9 679.5,770.7 679.9,770.4 C680.1,770.2 680.3,770.1 680.5,769.8 C680.6,769.7 680.7,769.6 680.7,769.5 C680.8,769.4 680.8,769.3 680.9,769.1 L692.6,723.1 Z" id="路径" fill="#B2B6BB" fill-rule="nonzero"></path>
            <path d="M638,727 L632.8,726 L629,767.8 C628.7,769.4 629.9,771 631.6,771 L631.5,771 L638,727 Z" id="路径" fill="#DADDDF" fill-rule="nonzero"></path>
            <path d="M632.7,770.7 C632.5,770.8 632.2,770.9 631.9,770.9 C632.2,770.9 632.5,770.8 632.7,770.7 Z" id="路径" fill="#B2B6BB" fill-rule="nonzero"></path>
            <polygon id="路径" fill="#B2B6BB" fill-rule="nonzero" points="632.4 726 632.8 726 633 723.1"></polygon>
            <path d="M633,723.1 L632.7,726 L637.9,727 L631.3,770.9 L631.4,770.9 C631.5,770.9 631.7,770.9 631.8,770.9 C632.1,770.9 632.3,770.8 632.6,770.7 C632.7,770.6 632.8,770.6 632.9,770.5 C633.1,770.3 633.3,770.2 633.5,769.9 C633.7,769.7 633.8,769.4 633.9,769.2 L645.6,723.2 L633,723.1 Z" id="路径" fill="#B2B6BB" fill-rule="nonzero"></path>
            <g id="编组-3" transform="translate(607.381580, 61.381580)">
                <path d="M92.8184203,83.9184203 C93.2184203,69.0184203 93.9184203,37.4184203 94.3184203,22.5184203 C94.4184203,18.0184203 90.8184203,14.2184203 86.3184203,14.1184203 L24.9184203,12.6184203 C20.4184203,12.5184203 16.6184203,16.1184203 16.5184203,20.6184203 L15.0184203,82.0184203 C14.9184203,86.5184203 18.5184203,90.3184203 23.0184203,90.4184203 C37.9184203,90.8184203 69.5184203,91.5184203 84.4184203,91.9184203 C88.9184203,92.0184203 92.6184203,88.4184203 92.8184203,83.9184203 Z" id="路径" fill="#DDDDDD" fill-rule="nonzero"></path>
                <path d="M92.8184203,83.9184203 C93.2184203,69.0184203 93.9184203,37.4184203 94.3184203,22.5184203 C94.4184203,18.0184203 90.8184203,14.2184203 86.3184203,14.1184203 L24.9184203,12.6184203 C20.4184203,12.5184203 16.6184203,16.1184203 16.5184203,20.6184203 L15.0184203,82.0184203 C14.9184203,86.5184203 18.5184203,90.3184203 23.0184203,90.4184203 C37.9184203,90.8184203 69.5184203,91.5184203 84.4184203,91.9184203 C88.9184203,92.0184203 92.6184203,88.4184203 92.8184203,83.9184203 Z" id="路径" stroke="#858990" stroke-width="1.356" stroke-dasharray="2.4"></path>
                <path d="M81.6184203,68.9184203 C80.6184203,54.0184203 78.6184203,22.5184203 77.6184203,7.61842029 C77.3184203,3.11842029 73.4184203,-0.281579709 68.9184203,0.0184202912 L7.61842029,4.01842029 C3.11842029,4.31842029 -0.281579709,8.21842029 0.0184202912,12.7184203 L4.01842029,74.0184203 C4.31842029,78.5184203 8.21842029,81.9184203 12.7184203,81.6184203 C27.6184203,80.6184203 59.1184203,78.6184203 74.0184203,77.6184203 C78.5184203,77.3184203 81.9184203,73.5184203 81.6184203,68.9184203 Z" id="路径" fill="#FFFFFF" fill-rule="nonzero"></path>
                <path d="M38.7184203,22.9184203 L34.6184203,34.3184203 C34.5184203,34.7184203 34.1184203,35.0184203 33.7184203,35.0184203 L21.8184203,37.0184203 C20.8184203,37.2184203 20.5184203,38.4184203 21.3184203,39.0184203 L30.8184203,46.4184203 C31.1184203,46.7184203 31.3184203,47.1184203 31.2184203,47.5184203 L29.4184203,59.5184203 C29.3184203,60.5184203 30.3184203,61.2184203 31.1184203,60.6184203 L41.1184203,53.8184203 C41.4184203,53.6184203 41.9184203,53.5184203 42.2184203,53.7184203 L53.0184203,59.1184203 C53.9184203,59.5184203 54.9184203,58.7184203 54.6184203,57.8184203 L51.3184203,46.2184203 C51.2184203,45.8184203 51.3184203,45.4184203 51.6184203,45.1184203 L60.1184203,36.5184203 C60.8184203,35.8184203 60.3184203,34.6184203 59.3184203,34.6184203 L47.2184203,34.2184203 C46.8184203,34.2184203 46.4184203,34.0184203 46.2184203,33.6184203 L40.6184203,22.9184203 C40.3184203,21.9184203 39.0184203,22.0184203 38.7184203,22.9184203 Z" id="路径" fill="#858990" fill-rule="nonzero"></path>
            </g>
            <path d="M617.4,364.3 L459.1,364.3 C456.8,364.3 454.9,362.4 454.9,360.1 L454.9,272.1 C454.9,269.8 456.8,267.9 459.1,267.9 L617.3,267.9 C619.6,267.9 621.5,269.8 621.5,272.1 L621.5,360.1 C621.6,362.4 619.7,364.3 617.4,364.3 Z" id="路径" fill="#858990" fill-rule="nonzero"></path>
            <path d="M613.6,364.3 L455.4,364.3 C453.1,364.3 451.2,362.4 451.2,360.1 L451.2,272.1 C451.2,269.8 453.1,267.9 455.4,267.9 L613.6,267.9 C615.9,267.9 617.8,269.8 617.8,272.1 L617.8,360.1 C617.8,362.4 615.9,364.3 613.6,364.3 Z" id="路径" fill="#DDDDDD" fill-rule="nonzero"></path>
            <polygon id="路径" fill="#858990" fill-rule="nonzero" points="503.8 296 497.9 296 483.2 316.7 497.9 337.4 503.8 337.4 509.5 331.7 494.5 316.7 509.5 301.7"></polygon>
            <polygon id="路径" fill="#3F4249" fill-rule="nonzero" points="497.9 296 477.2 316.7 497.9 337.4 503.6 331.7 488.6 316.7 503.6 301.7"></polygon>
            <polygon id="路径" fill="#858990" fill-rule="nonzero" points="573.5 296 567.6 296 568.3 302.2 582.8 316.7 568.3 331.2 567.6 337.4 573.5 337.4 594.2 316.7"></polygon>
            <polygon id="路径" fill="#3F4249" fill-rule="nonzero" points="567.6 296 561.9 301.7 576.9 316.7 561.9 331.7 567.6 337.4 588.3 316.7"></polygon>
            <polygon id="路径" fill="#858990" fill-rule="nonzero" points="539.3 280.3 518.8 350.5 524.7 350.5 552.7 283.4 545.2 280.3"></polygon>
            <polygon id="路径" fill="#3F4249" fill-rule="nonzero" points="511.3 347.4 518.8 350.5 546.8 283.4 539.3 280.3"></polygon>
            <path d="M1100.4,390.9 C1083.6,390.9 1070,377.3 1070,360.5 C1070,343.7 1083.6,330.1 1100.4,330.1 C1117.2,330.1 1130.8,343.7 1130.8,360.5 C1130.8,377.3 1117.2,390.9 1100.4,390.9 Z" id="路径" fill="#DDDDDD" fill-rule="nonzero"></path>
            <path d="M1109.3,356.9 C1108.4,356.9 1107.6,357.2 1107,357.8 L1097.2,352.1 C1097.2,351.9 1097.3,351.7 1097.3,351.5 C1097.3,349.5 1095.7,347.8 1093.6,347.8 C1091.6,347.8 1089.9,349.4 1089.9,351.5 C1089.9,353.6 1091.5,355.2 1093.6,355.2 C1094.5,355.2 1095.3,354.9 1095.9,354.3 L1105.7,360 C1105.7,360.2 1105.6,360.4 1105.6,360.6 C1105.6,360.8 1105.6,361 1105.7,361.2 L1095.9,366.9 C1095.3,366.4 1094.5,366 1093.6,366 C1091.6,366 1089.9,367.6 1089.9,369.7 C1089.9,371.8 1091.5,373.4 1093.6,373.4 C1095.6,373.4 1097.3,371.8 1097.3,369.7 C1097.3,369.5 1097.3,369.3 1097.2,369.1 L1107,363.4 C1107.6,363.9 1108.4,364.3 1109.3,364.3 C1111.3,364.3 1113,362.7 1113,360.6 C1113,358.5 1111.3,356.9 1109.3,356.9 Z" id="路径" fill="#858990" fill-rule="nonzero"></path>
            <path d="M897.9,113 L897.9,273.9 C897.9,276.1 899.7,277.9 901.9,277.9 L1149,277.9 C1151.2,277.9 1153,276.1 1153,273.9 L1153,113 C1153,110.8 1151.2,109 1149,109 L901.9,109 C899.7,109 897.9,110.8 897.9,113 Z" id="路径" fill="#42D392" fill-rule="nonzero"></path>
            <path d="M897.9,113 L897.9,273.9 C897.9,276.1 899.7,277.9 901.9,277.9 L1149,277.9 C1151.2,277.9 1153,276.1 1153,273.9 L1153,113 C1153,110.8 1151.2,109 1149,109 L901.9,109 C899.7,109 897.9,110.8 897.9,113 Z" id="路径" fill="#FFFFFF" fill-rule="nonzero" opacity="0.3"></path>
            <path d="M893.4,113 L893.4,273.9 C893.4,276.1 895.2,277.9 897.4,277.9 L1144.5,277.9 C1146.7,277.9 1148.5,276.1 1148.5,273.9 L1148.5,113 C1148.5,110.8 1146.7,109 1144.5,109 L897.4,109 C895.1,109 893.4,110.8 893.4,113 Z" id="路径" fill="#42D392" fill-rule="nonzero"></path>
            <path d="M893.4,113 L893.4,273.9 C893.4,276.1 895.2,277.9 897.4,277.9 L1144.5,277.9 C1146.7,277.9 1148.5,276.1 1148.5,273.9 L1148.5,113 C1148.5,110.8 1146.7,109 1144.5,109 L897.4,109 C895.1,109 893.4,110.8 893.4,113 Z" id="路径" fill="#FFFFFF" fill-rule="nonzero" opacity="0.7"></path>
            <path d="M1043.9,193.5 C1043.9,209.5 1030.9,222.5 1014.9,222.5 C998.9,222.5 985.9,209.5 985.9,193.5 C985.9,177.5 998.9,164.5 1014.9,164.5 C1031,164.5 1043.9,177.5 1043.9,193.5 Z" id="路径" fill="#42D392" fill-rule="nonzero"></path>
            <polygon id="路径" fill="#FFFFFF" fill-rule="nonzero" points="1009.2 205.7 1009.2 181.2 1027.4 193.5"></polygon>
            <path d="M1144.5,277.9 L897.3,277.9 C895.1,277.9 893.4,276.1 893.4,274 L893.4,263.4 L1148.5,263.4 L1148.5,274 C1148.4,276.1 1146.7,277.9 1144.5,277.9 Z" id="路径" fill="#FFFFFF" fill-rule="nonzero"></path>
            <polygon id="路径" fill="#B1B5BA" fill-rule="nonzero" points="1123 269.6 911.2 269.6 911.2 272.2 1123 272.2"></polygon>
            <path d="M904.3,274.8 L897.6,274.8 C897.2,274.8 896.8,274.4 896.8,274 L896.8,267.3 C896.8,266.9 897.2,266.5 897.6,266.5 L904.3,266.5 C904.7,266.5 905.1,266.9 905.1,267.3 L905.1,274 C905.1,274.5 904.8,274.8 904.3,274.8 Z" id="路径" fill="#B1B5BA" fill-rule="nonzero"></path>
            <polygon id="路径" fill="#61656D" fill-rule="nonzero" points="900.4 268.6 899.2 268.6 899.2 272.7 900.4 272.7"></polygon>
            <polygon id="路径" fill="#61656D" fill-rule="nonzero" points="902.6 268.6 901.4 268.6 901.4 272.7 902.6 272.7"></polygon>
            <path d="M1144.6,275.1 L1137.9,275.1 C1137.5,275.1 1137.1,274.7 1137.1,274.3 L1137.1,267.6 C1137.1,267.2 1137.5,266.8 1137.9,266.8 L1144.6,266.8 C1145,266.8 1145.4,267.2 1145.4,267.6 L1145.4,274.3 C1145.4,274.8 1145,275.1 1144.6,275.1 Z" id="路径" fill="#C7C7C7" fill-rule="nonzero"></path>
            <polygon id="路径" fill="#61656D" fill-rule="nonzero" points="1139.9 269.9 1138.3 269.9 1138.3 271.9 1139.9 271.9"></polygon>
            <polygon id="路径" fill="#61656D" fill-rule="nonzero" points="1141.7 273.3 1139.3 272 1139.3 269.9 1141.7 268.6"></polygon>
            <path d="M1142.9,269.4 C1143,269.3 1143.1,269.2 1143.3,269 C1143.7,269.4 1144,269.9 1144.1,270.5 C1144.2,271.4 1144,272.2 1143.3,272.8 C1143.2,272.7 1143,272.5 1142.9,272.4 C1143.3,272 1143.5,271.5 1143.5,270.9 C1143.6,270.3 1143.4,269.8 1142.9,269.4 Z" id="路径" fill="#61656D" fill-rule="nonzero"></path>
            <path d="M1142.6,272.1 C1142.5,272 1142.4,271.9 1142.2,271.7 C1142.4,271.5 1142.5,271.2 1142.5,270.9 C1142.5,270.6 1142.4,270.3 1142.2,270.1 C1142.3,270 1142.4,269.9 1142.6,269.7 C1143.2,270.4 1143.2,271.4 1142.6,272.1 Z" id="路径" fill="#61656D" fill-rule="nonzero"></path>
            <path d="M953.8,271 C953.8,271.5 953.9,271.9 954.2,272.3 L910.9,272.3 L910.9,269.7 L954.2,269.7 C953.9,270 953.8,270.5 953.8,271 Z" id="路径" fill="#61656D" fill-rule="nonzero"></path>
            <path d="M957.9,271 C957.9,271.6 957.8,272.2 957.5,272.7 C956.8,274 955.5,274.9 953.9,274.9 C952.3,274.9 951,274 950.4,272.7 C950.1,272.2 950,271.6 950,271 C950,270.4 950.2,269.8 950.4,269.3 C951,268 952.4,267.1 953.9,267.1 C955.5,267.1 956.8,268 957.4,269.3 C957.8,269.8 957.9,270.3 957.9,271 Z" id="路径" fill="#61656D" fill-rule="nonzero"></path>
            <path d="M902.3,119.8 C903.68,119.8 904.8,118.681 904.8,117.3 C904.8,115.919 903.68,114.8 902.3,114.8 C900.92,114.8 899.8,115.919 899.8,117.3 C899.8,118.681 900.92,119.8 902.3,119.8 Z" id="路径" fill="#42D392" fill-rule="nonzero"></path>
            <path d="M911.5,119.8 C912.88,119.8 914,118.681 914,117.3 C914,115.919 912.88,114.8 911.5,114.8 C910.12,114.8 909,115.919 909,117.3 C909,118.681 910.12,119.8 911.5,119.8 Z" id="路径" fill="#61656D" fill-rule="nonzero"></path>
            <path d="M920.6,119.8 C921.98,119.8 923.1,118.681 923.1,117.3 C923.1,115.919 921.98,114.8 920.6,114.8 C919.22,114.8 918.1,115.919 918.1,117.3 C918.1,118.681 919.22,119.8 920.6,119.8 Z" id="路径" fill="#21252B" fill-rule="nonzero"></path>
            <path d="M926.7,409.5 L1029.6,409.5 C1033.6,409.5 1036.8,412.7 1036.8,416.7 L1036.8,552.1 C1036.8,556.1 1033.6,559.3 1029.6,559.3 L926.7,559.3 C922.7,559.3 919.5,556.1 919.5,552.1 L919.5,416.7 C919.5,412.8 922.7,409.5 926.7,409.5 Z" id="路径" fill="#B1B5BA" fill-rule="nonzero"></path>
            <path d="M923.3,409.5 L1026.2,409.5 C1030.2,409.5 1033.4,412.7 1033.4,416.7 L1033.4,552.1 C1033.4,556.1 1030.2,559.3 1026.2,559.3 L923.3,559.3 C919.3,559.3 916.1,556.1 916.1,552.1 L916.1,416.7 C916.1,412.8 919.3,409.5 923.3,409.5 Z" id="路径" fill="#FFFFFF" fill-rule="nonzero"></path>
            <path d="M999.2,485.2 L950.2,485.2 C948.2,485.2 946.6,483.6 946.6,481.6 L946.6,432.6 C946.6,430.6 948.2,429 950.2,429 L999.2,429 C1001.2,429 1002.8,430.6 1002.8,432.6 L1002.8,481.6 C1002.8,483.6 1001.2,485.2 999.2,485.2 Z" id="路径" fill="#42D392" fill-rule="nonzero"></path>
            <path d="M999.2,485.2 L950.2,485.2 C948.2,485.2 946.6,483.6 946.6,481.6 L946.6,432.6 C946.6,430.6 948.2,429 950.2,429 L999.2,429 C1001.2,429 1002.8,430.6 1002.8,432.6 L1002.8,481.6 C1002.8,483.6 1001.2,485.2 999.2,485.2 Z" id="路径" fill="#FFFFFF" fill-rule="nonzero" opacity="0.7"></path>
            <path d="M974.6,447.8 C977.36,447.8 979.6,445.562 979.6,442.8 C979.6,440.039 977.36,437.8 974.6,437.8 C971.84,437.8 969.6,440.039 969.6,442.8 C969.6,445.562 971.84,447.8 974.6,447.8 Z" id="路径" fill="#42D392" fill-rule="nonzero"></path>
            <path d="M946.6,481.6 L946.6,468.1 L965.6,453.9 C966.4,453.3 967.4,453.4 968.1,454 L974.7,459.8 L988.1,449.3 C988.9,448.7 989.9,448.7 990.7,449.4 L1002.7,459.9 L1002.7,481.7 C1002.7,483.7 1001.1,485.3 999.1,485.3 L950.1,485.3 C948.2,485.2 946.6,483.6 946.6,481.6 Z" id="路径" fill="#42D392" fill-rule="nonzero"></path>
            <path d="M1004.8,507.6 L944.5,507.6 C943.5,507.6 942.7,506.8 942.7,505.8 L942.7,502.1 C942.7,501.1 943.5,500.3 944.5,500.3 L1004.8,500.3 C1005.8,500.3 1006.6,501.1 1006.6,502.1 L1006.6,505.8 C1006.6,506.8 1005.8,507.6 1004.8,507.6 Z" id="路径" fill="#42D392" fill-rule="nonzero"></path>
            <path d="M1004.8,507.6 L944.5,507.6 C943.5,507.6 942.7,506.8 942.7,505.8 L942.7,502.1 C942.7,501.1 943.5,500.3 944.5,500.3 L1004.8,500.3 C1005.8,500.3 1006.6,501.1 1006.6,502.1 L1006.6,505.8 C1006.6,506.8 1005.8,507.6 1004.8,507.6 Z" id="路径" fill="#FFFFFF" fill-rule="nonzero" opacity="0.3"></path>
            <path d="M1004.8,525.3 L944.6,525.3 C943.6,525.3 942.8,524.5 942.8,523.5 C942.8,522.5 943.6,521.7 944.6,521.7 L1004.8,521.7 C1005.8,521.7 1006.6,522.5 1006.6,523.5 C1006.6,524.5 1005.8,525.3 1004.8,525.3 Z" id="路径" fill="#61656D" fill-rule="nonzero"></path>
            <path d="M994,539.8 L955.4,539.8 C954.4,539.8 953.6,539 953.6,538 C953.6,537 954.4,536.2 955.4,536.2 L994,536.2 C995,536.2 995.8,537 995.8,538 C995.9,538.9 995,539.8 994,539.8 Z" id="路径" fill="#61656D" fill-rule="nonzero"></path>
            <g id="编组-2" transform="translate(214.298119, 0.000000)" fill-rule="nonzero">
                <path d="M12.7018811,0 L279.001881,0 C283.801881,0 287.601881,3.9 287.601881,8.6 L287.601881,154.5 C287.601881,159.3 283.701881,163.1 279.001881,163.1 L12.7018811,163.1 C7.9018811,163.1 4.1018811,159.2 4.1018811,154.5 L4.1018811,8.6 C4.1018811,3.9 7.9018811,0 12.7018811,0 Z" id="路径" fill="#42D392"></path>
                <path d="M12.7018811,0 L279.001881,0 C283.801881,0 287.601881,3.9 287.601881,8.6 L287.601881,154.5 C287.601881,159.3 283.701881,163.1 279.001881,163.1 L12.7018811,163.1 C7.9018811,163.1 4.1018811,159.2 4.1018811,154.5 L4.1018811,8.6 C4.1018811,3.9 7.9018811,0 12.7018811,0 Z" id="路径" fill="#FFFFFF" opacity="0.2"></path>
                <path d="M8.6018811,0 L274.901881,0 C279.701881,0 283.501881,3.9 283.501881,8.6 L283.501881,154.5 C283.501881,159.3 279.601881,163.1 274.901881,163.1 L8.6018811,163.1 C3.8018811,163.1 0,159.2 0,154.5 L0,8.6 C-0.0981189009,3.9 3.8018811,0 8.6018811,0 Z" id="路径" fill="#42D392"></path>
                <path d="M8.6018811,0 L274.901881,0 C279.701881,0 283.501881,3.9 283.501881,8.6 L283.501881,154.5 C283.501881,159.3 279.601881,163.1 274.901881,163.1 L8.6018811,163.1 C3.8018811,163.1 0,159.2 0,154.5 L0,8.6 C-0.0981189009,3.9 3.8018811,0 8.6018811,0 Z" id="路径" fill="#FFFFFF" opacity="0.6"></path>
                <path d="M250.601881,120.5 L182.801881,120.5 C180.101881,120.5 177.801881,118.3 177.801881,115.5 L177.801881,47.7 C177.801881,45 180.001881,42.7 182.801881,42.7 L250.601881,42.7 C253.301881,42.7 255.601881,44.9 255.601881,47.7 L255.601881,115.5 C255.501881,118.3 253.301881,120.5 250.601881,120.5 Z" id="路径" fill="#42D392"></path>
                <path d="M250.601881,120.5 L182.801881,120.5 C180.101881,120.5 177.801881,118.3 177.801881,115.5 L177.801881,47.7 C177.801881,45 180.001881,42.7 182.801881,42.7 L250.601881,42.7 C253.301881,42.7 255.601881,44.9 255.601881,47.7 L255.601881,115.5 C255.501881,118.3 253.301881,120.5 250.601881,120.5 Z" id="路径" fill="#42D392"></path>
                <path d="M250.601881,120.5 L182.801881,120.5 C180.101881,120.5 177.801881,118.3 177.801881,115.5 L177.801881,47.7 C177.801881,45 180.001881,42.7 182.801881,42.7 L250.601881,42.7 C253.301881,42.7 255.601881,44.9 255.601881,47.7 L255.601881,115.5 C255.501881,118.3 253.301881,120.5 250.601881,120.5 Z" id="路径" fill="#FFFFFF" opacity="0.8"></path>
                <path d="M216.401881,68.8 C220.212881,68.8 223.301881,65.711 223.301881,61.9 C223.301881,58.09 220.212881,55 216.401881,55 C212.590881,55 209.501881,58.09 209.501881,61.9 C209.501881,65.711 212.590881,68.8 216.401881,68.8 Z" id="路径" fill="#FFFFFF"></path>
                <path d="M177.801881,115.6 L177.801881,96.9 L204.101881,77.3 C205.201881,76.5 206.601881,76.6 207.601881,77.4 L216.701881,85.4 L235.201881,70.9 C236.301881,70.1 237.701881,70.1 238.801881,71 L255.501881,85.6 L255.501881,115.7 C255.501881,118.4 253.301881,120.7 250.501881,120.7 L182.801881,120.7 C180.001881,120.5 177.801881,118.3 177.801881,115.6 Z" id="路径" fill="#42D392"></path>
                <path d="M146.601881,52.6 L30.8018811,52.6 C29.2018811,52.6 27.9018811,51.3 27.9018811,49.7 L27.9018811,45.5 C27.9018811,43.9 29.2018811,42.6 30.8018811,42.6 L146.601881,42.6 C148.201881,42.6 149.501881,43.9 149.501881,45.5 L149.501881,49.7 C149.601881,51.3 148.201881,52.6 146.601881,52.6 Z" id="路径" fill="#FFFFFF"></path>
                <path d="M147.001881,78.8 L30.4018811,78.8 C29.0018811,78.8 27.8018811,77.7 27.8018811,76.2 C27.8018811,74.8 28.9018811,73.6 30.4018811,73.6 L147.001881,73.6 C148.401881,73.6 149.601881,74.7 149.601881,76.2 C149.601881,77.7 148.401881,78.8 147.001881,78.8 Z" id="路径" fill="#42D392"></path>
                <path d="M93.7018811,120.8 L30.4018811,120.8 C29.0018811,120.8 27.8018811,119.7 27.8018811,118.2 C27.8018811,116.8 28.9018811,115.6 30.4018811,115.6 L93.7018811,115.6 C95.1018811,115.6 96.3018811,116.7 96.3018811,118.2 C96.3018811,119.7 95.1018811,120.8 93.7018811,120.8 Z" id="路径" fill="#42D392"></path>
                <path d="M147.001881,99.8 L30.4018811,99.8 C29.0018811,99.8 27.8018811,98.7 27.8018811,97.2 C27.8018811,95.8 28.9018811,94.6 30.4018811,94.6 L147.001881,94.6 C148.401881,94.6 149.601881,95.7 149.601881,97.2 C149.601881,98.7 148.401881,99.8 147.001881,99.8 Z" id="路径" fill="#42D392"></path>
                <path d="M147.001881,78.8 L30.4018811,78.8 C29.0018811,78.8 27.8018811,77.7 27.8018811,76.2 C27.8018811,74.8 28.9018811,73.6 30.4018811,73.6 L147.001881,73.6 C148.401881,73.6 149.601881,74.7 149.601881,76.2 C149.601881,77.7 148.401881,78.8 147.001881,78.8 Z" id="路径" fill="#FFFFFF" opacity="0.2"></path>
                <path d="M93.7018811,120.8 L30.4018811,120.8 C29.0018811,120.8 27.8018811,119.7 27.8018811,118.2 C27.8018811,116.8 28.9018811,115.6 30.4018811,115.6 L93.7018811,115.6 C95.1018811,115.6 96.3018811,116.7 96.3018811,118.2 C96.3018811,119.7 95.1018811,120.8 93.7018811,120.8 Z" id="路径" fill="#FFFFFF" opacity="0.2"></path>
                <path d="M147.001881,99.8 L30.4018811,99.8 C29.0018811,99.8 27.8018811,98.7 27.8018811,97.2 C27.8018811,95.8 28.9018811,94.6 30.4018811,94.6 L147.001881,94.6 C148.401881,94.6 149.601881,95.7 149.601881,97.2 C149.601881,98.7 148.401881,99.8 147.001881,99.8 Z" id="路径" fill="#FFFFFF" opacity="0.2"></path>
            </g>
            <g id="编组-4" transform="translate(748.300000, 1.400000)" fill-rule="nonzero">
                <path d="M30.4,60.8 C47.19,60.8 60.8,47.189 60.8,30.4 C60.8,13.611 47.19,0 30.4,0 C13.61,0 0,13.611 0,30.4 C0,47.189 13.61,60.8 30.4,60.8 Z" id="路径" fill="#DDDDDD"></path>
                <path d="M22.8,26.3 L25.4,26.3 L30.5,18.7 L30.9,14.4 C31,13.7 31.7,13.3 32.3,13.6 C33.4,14.1 34.5,15.6 34.6,19.8 C34.6,24.5 34.6,24.8 34.6,24.8 L42.5,24.9 C43.5,24.9 44.3,25.7 44.3,26.7 C44.4,29.7 44.5,35.7 44.5,39.1 C44.5,41.4 43.1,43.5 41,44.1 C40.7,44.2 40.4,44.2 40.1,44.2 C38,44.2 27.2,42.5 27.2,42.5 L22.8,42.5 L22.8,26.3 L22.8,26.3 Z" id="路径" fill="#858990"></path>
                <polygon id="路径" fill="#858990" points="15.4 26.3 17 42.7 21.4 42.7 21.4 26.3"></polygon>
            </g>
            <path d="M681.3,452.3 C663.5,452.3 649.1,437.9 649.1,420.1 C649.1,402.3 663.5,387.9 681.3,387.9 C699.1,387.9 713.5,402.3 713.5,420.1 C713.5,437.8 699.1,452.3 681.3,452.3 Z" id="路径" fill="#DDDDDD" fill-rule="nonzero"></path>
            <path d="M691.6,406.3 C691.4,405.7 690.8,405.3 690.2,405.5 C689.6,405.7 689.2,406.3 689.4,406.9 L689.4,407.1 L667,419.2 C666.8,418.7 666.2,418.4 665.6,418.6 C665,418.8 664.6,419.4 664.8,420 L667.7,429.8 C667.9,430.4 668.5,430.8 669.1,430.6 C669.7,430.4 670,429.9 669.9,429.3 L673.8,429 L673.8,430.4 C673.8,431.8 674.9,433 676.4,433 L682.9,433 C684.3,433 685.5,431.9 685.5,430.4 L685.5,428.1 L695.4,427.4 L695.4,427.6 C695.6,428.2 696.2,428.6 696.8,428.4 C697.4,428.2 697.8,427.6 697.6,427 L691.6,406.3 Z M683.7,430.6 C683.7,431 683.3,431.4 682.9,431.4 L676.4,431.4 C676,431.4 675.6,431 675.6,430.6 L675.6,429 L683.6,428.4 L683.6,430.6 L683.7,430.6 Z" id="形状" fill="#858990" fill-rule="nonzero"></path>
            <path d="M1133.2,772.1 L0.6,772.1 C0.2,772.1 0,771.9 0,771.5 C0,771.1 0.2,770.9 0.6,770.9 L1133.3,770.9 C1133.7,770.9 1133.9,771.1 1133.9,771.5 C1133.9,771.9 1133.5,772.1 1133.2,772.1 Z" id="路径" fill="#B2B6BB" fill-rule="nonzero"></path>
            <line x1="85.1" y1="597.4" x2="79.4" y2="738.2" id="路径" stroke="#21252B" stroke-width="0.7353" stroke-linecap="round"></line>
            <line x1="43.7" y1="658.6" x2="69" y2="688.3" id="路径" stroke="#21252B" stroke-width="0.7353" stroke-linecap="round"></line>
            <line x1="102.6" y1="693.9" x2="79.8" y2="728.5" id="路径" stroke="#21252B" stroke-width="0.7353" stroke-linecap="round"></line>
            <line x1="113.7" y1="635.8" x2="82.3" y2="671.7" id="路径" stroke="#21252B" stroke-width="0.7353" stroke-linecap="round"></line>
            <path d="M111.581,655.076 C119.025,646.327 121.275,636.014 116.606,632.042 C111.937,628.069 102.118,631.941 94.674,640.69 C87.23,649.439 84.98,659.752 89.649,663.724 C94.318,667.697 104.137,663.825 111.581,655.076 Z" id="路径" fill="#42D392" fill-rule="nonzero"></path>
            <path d="M116.9,632.4 L89.5,663.6 C89.6,663.6 89.6,663.7 89.7,663.7 C94.4,667.7 104.2,663.8 111.6,655.1 C118.9,646.6 121.2,636.6 116.9,632.4 Z" id="路径" fill="#000000" fill-rule="nonzero" opacity="0.3"></path>
            <path d="M58.834,676.116 C62.452,673.124 60.819,665.179 55.187,658.369 C49.556,651.56 42.058,648.465 38.44,651.457 C34.823,654.448 36.456,662.394 42.087,669.203 C47.719,676.013 55.216,679.108 58.834,676.116 Z" id="路径" fill="#42D392" fill-rule="nonzero"></path>
            <path d="M38.2,651.7 L58.9,676 L58.8,676.1 C55.2,679.1 47.7,676 42,669.2 C36.6,662.6 34.9,654.8 38.2,651.7 Z" id="路径" fill="#000000" fill-rule="nonzero" opacity="0.3"></path>
            <line x1="47.5" y1="698.9" x2="74.2" y2="719.7" id="路径" stroke="#21252B" stroke-width="0.7353" stroke-linecap="round"></line>
            <path d="M65.85,712.964 C68.782,709.299 65.565,701.852 58.665,696.333 C51.764,690.814 43.793,689.311 40.861,692.977 C37.929,696.643 41.146,704.089 48.047,709.608 C54.947,715.128 62.918,716.63 65.85,712.964 Z" id="路径" fill="#42D392" fill-rule="nonzero"></path>
            <path d="M40.7,693.3 L65.9,712.9 L65.8,713 C62.9,716.7 54.9,715.2 48,709.7 C41.3,704.3 38.1,697 40.7,693.3 Z" id="路径" fill="#000000" fill-rule="nonzero" opacity="0.3"></path>
            <path d="M95.533,607.987 C96.054,596.511 91.602,586.987 85.588,586.713 C79.574,586.44 74.276,595.522 73.755,606.998 C73.233,618.474 77.686,627.998 83.7,628.272 C89.713,628.545 95.011,619.463 95.533,607.987 Z" id="路径" fill="#42D392" fill-rule="nonzero"></path>
            <path d="M73.8,607.1 C74.3,595.7 79.6,586.6 85.6,586.9 L83.7,628.4 C77.7,628 73.3,618.5 73.8,607.1 Z" id="路径" fill="#000000" fill-rule="nonzero" opacity="0.3"></path>
            <path d="M105.028,706.964 C110.027,699.148 110.572,690.568 106.245,687.801 C101.918,685.034 94.358,689.126 89.359,696.942 C84.36,704.759 83.815,713.338 88.142,716.106 C92.468,718.873 100.029,714.78 105.028,706.964 Z" id="路径" fill="#42D392" fill-rule="nonzero"></path>
            <path d="M89.4,696.9 C84.5,704.5 83.9,712.9 87.9,715.8 L106.2,687.8 L105.1,687.3 C100.8,685.7 94,689.7 89.4,696.9 Z" id="路径" fill="#000000" fill-rule="nonzero" opacity="0.3"></path>
            <line x1="76.9" y1="736.5" x2="61.3" y2="639.3" id="路径" stroke="#21252B" stroke-width="0.7353" stroke-linecap="round"></line>
            <path d="M62.778,652.907 C68.122,652.052 71.131,643.092 69.5,632.894 C67.868,622.696 62.213,615.123 56.869,615.978 C51.524,616.833 48.515,625.793 50.147,635.991 C51.778,646.188 57.434,653.762 62.778,652.907 Z" id="路径" fill="#42D392" fill-rule="nonzero"></path>
            <path d="M50.1,636 C48.5,625.8 51.5,616.8 56.8,615.9 L62.7,652.9 C57.4,653.9 51.7,646.3 50.1,636 Z" id="路径" fill="#000000" fill-rule="nonzero" opacity="0.3"></path>
            <path d="M70,770.9 L88.7,770.9 C92.2,770.9 95,768.1 95,764.6 L95,739.8 L63.6,739.8 L63.6,764.6 C63.7,768.1 66.5,770.9 70,770.9 Z" id="路径" fill="#868A91" fill-rule="nonzero"></path>
            <path d="M95.8,736.5 L63,736.5 C62.1,736.5 61.3,737.2 61.3,738.2 C61.3,739.1 62,739.9 63,739.9 L95.8,739.9 C96.7,739.9 97.5,739.2 97.5,738.2 C97.4,737.3 96.7,736.5 95.8,736.5 Z" id="路径" fill="#868A91" fill-rule="nonzero"></path>
            <path d="M95.1,739.8 L66.5,739.8 C65.6,739.8 64.8,739.1 64.8,738.1 C64.8,737.2 65.5,736.4 66.5,736.4 L63,736.4 C62.1,736.4 61.3,737.1 61.3,738.1 C61.3,739 62,739.8 63,739.8 L63.7,739.8 L63.7,740.3 L63.7,764.5 C63.7,768 66.5,770.8 70,770.8 L80,770.8 C80.1,770.8 80.2,770.8 80.2,770.8 C75.8,770.8 71.9,767.7 71.1,763.3 L66.6,740.2 L95.1,740.2 L95.1,739.8 Z" id="路径" fill="#61656D" fill-rule="nonzero"></path>
            <path d="M631.6,180.9 C630.8,181.5 630.6,182.5 631.1,183.3 L638.8,196.5 L638.1,195.9 C637.1,194.8 635.4,194.8 634.3,195.8 C633.2,196.8 633.1,198.4 634,199.5 L635.6,201.5 L635,200.8 C634,199.7 632.3,199.6 631.3,200.6 C630.3,201.6 630.3,203.2 631.2,204.2 L632.7,205.8 L631.5,204.6 C630.6,203.7 629.2,203.6 628.3,204.5 C627.5,205.2 627.3,206.5 627.9,207.4 L635.1,220.4 C637,223.8 639.7,226.8 642.9,229.1 L649,241.2 L665.4,231.3 L657.9,220.4 L651.8,205.7 C651.2,203.7 650.2,201.9 649,200.2 L634.1,181.3 C633.6,180.4 632.4,180.2 631.6,180.9 Z" id="路径" fill="#966363" fill-rule="nonzero"></path>
            <g id="编组" opacity="0.15" transform="translate(628.000000, 200.700000)" fill="#000000" fill-rule="nonzero">
                <path d="M5.9,12 C5.3,12 4.8,11.8 4.3,11.4 L0.9,8.3 L-1.13686838e-13,6.6 L5.2,10.4 C5.6,10.7 6.1,10.8 6.5,10.5 C6.7,10.3 6.9,10.1 6.9,9.8 C6.9,9.5 6.9,9.2 6.7,9 L2.7,3.8 L3.2,3.4 L9.2,8.4 C9.6,8.8 10.3,8.9 10.7,8.5 C11,8.3 11.2,8 11.2,7.7 C11.3,7.4 11.2,7.1 11,6.8 L6.8,0.4 L7.4,0 L12.1,6 C12.1,6 12.1,6.1 12.2,6.1 L12.7,6.7 C13.1,7.3 14,7.5 14.6,7 L15.6,6.3 L14.8,7.6 C14.8,7.6 14.8,7.6 14.1,8.6 C13.6,8.7 13,8.5 12.5,8.3 C12.3,8.8 12,9.3 11.5,9.6 C10.5,10.3 9.2,10.1 8.3,9.3 L8.1,9.1 C8.2,9.4 8.2,9.6 8.1,9.9 C8,10.5 7.7,11.1 7.2,11.5 C6.9,11.9 6.4,12 5.9,12 Z" id="路径"></path>
            </g>
            <path d="M644.8,208.2 L640.6,208.5 C637.5,208.5 635.2,206.5 634.7,203.8 L634.7,203.7 C634.6,202.9 635.4,202.6 635.6,202.6 L648.3,200.4" id="路径" fill="#966363" fill-rule="nonzero"></path>
            <path d="M648.4,200.9 L635.7,203.1 C635.5,203.1 635.3,203.4 635.3,203.6 C635.8,206.2 638.2,207.9 640.8,207.8 L644.6,207.5 C644.6,207.5 641,210 641.6,215.2" id="路径" stroke="#000000" stroke-width="1.3154" opacity="0.15"></path>
            <g id="编组" opacity="0.15" transform="translate(638.500000, 196.400000)" fill="#000000" fill-rule="nonzero">
                <polygon id="路径" points="2.3 5.2 0 0.3 0.5 0 3.7 4.9"></polygon>
            </g>
            <polygon id="路径" fill="#FFFFFF" fill-rule="nonzero" points="663.6 227 647.8 238.4 644.7 232.7 660 222.4"></polygon>
            <path d="M966.1,286 L968.7,276.7 C969.8,272.8 971.6,269.2 973.9,266 L978.4,259.9 C978.6,259.6 978.9,259.6 979.2,259.8 C980.8,261.1 981.4,263.3 980.5,265.2 L977,272.8 L995.9,257 C996.7,256.4 997.8,256.4 998.4,257.1 C999,257.8 999.1,258.8 998.4,259.5 L989.2,270.4 L1002.7,257.8 C1003.4,257.1 1004.5,257.1 1005.2,257.8 C1006,258.5 1006,259.7 1005.3,260.5 L993.2,274.2 L1004.2,264.3 C1004.9,263.6 1006,263.7 1006.7,264.4 C1007.4,265.1 1007.4,266.2 1006.7,267 L996.8,277.7 L1005.9,270.8 C1006.5,270.3 1007.5,270.3 1008,270.9 C1008.6,271.5 1008.6,272.5 1008,273.1 L996.7,285.1 C992.7,289.4 988,293.1 982.9,296.1 L981.8,296.7 L961.7,314.4 L948.2,299 L966.1,286 Z" id="路径" fill="#966363" fill-rule="nonzero"></path>
            <path d="M780.9,758.8 L729.5,760.1 L750,745.5 C753.4,743 755.4,739.4 755.5,735.2 L756.4,718.9 L784.3,719 L780.9,758.8 Z" id="路径" fill="#966363" fill-rule="nonzero"></path>
            <path d="M775.2,740 L775.2,739.7 C775.4,737.9 774.1,736.3 772.4,736.1 L755.7,733.7 L755.9,730.5 L783.6,730.5 L781.1,757.7 L758.7,755.2 L766.1,752.3 C771.1,750.2 774.7,745.5 775.2,740 Z" id="路径" fill="#000000" fill-rule="nonzero" opacity="0.15"></path>
            <polygon id="路径" fill="#966363" fill-rule="nonzero" points="873.4 757.8 850.3 757.8 846 718.7 873.3 718.8"></polygon>
            <path d="M867.6,751.2 L867,739.2 C866.9,737.6 865.7,736.4 864.2,736.1 L847.6,733.6 L847.2,730.3 L873.2,730.4 L873.3,758.1 L867.6,751.2 Z" id="路径" fill="#000000" fill-rule="nonzero" opacity="0.15"></path>
            <path d="M869.8,424.4 L874.9,730.4 L844.9,730.4 L818.8,469.8 C818.6,468.1 817.2,466.8 815.5,466.8 C813.8,466.8 812.4,468.1 812.3,469.8 L784.5,730.4 L754.5,730.4 L761.4,424.4 L869.8,424.4 Z" id="路径" fill="#42D392" fill-rule="nonzero"></path>
            <path d="M869.8,424.4 L874.9,730.4 L844.9,730.4 L818.8,469.8 C818.6,468.1 817.2,466.8 815.5,466.8 C813.8,466.8 812.4,468.1 812.3,469.8 L784.5,730.4 L754.5,730.4 L761.4,424.4 L869.8,424.4 Z" id="路径" fill="#3F4249" fill-rule="nonzero" opacity="0.2"></path>
            <polygon id="路径" fill="#42D392" fill-rule="nonzero" points="875.7 730.4 843.7 730.4 843.1 723.9 875.6 723.9"></polygon>
            <polygon id="路径" fill="#000000" fill-rule="nonzero" opacity="0.15" points="875.7 730.4 862.3 730.4 862 723.9 875.6 723.9"></polygon>
            <path d="M766.5,726.8 L796.1,480.7 C797,472.8 803.8,466.8 811.7,466.8 L815.4,466.8 C813.7,466.8 812.3,468.1 812.2,469.8 L784.6,729 L766.5,726.8 Z" id="路径" fill="#000000" fill-rule="nonzero" opacity="0.15"></path>
            <polygon id="路径" fill="#42D392" fill-rule="nonzero" points="785.2 730.4 753.3 730.4 753.8 723.9 785.9 723.9"></polygon>
            <polygon id="路径" fill="#000000" fill-rule="nonzero" opacity="0.15" points="785.2 730.4 766.2 730.4 766.9 723.9 785.9 723.9"></polygon>
            <polygon id="路径" fill="#000000" fill-rule="nonzero" opacity="0.15" points="869.8 424.4 875 723.7 862.1 723.8 855.9 410.8"></polygon>
            <path d="M795.8,211.1 C790.3,210.9 786,206.2 786.3,200.8 C786.5,195.3 791.2,191 796.6,191.3 C796.9,191.3 797.7,191.1 797.6,191.4 C795.4,200 798,211.1 795.8,211.1 Z" id="路径" fill="#21252B" fill-rule="nonzero"></path>
            <path d="M840,250.4 C840,250.9 827.6,278.1 818.5,278.5 C810.6,278.9 805.6,253.3 805.7,252.8 L806.3,239.5 L806.3,232.6 C805.9,231 804,229.5 804,227.4 C803.4,217.7 802.3,208.9 802.3,208.9 C802.3,208.9 834,187.7 836,212.4 L836.8,216 L840,250.4 Z" id="路径" fill="#966363" fill-rule="nonzero"></path>
            <path d="M797.5,179.9 C797.5,179.9 786.2,238.2 813.1,241 C836.4,243.4 837.9,207.1 837.9,207.1 L836.1,183.7 L818,177.1 L797.5,179.9 Z" id="路径" fill="#966363" fill-rule="nonzero"></path>
            <path d="M805.2,193.8 C807.9,190 812.4,187.2 817.2,187.3 C822.6,187.4 827,191.7 826.5,198 L826.4,199.4 C826.3,200.7 827.3,201.9 828.6,202 C831.1,202.1 833.1,204.1 833,206.6 L832.9,210.7 C832.9,211.2 833.3,211.6 833.8,211.6 C833.8,211.6 835,211.8 835.2,210.8 L835.8,206.4 L831.6,181.6 L811,176.2 L802.4,183.5 L805.2,193.8 Z" id="路径" fill="#21252B" fill-rule="nonzero"></path>
            <path d="M836.8,216.1 C836.8,216.1 835.2,216 833.9,213.9 L837.1,219.4 L836.8,216.1 Z" id="路径" fill="#000000" fill-rule="nonzero" opacity="0.15"></path>
            <path d="M828.4,235.4 C826.3,237.9 822.8,241 817.2,241.8 C813.1,244.7 808.6,245.3 806.1,245.2 L806.4,238.6 L807.3,239.1 C810.2,240.6 814.4,241.6 819.1,240.3 C823.2,239.2 825.9,236.8 827.6,234.7 C827.7,234.5 828.1,234.5 828.3,234.6 C828.5,234.9 828.5,235.2 828.4,235.4 Z" id="路径" fill="#000000" fill-rule="nonzero" opacity="0.15"></path>
            <path d="M807.7,225.4 L818.4,222.9 C818.4,222.9 818.7,227.1 814.4,228.3 C809.3,229.6 807.7,225.4 807.7,225.4 Z" id="路径" fill="#FFFFFF" fill-rule="nonzero"></path>
            <path d="M817.2,211.6 C818.42,211.6 819.4,210.615 819.4,209.4 C819.4,208.185 818.42,207.2 817.2,207.2 C815.99,207.2 815,208.185 815,209.4 C815,210.615 815.99,211.6 817.2,211.6 Z" id="路径" fill="#21252B" fill-rule="nonzero"></path>
            <path d="M816.2,209.2 C816.42,209.2 816.6,209.021 816.6,208.8 C816.6,208.579 816.42,208.4 816.2,208.4 C815.98,208.4 815.8,208.579 815.8,208.8 C815.8,209.021 815.98,209.2 816.2,209.2 Z" id="路径" fill="#FFFFFF" fill-rule="nonzero"></path>
            <path d="M800.1,212.2 C801.32,212.2 802.3,211.215 802.3,210 C802.3,208.785 801.32,207.8 800.1,207.8 C798.89,207.8 797.9,208.785 797.9,210 C797.9,211.215 798.89,212.2 800.1,212.2 Z" id="路径" fill="#21252B" fill-rule="nonzero"></path>
            <path d="M799.2,209.7 C799.42,209.7 799.6,209.521 799.6,209.3 C799.6,209.079 799.42,208.9 799.2,208.9 C798.98,208.9 798.8,209.079 798.8,209.3 C798.8,209.521 798.98,209.7 799.2,209.7 Z" id="路径" fill="#FFFFFF" fill-rule="nonzero"></path>
            <g id="编组" opacity="0.3" transform="translate(805.493683, 217.000000)" fill="#000000" fill-rule="nonzero">
                <path d="M2.40631668,5.1 L5.20631668,5.2 C5.50631668,5.2 5.80631668,4.9 5.90631668,4.6 C5.90631668,4.3 5.60631668,4 5.30631668,3.9 L2.50631668,3.8 C1.80631668,3.7 1.20631668,3.1 1.30631668,2.5 C1.40631668,1.8 2.00631668,1.2 2.60631668,1.3 C2.90631668,1.3 3.20631668,1 3.30631668,0.7 C3.40631668,0.4 3.00631668,0.1 2.70631668,0 C1.30631668,0 0.10631668,1 0.00631667954,2.4 C-0.0936833205,3.9 1.00631668,5 2.40631668,5.1 Z" id="路径"></path>
            </g>
            <path d="M790.8,207.8 L790.9,210.2 C791,214.8 794.9,218.5 799.6,218.4 C804.2,218.3 807.9,214.4 807.8,209.7 L807.7,207.3 C807.7,206.6 807.5,205.9 807,205.4 L810.3,205.3 C809.9,205.8 809.6,206.5 809.7,207.2 L809.8,209.6 C809.9,214.2 813.8,217.9 818.5,217.8 C823.1,217.7 826.8,213.8 826.7,209.1 L826.6,206.7 C826.5,205 825.1,203.6 823.4,203.7 L812.8,204 L812.7,204 L804.5,204.2 L803.2,204.2 L793.8,204.5 C792.1,204.6 790.8,206.1 790.8,207.8 Z M812.6,205.3 L823.3,205 C824.3,205 825.2,205.8 825.2,206.8 L825.3,209.2 C825.4,213.2 822.2,216.4 818.3,216.6 C814.3,216.7 811.1,213.5 810.9,209.6 L810.8,207.2 C810.9,206.2 811.7,205.4 812.6,205.3 Z M792,207.8 C792,206.8 792.8,205.9 793.8,205.9 L803.2,205.6 L804.5,205.6 C805.5,205.6 806.4,206.4 806.4,207.4 L806.5,209.8 C806.6,213.8 803.4,217 799.5,217.2 C795.5,217.3 792.3,214.1 792.1,210.2 L792,207.8 Z" id="形状" fill="#21252B" fill-rule="nonzero"></path>
            <path d="M711,767.3 L711,766.2 C711,762.5 714,759.6 717.6,759.6 L726.8,759.6 C728.7,759.6 730.6,758.9 732,757.5 L755.5,735.2 L762.8,744.8 C765.2,748 770.1,748.1 772.6,745 C773.8,743.6 775.6,742.7 777.4,742.7 L782.3,742.7 L782.3,766.9 L711,767.3 Z" id="路径" fill="#3F4249" fill-rule="nonzero"></path>
            <polygon id="路径" fill="#000000" fill-rule="nonzero" points="711 767.3 711 770.9 782.5 770.9 782.5 766.9"></polygon>
            <path d="M760.2,741.2 L744.3,754.1 C742.5,755.5 740,755.4 738.4,753.8 L737.2,752.6 L755.5,735.2 C756.5,734.9 757.5,735.3 758.1,736.1 L760,738.8 C760.5,739.4 760.6,740.2 760.3,741 L760.2,741.2 Z" id="路径" fill="#000000" fill-rule="nonzero"></path>
            <path d="M853.3,740.1 L851.4,740.1 C849.6,740.1 848.1,741.4 847.9,743.2 L847.5,750.4 C847.4,752.6 846.8,754.8 845.8,756.8 L845.1,758.1 C843.8,760.6 843.2,763.4 843.2,766.2 L843.2,767.5 L879.8,767.5 C879.8,763.9 878.7,760.5 876.7,757.5 C875.2,755.3 874.3,752.8 874,750.1 L873.2,742.9 C872.9,741.3 871.4,740.1 869.7,740.1 L868.4,740.1" id="路径" fill="#3F4249" fill-rule="nonzero"></path>
            <polygon id="路径" fill="#000000" fill-rule="nonzero" points="879.6 767.4 843.1 767.4 843.1 770.9 879.6 770.9"></polygon>
            <path d="M858.1,736.8 L863.5,736.8 C866.2,736.8 868.4,739.2 868,741.9 L866.8,751.7 C866.4,754.7 863.8,757 860.8,757 C857.7,757 855.1,754.7 854.8,751.6 L853.7,741.8 C853.3,739.1 855.4,736.8 858.1,736.8 Z" id="路径" fill="#000000" fill-rule="nonzero"></path>
            <line x1="851.1" y1="743.3" x2="870.5" y2="743.3" id="路径" stroke="#FFFFFF" stroke-width="1.3154" stroke-linecap="round" stroke-linejoin="round"></line>
            <line x1="851.7" y1="747.9" x2="869.9" y2="747.9" id="路径" stroke="#FFFFFF" stroke-width="1.3154" stroke-linecap="round" stroke-linejoin="round"></line>
            <line x1="852.2" y1="752.4" x2="869.4" y2="752.4" id="路径" stroke="#FFFFFF" stroke-width="1.3154" stroke-linecap="round" stroke-linejoin="round"></line>
            <line x1="742" y1="745.8" x2="749.1" y2="752.5" id="路径" stroke="#FFFFFF" stroke-width="1.3154" stroke-linecap="round" stroke-linejoin="round"></line>
            <line x1="745.8" y1="742.3" x2="753.1" y2="749.2" id="路径" stroke="#FFFFFF" stroke-width="1.3154" stroke-linecap="round" stroke-linejoin="round"></line>
            <line x1="749.7" y1="739" x2="756.9" y2="745.8" id="路径" stroke="#FFFFFF" stroke-width="1.3154" stroke-linecap="round" stroke-linejoin="round"></line>
            <line x1="763.2" y1="430" x2="856.7" y2="430" id="路径" stroke="#000000" stroke-width="1.4907" opacity="0.3" stroke-linecap="round" stroke-linejoin="round"></line>
            <path d="M974.7,304.8 L915.4,361.3 C909.5,366.9 899.9,365.6 895.8,358.6 L874.9,319.2 L871.5,421.9 C871.5,423.3 870.3,424.4 868.9,424.4 L761.3,424.4 C760.7,424.4 760.2,423.9 760.1,423.3 L754.1,297.2 L706.5,320.1 C700.6,323 693.4,320.7 690.2,314.9 L647.4,238 L663.9,226.6 L705.8,278.5 L751.2,255.3 C754.8,253.5 758.7,252.3 762.7,252 L806,247.9 L818.5,271.7 L839.4,248 L876.7,257.9 C884.4,259.9 890.8,265.2 894.3,272.3 L917.8,319.8 L960.2,289.5 L974.7,304.8 Z" id="路径" fill="#21252B" fill-rule="nonzero"></path>
            <path d="M977,272.6 C977,272.6 982.2,276.9 978.5,285.4" id="路径" stroke="#000000" stroke-width="1.403" opacity="0.15"></path>
            <path d="M843.1,190.9 C842.3,184.6 839,179.9 833.5,178.7 C831,178.2 828.6,178.4 826.5,179 C825.6,179.3 824.7,178.7 824.5,177.9 C823.4,173.7 819.7,170.6 815.2,170.6 C812,170.6 809.2,172.1 807.5,174.5 C806.9,175.3 805.9,175.4 805.2,174.8 C805.2,174.8 798.8,169.7 790.4,174.9 C784.8,178.4 782.4,186 785.7,192.6 C789.1,199.3 797.9,201.3 803.3,196.2 C805.2,194.4 806.7,191.7 807,187.7 C807.2,185.4 807.1,183.1 806.4,181.1 L809.2,181.1 C812.5,180.9 817.7,180.3 822.6,181 C822.5,181.1 822.4,181.1 822.3,181.2 L831,184.1 C831,184.1 833.7,207.1 835.1,206.9 C841.2,205.6 843.9,196.6 843.1,190.9 Z" id="路径" fill="#21252B" fill-rule="nonzero"></path>
            <path d="M798.6,200.1 L801.3,199.5 C801.5,199.4 801.8,199.1 801.7,198.8 C801.6,198.5 801.3,198.3 801,198.4 L798.3,199 C798,199.1 797.6,199.1 797.3,199.2 C796.6,199.2 795.2,199.2 793.8,198.7 C793.5,198.6 793.2,198.8 793.1,199.1 C793,199.4 793.2,199.7 793.5,199.8 C795,200.2 796.6,200.3 797.3,200.3 C797.7,200.2 798.1,200.1 798.6,200.1 Z" id="路径" fill="#966363" fill-rule="nonzero"></path>
            <path d="M817.1,272.5 L808.8,265 L819.3,263.3 L829.3,265.8 L820.2,272.6 C819.2,273.4 817.9,273.3 817.1,272.5 Z" id="路径" fill="#FFFFFF" fill-rule="nonzero"></path>
            <path d="M819.3,263.3 L835.3,267.3 L842.8,248.9 L842.4,243.8 C842.3,243.1 841.7,242.6 841,242.6 L839.3,242.6 L839.8,247.8 L819.3,263.3 Z" id="路径" fill="#FFFFFF" fill-rule="nonzero"></path>
            <path d="M806,247.9 L806.2,243.6 L804.9,243.6 C804,243.6 803.3,244.3 803.3,245.1 L803.1,265.9 L819.3,263.2 L806,247.9 Z" id="路径" fill="#FFFFFF" fill-rule="nonzero"></path>
            <polyline id="路径" stroke="#000000" stroke-width="0.7398" opacity="0.15" points="832.8 267 819.2 263.6 804.8 266"></polyline>
            <polygon id="路径" fill="#FFFFFF" fill-rule="nonzero" points="965.3 286.6 978.4 300 974.1 304.2 960.7 290"></polygon>
            <path d="M835.8,204.4 C835.8,204.4 836.7,200.1 841.3,201.4 C846.5,202.9 845.6,213.4 838.7,215.8 C834.4,216.7 835,214.1 835.3,210.6 C835.8,204.4 835.8,204.4 835.8,204.4 Z" id="路径" fill="#966363" fill-rule="nonzero"></path>
            <path d="M841.9,204.3 C841,203.8 840.1,203.7 839.4,204 C838.7,204.3 838.1,204.8 837.7,205.7 C837.3,206.6 837.1,207.7 837.3,208.8 L837.3,209.7 C837.3,210 837.6,210.2 837.9,210.1 C838.2,210.1 838.4,209.8 838.3,209.5 L838.3,208.6 C838.3,208.3 838.2,206.9 838.6,206 C838.9,205.4 839.3,205 839.7,204.8 C840.1,204.7 840.7,204.7 841.3,205 C841.5,205.1 841.9,205 842,204.8 C842.2,204.8 842.1,204.5 841.9,204.3 Z" id="路径" fill="#000000" fill-rule="nonzero" opacity="0.3"></path>
            <path d="M917.8,319.8 L913.4,310.9 L910.2,321.7 C909.8,323.1 911.3,324.2 912.5,323.4 L917.8,319.8 Z" id="路径" fill="#000000" fill-rule="nonzero" opacity="0.4"></path>
            <path d="M705.8,278.5 L708.3,281.4 C709.1,282.3 710.5,282.3 711.3,281.4 L721.1,270.7 L705.8,278.5 Z" id="路径" fill="#000000" fill-rule="nonzero" opacity="0.4"></path>
            <path d="M754.2,297.2 L757.6,295.6 C758.1,295.3 758.7,295.9 758.4,296.4 L754.5,305 L754.2,297.2 Z" id="路径" fill="#000000" fill-rule="nonzero"></path>
            <path d="M758.1,380.8 L873,380.8 L871.7,421.8 C871.7,423.3 870.4,424.5 868.9,424.5 L761.3,424.5 C760.7,424.5 760.2,424 760.1,423.4 L758.1,380.8 Z" id="路径" fill="#858990" fill-rule="nonzero"></path>
            <polygon id="路径" fill="#3F4249" fill-rule="nonzero" points="755.7 330.2 874.6 330.2 873 380.8 758.1 380.8"></polygon>
            <path d="M875,319.2 L872.7,313.9 C871.5,311.3 867.7,311.9 867.4,314.8 L856.7,424.5 L868.8,424.5 C870.4,424.5 871.7,423.2 871.7,421.7 L875,319.2 Z" id="路径" fill="#000000" fill-rule="nonzero" opacity="0.4"></path>
            <path d="M179.8,617.7 L137.8,442.6 C136.5,437.3 140.5,432.3 146,432.3 L134.6,432.3 C129.2,432.3 125.2,437.4 126.4,442.6 L168.4,617.7 L304.8,618 L179.8,617.7 Z" id="路径" fill="#858990" fill-rule="nonzero"></path>
            <path d="M206.5,603.2 L174.4,460.4 C174.3,459.9 173.8,459.5 173.3,459.5 L171.4,459.5 C171.9,459.6 172.2,459.9 172.3,460.3 L204.4,603.1 C204.6,603.8 204,604.5 203.3,604.5 L201.7,604.5 C201.8,604.5 201.8,604.5 201.9,604.5 L205.3,604.4 C206.1,604.6 206.7,603.9 206.5,603.2 Z" id="路径" fill="#858990" fill-rule="nonzero"></path>
            <path d="M269.6,438.6 C268.7,434.9 265.3,432.2 261.5,432.2 L146,432.2 C140.6,432.2 136.6,437.3 137.8,442.5 L179.8,617.6 L313.8,617.9 L269.6,438.6 Z M205.4,604.6 L202,604.7 C201.5,604.7 201,604.3 200.9,603.8 L168.8,460.9 C168.6,460.2 169.2,459.6 169.9,459.6 L173.4,459.6 C173.9,459.6 174.4,460 174.5,460.5 L206.6,603.3 C206.7,603.9 206.1,604.6 205.4,604.6 Z" id="形状" fill="#B1B5BA" fill-rule="nonzero"></path>
            <path d="M269.9,435.8 C271.1,436.6 272.8,436.7 274.6,436.4 C282,435.2 287.6,434.2 288.2,426.7 C289,414.9 286.5,388.8 277.1,373.9 C270.7,377.2 269.7,378.7 269.7,378.7 C269.7,378.7 260.2,375.8 260,375.7 C260,375.6 256.9,427.3 269.9,435.8 Z" id="路径" fill="#21252B" fill-rule="nonzero"></path>
            <path d="M246.6,428.2 L241.3,365.3 C238.1,364.8 233,369 231.5,370.7 C219.5,384.4 216.6,412.7 218.3,431.6 C218.9,438.9 223.6,439.9 230.8,441.3 C238,442.7 246.4,443.4 249.5,439.8 C251,437.9 246.6,428.2 246.6,428.2 Z" id="路径" fill="#21252B" fill-rule="nonzero"></path>
            <path d="M427.4,558.9 C426.2,550.8 419.4,545 411.4,544.9 L402.7,544.9 L399.3,545.7 L399.3,546.2 L325.3,555.6 C316,556.8 308.4,563.4 306,572.6 L254.4,770.9 L266.8,770.9 L317.6,575.6 C318.7,571.3 322.3,568.1 326.8,567.5 L410.5,556.8 C412.9,556.5 415.1,558.1 415.5,560.5 L447.5,770.7 L459.7,770.7 L427.4,558.9 Z" id="路径" fill="#B1B5BA" fill-rule="nonzero"></path>
            <path d="M259,770.9 L246.6,770.9 L298.1,572.6 C300.5,563.5 308,556.8 317.4,555.6 L401.1,544.9 C410,543.8 418.1,549.9 419.5,558.8 L451.8,770.9 L439.6,770.9 L407.6,560.7 C407.2,558.3 405.1,556.7 402.6,557 L318.9,567.7 C314.5,568.3 310.9,571.4 309.7,575.8 L259,770.9 Z" id="路径" fill="#858990" fill-rule="nonzero"></path>
            <path d="M460.1,629.8 L278.8,629.8 C275.5,629.8 272.8,627.1 272.8,623.8 C272.8,620.5 275.5,617.8 278.8,617.8 L460.1,617.8 C463.4,617.8 466.1,620.5 466.1,623.8 C466.2,627.1 463.5,629.8 460.1,629.8 Z" id="路径" fill="#B1B5BA" fill-rule="nonzero"></path>
            <path d="M316.6,629.8 L161.8,629.8 C158.5,629.8 155.8,627.1 155.8,623.8 C155.8,620.5 158.5,617.8 161.8,617.8 L316.5,617.8 C319.8,617.8 322.5,620.5 322.5,623.8 C322.6,627.1 319.9,629.8 316.6,629.8 Z" id="路径" fill="#858990" fill-rule="nonzero"></path>
            <path d="M339.9,621.7 C340.7,624.2 340,626.5 338.5,628 C337.4,629.1 335.9,629.8 334.2,629.8 L161.8,629.8 C161,629.8 160.3,629.7 159.6,629.4 L162.6,617.7 L334.1,617.7 C336.7,617.7 339.1,619.3 339.9,621.7 Z" id="路径" fill="#858990" fill-rule="nonzero"></path>
            <path d="M518.2,770.9 L554.8,770.9 C555.4,769.8 557.1,766.5 555,765.8 L530.1,755.1 C525.7,753.6 522.7,752.6 520.1,749.3 C519.6,748.6 519.1,747.8 518.8,747 L499.4,703 L475.5,714.5 L495.8,749.7 C497.6,752.3 498,755.7 498.1,758.8 L498.2,763.8 C498.4,767.6 501.4,770.6 505.1,770.7 L505.2,770.7 L518.2,770.9 Z" id="路径" fill="#F69797" fill-rule="nonzero"></path>
            <path d="M555.5,769.3 C555.2,770 554.9,770.6 554.7,771 L518.1,771 L505,770.8 L504.9,770.8 C501.1,770.7 498.1,767.6 498,763.9 L497.9,758.9 C497.8,755.8 497.3,752.3 495.6,749.8 L488.3,737.2 L488.7,733.7 L498.1,742.4 L506.8,758.7 C506.8,758.7 513.5,767.8 533.5,768.6 C553.5,769.3 553.5,769.3 553.5,769.3 L555.5,769.3 Z" id="路径" fill="#000000" fill-rule="nonzero" opacity="0.15"></path>
            <path d="M513.9,735.8 L492.6,744.6 L479.1,722.6 C446.4,674.1 438.5,658.5 425.5,618 L308.8,618 C292.5,618 279.3,604.9 279,588.7 L278.7,570.1 L430.3,570.1 C439.9,570.1 448.6,575.9 452.3,584.8 L513.9,735.8 Z" id="路径" fill="#3F4249" fill-rule="nonzero"></path>
            <path d="M477,703.3 C451.2,658.9 444.5,622.5 432.3,585.8 C431.5,583.3 427.6,570 412.7,570 L350.1,570 C334.7,569.6 326.1,593.3 313.3,584.8 L281.9,570 L278.8,570 L279.1,588.6 C279.4,604.9 292.6,617.9 308.9,617.9 L425.6,617.9 C439.6,659.7 446.6,674.3 479.2,722.5 L492.7,744.4 L498.2,742.1 C498.1,742.3 481.7,711.3 477,703.3 Z" id="路径" fill="#000000" fill-rule="nonzero" opacity="0.2"></path>
            <path d="M527.2,754.1 L520.7,755.1 C512.6,756.4 504.2,755.2 496.7,751.9 L498.1,766.7 C498.4,769.1 500.4,770.9 502.9,770.9 L556.4,770.9 C559,770.9 559.6,767.3 557.1,766.5 L527.2,754.1 Z" id="路径" fill="#42D392" fill-rule="nonzero"></path>
            <path d="M558.3,769.9 L513.4,767.2 C509.9,767 507,762.3 505.9,758.9 L504.6,754.6 C501.9,754 499.2,753.1 496.7,752 L498.1,766.8 C498.4,769.2 500.4,771 502.9,771 L556.4,771 C557.3,770.9 558,770.5 558.3,769.9 Z" id="路径" fill="#000000" fill-rule="nonzero" opacity="0.2"></path>
            <path d="M471.3,770.9 L507.9,770.9 C508.5,769.8 510.2,766.5 508.1,765.8 L483.2,755.1 C478.8,753.6 475.8,752.6 473.2,749.3 C472.7,748.6 472.2,747.8 471.9,747 L452.5,703 L428.6,714.5 L448.9,749.7 C450.7,752.3 451.1,755.7 451.2,758.8 L451.3,763.8 C451.5,767.6 454.5,770.6 458.2,770.7 L458.3,770.7 L471.3,770.9 Z" id="路径" fill="#F69797" fill-rule="nonzero"></path>
            <path d="M508.6,769.3 C508.3,770 508,770.6 507.8,771 L471.2,771 L458.1,770.8 L458,770.8 C454.2,770.7 451.2,767.6 451.1,763.9 L451,758.9 C450.9,755.8 450.4,752.3 448.7,749.8 L441.4,737.2 L441.8,733.7 L452.9,741.7 L459.9,758.7 C459.9,758.7 466.6,767.8 486.6,768.6 C506.6,769.3 506.6,769.3 506.6,769.3 L508.6,769.3 Z" id="路径" fill="#000000" fill-rule="nonzero" opacity="0.15"></path>
            <path d="M435.6,379 L446.3,375.2 C447.4,374.9 448.3,374.4 449.2,373.7 L459.6,366.2 C459.8,366 459.9,365.7 459.7,365.4 C458.2,363.7 455.7,363.1 453.7,364.1 L449.6,365.9 C448.6,366.3 447.5,366.3 446.5,365.7 C445.5,365.1 444.8,364 444.8,362.9 L444.2,350.5 C444.2,350 444.3,349.4 444.6,348.9 L451.1,338.2 C451.7,337.2 451.3,335.9 450.3,335.4 C449.5,335 448.6,335.2 448,335.8 C445.2,338.7 437.5,346.8 437.5,346.8 L436.5,356.7 L444.2,339.8 L436.2,345.9 C433.2,348.2 431,351.3 429.7,354.8 L424.4,369.9 L396.6,394.5 L385.7,432.9 L435.6,379 Z" id="路径" fill="#F69797" fill-rule="nonzero"></path>
            <polygon id="路径" fill="#000000" fill-rule="nonzero" opacity="0.15" points="437.6 347.3 437.6 347.2 441.8 341.5 443.9 339.9 438.4 347.7 436.4 353.4 435.6 353.1"></polygon>
            <path d="M436.7,352.7 L438.4,347.7 L443.9,339.9 L435.9,346 C432.9,348.3 430.7,351.4 429.4,354.9 C429.5,355 432,352.6 436.7,352.7 Z" id="路径" fill="#000000" fill-rule="nonzero" opacity="0.15"></path>
            <path d="M436.3,345.8 L433.4,350 L432.3,354.3 L431.5,354.3 L432.6,349.2 C432.6,349.2 433.8,347.7 434.7,347 L436.3,345.8 Z" id="路径" fill="#000000" fill-rule="nonzero" opacity="0.15"></path>
            <path d="M293.1,433.9 L364.8,423.3 L415.8,377.4 L418.5,421.9 L374.7,445.8 C373.5,446.5 372.2,447 370.9,447.3 L298.3,465.9" id="路径" fill="#42D392" fill-rule="nonzero"></path>
            <path d="M304.9,432.3 L263.8,477.5 L214.9,448.1 L238.1,441.1 C238.3,441 238.5,441 238.7,440.9 C241.2,439.8 242.6,437 242.2,434.3 L239.6,410.7 L263.9,399.2 L269.5,423.2 L270.4,427.1 L271.7,432.5 C272.4,435.4 275.2,436.6 277.9,436.3 L304.9,432.3 Z" id="路径" fill="#F69797" fill-rule="nonzero"></path>
            <path d="M467,735.8 L445.7,744.6 L432.2,722.7 C399.5,674.2 391.6,658.6 378.6,618.1 L261.9,618.1 C245.6,618.1 232.4,605 232.1,588.8 L231.8,570.2 L383.4,570.2 C393,570.2 401.7,576 405.4,584.9 L467,735.8 Z" id="路径" fill="#3F4249" fill-rule="nonzero"></path>
            <path d="M432.2,703 C406.4,658.6 405.4,646.8 393.8,609.9 C390.6,599.7 383.3,597.5 378.1,597.5 L312.1,597.8 C296.7,597.4 270,599 257.3,590.4 L235.1,570.1 L232,570.1 L232.3,588.7 C232.6,605 245.8,618 262.1,618 L378.8,618 C392.8,659.8 399.8,674.4 432.4,722.6 L445.9,744.5 L453.1,741.5 C453,741.6 436.8,711 432.2,703 Z" id="路径" fill="#000000" fill-rule="nonzero" opacity="0.2"></path>
            <path d="M202.7,452.1 L230,443.3 L235.9,447.7 C251.7,459.6 274.3,454.4 283.3,436.8 L284.1,435.2 L327,428.8 L327,448.1 L327,456.5 L298.4,465.9 L295.8,461.2 L304,475.2 C308.4,482.6 308.8,491.7 305.2,499.5 L302.7,504.9 C302.1,506.2 301.8,507.5 301.9,508.9 L302.7,525.9 C303.1,534.7 306,543.2 311,550.5 L324.3,570 L319.3,570 C300.7,570 282.4,575.1 266.4,584.8 L241.6,599.8 C233.6,604.7 223.7,597.5 225.8,588.3 L226.8,584 C230.6,567.9 231,551.2 228.2,535 L218.4,488.9 L189.8,489.9 L188,483.3 C184,470.4 189.7,456.3 202.7,452.1 Z" id="路径" fill="#42D392" fill-rule="nonzero"></path>
            <path d="M269,565.7 L269.4,565.3 C268.4,564.3 268.4,562.6 269.4,561.6 L269,561.2 C268,562.2 266.3,562.2 265.3,561.2 L264.9,561.6 C265.9,562.6 265.9,564.3 264.9,565.3 L265.3,565.7 C266.3,564.6 268,564.6 269,565.7 Z" id="路径" fill="#42D392" fill-rule="nonzero"></path>
            <path d="M220.2,482.9 C221,482.7 221.9,483.3 222,484.1 L229,511.3 C229.9,515.2 232.5,520.3 236,522.4 C244.1,527.3 253.4,523.3 253.4,523.3 C254.7,522.8 256,523.9 255.7,525.2 L253,536.6 C244.9,559 247.2,584 257.3,590.4 L241.8,599.8 C233.8,604.7 223.9,597.5 226,588.3 L227,584 C230.8,567.9 231.2,551.2 228.4,535 L219,484.8 C218.7,483.9 219.3,483.1 220.2,482.9 Z" id="路径" fill="#000000" fill-rule="nonzero" opacity="0.3"></path>
            <path d="M310.8,565.7 L311.2,565.3 C310.2,564.3 310.2,562.6 311.2,561.6 L310.8,561.2 C309.8,562.2 308.1,562.2 307.1,561.2 L306.7,561.6 C307.7,562.6 307.7,564.3 306.7,565.3 L307.1,565.7 C308.1,564.6 309.7,564.6 310.8,565.7 Z" id="路径" fill="#42D392" fill-rule="nonzero"></path>
            <path d="M302.6,504.9 C300,509.3 295.3,512 290.2,511.9 L302.1,514.4 L301.8,508.9 C301.8,508.9 301.7,506.6 302.6,504.9 Z" id="路径" fill="#000000" fill-rule="nonzero" opacity="0.3"></path>
            <path d="M417.8,409.7 L371,440 L295.9,457.6 C294.6,458 294.1,459.6 294.9,460.7 L298.4,466 L371.7,447.2 C372.6,447 373.5,446.6 374.3,446.2 L418.7,422 L417.8,409.7 Z" id="路径" fill="#000000" fill-rule="nonzero" opacity="0.3"></path>
            <path d="M342.1,562.2 L331.4,552.7 C330,551.5 329.2,551.2 327.4,551 L310.1,552.5 L281.5,550.5 L271.5,563.9 L296.4,565.5 L298.8,566.4 C302.8,568 307.3,567.9 311.2,566 L311.3,566 L314.6,564.4 C315.4,564 316.4,564 317.2,564.3 L325.7,567.8 C326.1,568 326.6,567.9 327,567.6 C327.7,567.1 327.7,565.9 327,565.4 L320.7,560.7 L330.1,567.5 C330.5,567.8 331.1,567.9 331.6,567.7 C332.6,567.3 332.9,566 332.1,565.2 L325.4,558.6 L334.2,567.2 C334.7,567.6 335.3,567.8 335.9,567.5 C337,567.1 337.3,565.7 336.6,564.9 L330,557.1 L340.1,564.5 C340.8,565.1 341.9,564.9 342.4,564.2 C342.8,563.9 342.8,562.8 342.1,562.2 Z" id="路径" fill="#F69797" fill-rule="nonzero"></path>
            <path d="M326.9,565.9 C326.8,565.9 326.8,565.9 326.7,565.8 L320.9,561.5 C320.8,561.4 320.7,561.2 320.8,561.1 C320.9,561 321.1,560.9 321.2,561 L327,565.3 C327.1,565.4 327.2,565.6 327.1,565.7 C327,565.8 326.9,565.9 326.9,565.9 Z" id="路径" fill="#000000" fill-rule="nonzero" opacity="0.15"></path>
            <path d="M331.8,565.7 C331.7,565.7 331.6,565.7 331.6,565.6 L325.3,559.4 C325.2,559.3 325.2,559.1 325.3,559 C325.4,558.9 325.6,558.9 325.7,559 L332,565.2 C332.1,565.3 332.1,565.5 332,565.6 C332,565.7 331.9,565.7 331.8,565.7 Z" id="路径" fill="#000000" fill-rule="nonzero" opacity="0.15"></path>
            <path d="M318.9,563.4 C320.8,564.4 324.1,566 325.2,566.7 C326.8,567.6 327.3,566.4 327.3,566.4 C327.4,566.9 327.2,567.5 326.8,567.8 C326.4,568.1 325.9,568.1 325.5,568 L317,564.5 C316.2,564.2 315.2,564.2 314.4,564.6 L316.1,563.6 C317,563 318,563 318.9,563.4 Z" id="路径" fill="#000000" fill-rule="nonzero" opacity="0.15"></path>
            <path d="M188.9,486.6 L207.7,555 C209,559.5 212.6,563.1 217.2,564.3 L267.2,577.7 L289.5,550.5 L232.2,542.1 L218.4,483.9 L188.9,486.6 Z" id="路径" fill="#42D392" fill-rule="nonzero"></path>
            <polygon id="路径" fill="#000000" fill-rule="nonzero" opacity="0.3" points="247.8 544.4 248 543.5 306.6 552 306.5 552.4"></polygon>
            <path d="M280.6,561.3 L297.3,563.2 C298.6,563.3 299.9,563.8 301,564.5 C302.6,565.5 305.6,566.9 309.5,566.8 C309.5,566.8 303.8,569.3 296.4,565.6 L277.3,564.5 L280.6,561.3 Z" id="路径" fill="#000000" fill-rule="nonzero" opacity="0.15"></path>
            <path d="M480.3,754.1 L473.8,755.1 C465.7,756.4 457.3,755.2 449.8,751.9 L451.2,766.7 C451.5,769.1 453.5,770.9 456,770.9 L509.5,770.9 C512.1,770.9 512.7,767.3 510.2,766.5 L480.3,754.1 Z" id="路径" fill="#42D392" fill-rule="nonzero"></path>
            <path d="M511.5,769.9 L466.6,767.2 C463.1,767 460.2,762.3 459.1,758.9 L457.8,754.6 C455.1,754 452.4,753.1 449.9,752 L451.3,766.8 C451.6,769.2 453.6,771 456.1,771 L509.6,771 C510.5,770.9 511.1,770.5 511.5,769.9 Z" id="路径" fill="#000000" fill-rule="nonzero" opacity="0.2"></path>
            <path d="M410.1,391.5 C410.873,391.5 411.5,390.873 411.5,390.1 C411.5,389.327 410.873,388.7 410.1,388.7 C409.327,388.7 408.7,389.327 408.7,390.1 C408.7,390.873 409.327,391.5 410.1,391.5 Z" id="路径" fill="#F4F4F4" fill-rule="nonzero"></path>
            <path d="M396.2,425.7 C396.973,425.7 397.6,425.073 397.6,424.3 C397.6,423.527 396.973,422.9 396.2,422.9 C395.427,422.9 394.8,423.527 394.8,424.3 C394.8,425.073 395.427,425.7 396.2,425.7 Z" id="路径" fill="#F4F4F4" fill-rule="nonzero"></path>
            <path d="M358.1,435.1 C358.873,435.1 359.5,434.473 359.5,433.7 C359.5,432.927 358.873,432.3 358.1,432.3 C357.327,432.3 356.7,432.927 356.7,433.7 C356.7,434.473 357.327,435.1 358.1,435.1 Z" id="路径" fill="#F4F4F4" fill-rule="nonzero"></path>
            <path d="M325.5,456.2 C326.273,456.2 326.9,455.573 326.9,454.8 C326.9,454.027 326.273,453.4 325.5,453.4 C324.727,453.4 324.1,454.027 324.1,454.8 C324.1,455.573 324.727,456.2 325.5,456.2 Z" id="路径" fill="#F4F4F4" fill-rule="nonzero"></path>
            <path d="M284.9,467.1 C285.673,467.1 286.3,466.473 286.3,465.7 C286.3,464.927 285.673,464.3 284.9,464.3 C284.127,464.3 283.5,464.927 283.5,465.7 C283.5,466.473 284.127,467.1 284.9,467.1 Z" id="路径" fill="#F4F4F4" fill-rule="nonzero"></path>
            <path d="M297.8,501.9 C298.573,501.9 299.2,501.273 299.2,500.5 C299.2,499.727 298.573,499.1 297.8,499.1 C297.027,499.1 296.4,499.727 296.4,500.5 C296.4,501.273 297.027,501.9 297.8,501.9 Z" id="路径" fill="#F4F4F4" fill-rule="nonzero"></path>
            <path d="M258.6,492 C259.373,492 260,491.373 260,490.6 C260,489.827 259.373,489.2 258.6,489.2 C257.827,489.2 257.2,489.827 257.2,490.6 C257.2,491.373 257.827,492 258.6,492 Z" id="路径" fill="#F4F4F4" fill-rule="nonzero"></path>
            <path d="M264.7,551.9 C265.473,551.9 266.1,551.273 266.1,550.5 C266.1,549.727 265.473,549.1 264.7,549.1 C263.927,549.1 263.3,549.727 263.3,550.5 C263.3,551.273 263.927,551.9 264.7,551.9 Z" id="路径" fill="#F4F4F4" fill-rule="nonzero"></path>
            <path d="M287.8,571.4 C288.573,571.4 289.2,570.773 289.2,570 C289.2,569.227 288.573,568.6 287.8,568.6 C287.027,568.6 286.4,569.227 286.4,570 C286.4,570.773 287.027,571.4 287.8,571.4 Z" id="路径" fill="#F4F4F4" fill-rule="nonzero"></path>
            <path d="M291.6,532.2 C292.373,532.2 293,531.573 293,530.8 C293,530.027 292.373,529.4 291.6,529.4 C290.827,529.4 290.2,530.027 290.2,530.8 C290.2,531.573 290.827,532.2 291.6,532.2 Z" id="路径" fill="#F4F4F4" fill-rule="nonzero"></path>
            <path d="M255.7,525.8 C256.473,525.8 257.1,525.173 257.1,524.4 C257.1,523.627 256.473,523 255.7,523 C254.927,523 254.3,523.627 254.3,524.4 C254.3,525.173 254.927,525.8 255.7,525.8 Z" id="路径" fill="#F4F4F4" fill-rule="nonzero"></path>
            <path d="M196.7,460.4 C197.473,460.4 198.1,459.773 198.1,459 C198.1,458.227 197.473,457.6 196.7,457.6 C195.927,457.6 195.3,458.227 195.3,459 C195.3,459.773 195.927,460.4 196.7,460.4 Z" id="路径" fill="#F4F4F4" fill-rule="nonzero"></path>
            <path d="M241.5,459 C242.273,459 242.9,458.373 242.9,457.6 C242.9,456.827 242.273,456.2 241.5,456.2 C240.727,456.2 240.1,456.827 240.1,457.6 C240.1,458.373 240.727,459 241.5,459 Z" id="路径" fill="#F4F4F4" fill-rule="nonzero"></path>
            <path d="M203.2,516.5 C203.973,516.5 204.6,515.873 204.6,515.1 C204.6,514.327 203.973,513.7 203.2,513.7 C202.427,513.7 201.8,514.327 201.8,515.1 C201.8,515.873 202.427,516.5 203.2,516.5 Z" id="路径" fill="#F4F4F4" fill-rule="nonzero"></path>
            <path d="M218.6,486.2 C219.373,486.2 220,485.573 220,484.8 C220,484.027 219.373,483.4 218.6,483.4 C217.827,483.4 217.2,484.027 217.2,484.8 C217.2,485.573 217.827,486.2 218.6,486.2 Z" id="路径" fill="#F4F4F4" fill-rule="nonzero"></path>
            <path d="M229.4,540.7 C230.173,540.7 230.8,540.073 230.8,539.3 C230.8,538.527 230.173,537.9 229.4,537.9 C228.627,537.9 228,538.527 228,539.3 C228,540.073 228.627,540.7 229.4,540.7 Z" id="路径" fill="#F4F4F4" fill-rule="nonzero"></path>
            <path d="M233.8,592.5 C234.573,592.5 235.2,591.873 235.2,591.1 C235.2,590.327 234.573,589.7 233.8,589.7 C233.027,589.7 232.4,590.327 232.4,591.1 C232.4,591.873 233.027,592.5 233.8,592.5 Z" id="路径" fill="#F4F4F4" fill-rule="nonzero"></path>
            <path d="M249.2,565.8 C249.973,565.8 250.6,565.173 250.6,564.4 C250.6,563.627 249.973,563 249.2,563 C248.427,563 247.8,563.627 247.8,564.4 C247.8,565.173 248.427,565.8 249.2,565.8 Z" id="路径" fill="#F4F4F4" fill-rule="nonzero"></path>
            <path d="M304.9,436.5 C305.673,436.5 306.3,435.873 306.3,435.1 C306.3,434.327 305.673,433.7 304.9,433.7 C304.127,433.7 303.5,434.327 303.5,435.1 C303.5,435.873 304.127,436.5 304.9,436.5 Z" id="路径" fill="#F4F4F4" fill-rule="nonzero"></path>
            <path d="M193.3,474.1 L211.6,541.8 C213.8,549.5 220.2,554.1 228.6,555.5 L280.7,561.3 L267.2,577.7 L217.4,564.4 C212.7,563.1 209,559.5 207.7,554.8 L188.1,483.2 C184.5,469.3 189.8,456.2 202.8,452 C194,455.7 191,465 193.3,474.1 Z" id="路径" fill="#000000" fill-rule="nonzero" opacity="0.3"></path>
            <polygon id="路径" fill="#858990" fill-rule="nonzero" points="182.6 621 192.8 581.9 194.2 581.9 184.2 621"></polygon>
            <polygon id="路径" fill="#000000" fill-rule="nonzero" opacity="0.3" points="302.1 617.7 303.9 629.8 297.9 629.8 296.2 617.7"></polygon>
            <path d="M157.6,619.5 C158.7,618.4 160.2,617.7 161.9,617.7 L162.7,617.7 L159.7,629.4" id="路径" fill="#000000" fill-rule="nonzero" opacity="0.3"></path>
            <path d="M297.1,566.6 L358.5,566.6 C359,566.6 359.4,567 359.4,567.5 L359.4,569.1 C359.4,569.6 359,570 358.5,570 L297.1,570 C296.6,570 296.2,569.6 296.2,569.1 L296.2,567.5 C296.2,567 296.5,566.6 297.1,566.6 Z" id="路径" fill="#21252B" fill-rule="nonzero"></path>
            <path d="M297.1,566.6 L358.5,566.6 C359,566.6 359.4,567 359.4,567.5 L359.4,569.1 C359.4,569.6 359,570 358.5,570 L297.1,570 C296.6,570 296.2,569.6 296.2,569.1 L296.2,567.5 C296.2,567 296.5,566.6 297.1,566.6 Z" id="路径" fill="#000000" fill-rule="nonzero" opacity="0.6"></path>
            <path d="M338.5,566.6 L445.6,566.6 C446.1,566.6 446.5,567 446.5,567.5 L446.5,569.1 C446.5,569.6 446.1,570 445.6,570 L338.5,570 C338,570 337.6,569.6 337.6,569.1 L337.6,567.5 C337.6,567 338,566.6 338.5,566.6 Z" id="路径" fill="#21252B" fill-rule="nonzero"></path>
            <g id="编组" opacity="0.6" transform="translate(334.900000, 566.400000)" fill="#000000" fill-rule="nonzero">
                <path d="M109.3,0.8 L0.3,0.8 C0.1,0.8 0,0.7 0,0.5 C0,0.3 0.1,0.2 0.3,0.2 L109.3,0.2 C109.5,0.2 109.6,0.3 109.6,0.5 C109.6,0.7 109.4,0.8 109.3,0.8 Z" id="路径"></path>
            </g>
            <path d="M338.3,566.6 L354.4,566.6 C355.6,566.6 356.7,565.7 357,564.5 L370.5,493.4 C370.8,491.8 369.6,490.3 367.9,490.3 L351.8,490.3 C350.6,490.3 349.5,491.2 349.2,492.4 L335.7,563.5 C335.5,565.2 336.6,566.6 338.3,566.6 Z" id="路径" fill="#21252B" fill-rule="nonzero"></path>
            <path d="M338.3,566.6 L354.4,566.6 C355.6,566.6 356.7,565.7 357,564.5 L370.5,493.4 C370.8,491.8 369.6,490.3 367.9,490.3 L351.8,490.3 C350.6,490.3 349.5,491.2 349.2,492.4 L335.7,563.5 C335.5,565.2 336.6,566.6 338.3,566.6 Z" id="路径" fill="#000000" fill-rule="nonzero" opacity="0.6"></path>
            <path d="M340.6,566.6 L444.2,566.6 C445.4,566.6 446.5,565.7 446.8,564.5 L460.3,493.4 C460.6,491.8 459.4,490.3 457.7,490.3 L354.1,490.3 C352.9,490.3 351.8,491.2 351.5,492.4 L338.1,563.5 C337.8,565.2 338.9,566.6 340.6,566.6 Z" id="路径" fill="#21252B" fill-rule="nonzero"></path>
            <path d="M399.7,526.5 C399.1,527.9 399.8,529.2 401.2,529.2 C401.3,529.2 401.4,529.2 401.4,529.2 C399.7,531.1 397.2,532.4 394.9,532.3 C391.8,532.2 390.4,529.7 391.8,526.7 C393.1,523.6 396.7,521.3 399.8,521.3 C401.7,521.4 403,522.4 403.4,523.9 C402,524 400.4,525 399.7,526.5 Z" id="路径" fill="#000000" fill-rule="nonzero" opacity="0.6"></path>
            <path d="M304.2,558.9 C303,550.8 296.2,545 288.2,544.9 L279.5,544.9 L276.1,545.7 L276.1,546.2 L202.1,555.6 C192.8,556.8 185.2,563.4 182.8,572.6 L131.2,770.9 L143.6,770.9 L194.4,575.6 C195.5,571.3 199.1,568.1 203.6,567.5 L287.3,556.8 C289.7,556.5 291.9,558.1 292.3,560.5 L324.3,770.7 L336.5,770.7 L304.2,558.9 Z" id="路径" fill="#B1B5BA" fill-rule="nonzero"></path>
            <path d="M135.7,770.9 L123.3,770.9 L174.9,572.6 C177.3,563.5 184.8,556.8 194.2,555.6 L277.9,544.9 C286.8,543.8 294.9,549.9 296.3,558.8 L328.6,770.9 L316.4,770.9 L284.4,560.7 C284,558.3 281.9,556.7 279.4,557 L195.7,567.7 C191.3,568.3 187.7,571.4 186.5,575.8 L135.7,770.9 Z" id="路径" fill="#858990" fill-rule="nonzero"></path>
            <path d="M264.7,426.6 L263.3,426.9 C252.9,429.1 242.2,421.8 240,411.4 L234.3,385.1 C233.6,381.6 235.8,378.2 239.2,377.5 L263.8,372.2 C268.3,371.2 272.7,374.1 273.7,378.6 L279,403.1 C281.2,413.4 275.6,424.6 264.7,426.6 Z" id="路径" fill="#F69797" fill-rule="nonzero"></path>
            <path d="M262,412.8 L262.9,413.7 C265.3,416 269.3,415 270.5,411.9 L271,410.5 C271.1,410.2 270.9,409.9 270.6,410 L262.2,412.2 C261.9,412.2 261.8,412.6 262,412.8 Z" id="路径" fill="#FFFFFF" fill-rule="nonzero"></path>
            <path d="M257.1,401.9 C258.26,401.9 259.2,400.96 259.2,399.8 C259.2,398.64 258.26,397.7 257.1,397.7 C255.94,397.7 255,398.64 255,399.8 C255,400.96 255.94,401.9 257.1,401.9 Z" id="路径" fill="#21252B" fill-rule="nonzero"></path>
            <path d="M258.1,400.9 C258.321,400.9 258.5,400.721 258.5,400.5 C258.5,400.279 258.321,400.1 258.1,400.1 C257.879,400.1 257.7,400.279 257.7,400.5 C257.7,400.721 257.879,400.9 258.1,400.9 Z" id="路径" fill="#FFFFFF" fill-rule="nonzero"></path>
            <path d="M273,399.4 C274.16,399.4 275.1,398.46 275.1,397.3 C275.1,396.14 274.16,395.2 273,395.2 C271.84,395.2 270.9,396.14 270.9,397.3 C270.9,398.46 271.84,399.4 273,399.4 Z" id="路径" fill="#21252B" fill-rule="nonzero"></path>
            <path d="M274.1,398.3 C274.321,398.3 274.5,398.121 274.5,397.9 C274.5,397.679 274.321,397.5 274.1,397.5 C273.879,397.5 273.7,397.679 273.7,397.9 C273.7,398.121 273.879,398.3 274.1,398.3 Z" id="路径" fill="#FFFFFF" fill-rule="nonzero"></path>
            <g id="编组" opacity="0.3" transform="translate(264.373987, 402.937023)" fill="#000000" fill-rule="nonzero">
                <path d="M3.42601296,4.66297684 L0.726012959,5.36297684 C0.426012959,5.46297684 0.0260129589,5.26297684 0.0260129589,4.96297684 C-0.0739870411,4.66297684 0.126012959,4.26297684 0.426012959,4.26297684 L3.12601296,3.56297684 C3.82601296,3.36297684 4.22601296,2.66297684 4.02601296,2.06297684 C3.82601296,1.36297684 3.12601296,0.96297684 2.52601296,1.16297684 C2.22601296,1.26297684 1.82601296,1.06297684 1.82601296,0.76297684 C1.72601296,0.46297684 1.92601296,0.06297684 2.22601296,0.06297684 C3.52601296,-0.23702316 4.92601296,0.56297684 5.22601296,1.86297684 C5.52601296,3.06297684 4.72601296,4.36297684 3.42601296,4.66297684 Z" id="路径"></path>
            </g>
            <path d="M280.9,384.3 L282,384.3 C273.6,356.4 243.5,356.6 231.4,370.8 C224.1,379.4 221,393.4 221,393.4 C223.4,398.6 230,402.7 232.1,406.3 C233,407.9 234.9,400.4 236.2,399.4 C236.4,399.3 238,400.9 239.1,402 C239.8,402.7 241,402.4 241.1,401.4 C241.6,397.9 241.4,394.3 240.7,390.9 L240,387.8 C246.7,385.6 266.9,377.7 271.4,376.2 C272.5,375.8 273.5,377.5 273.8,378.6 L277.1,393.9 L279.9,386.6 L280.9,384.3 Z" id="路径" fill="#21252B" fill-rule="nonzero"></path>
            <path d="M241.5,412.2 C241.5,412.2 232.8,415.2 228.7,406.9 C224.5,398.6 235,394.2 238.9,402.6 L242.6,411.9 L241.5,412.2 Z" id="路径" fill="#F69797" fill-rule="nonzero"></path>
            <path d="M230.2,401.5 C231,400.6 231.8,400.1 232.7,400.1 C233.6,400.1 234.5,400.4 235.3,401.3 C236.1,402.1 236.8,403.2 237.2,404.5 L237.5,405.4 C237.7,406.1 236.6,406.6 236.3,405.8 C236,404.8 236,404.8 236,404.8 C235.9,404.5 235.3,402.9 234.5,402.2 C233.9,401.6 233.3,401.4 232.8,401.4 C232.3,401.4 231.7,401.8 231.1,402.4 C230.9,402.6 230.5,402.7 230.3,402.5 C230,402.2 230,401.8 230.2,401.5 Z" id="路径" fill="#000000" fill-rule="nonzero" opacity="0.3"></path>
            <path d="M273.2,388.6 C270.7,389.2 268.7,391 267.7,393.2 C265.3,392.8 263.4,393.6 262.6,394.1 C260.6,391.8 257.4,390.7 254.3,391.4 C249.8,392.5 247.1,397.1 248.2,401.5 C249.3,406 253.9,408.7 258.3,407.6 C262.8,406.5 265.5,401.9 264.4,397.5 C264.2,396.6 263.8,395.7 263.3,395 C264,394.6 265.5,394 267.4,394.2 C267,395.6 266.9,397.2 267.3,398.7 C268.4,403.2 273,405.9 277.4,404.8 C281.9,403.7 284.6,399.1 283.5,394.7 C282.2,390.2 277.7,387.5 273.2,388.6 Z M258,406.6 C254.1,407.6 250.1,405.2 249.2,401.3 C248.2,397.4 250.6,393.4 254.5,392.5 C258.4,391.5 262.4,393.9 263.3,397.8 C264.3,401.6 261.9,405.6 258,406.6 Z M277,403.7 C273.1,404.7 269.1,402.3 268.2,398.4 C267.2,394.5 269.6,390.5 273.5,389.6 C277.4,388.6 281.4,391 282.3,394.9 C283.3,398.8 280.9,402.7 277,403.7 Z" id="形状" fill="#FFFFFF" fill-rule="nonzero"></path>
            <path d="M238.4,411.5 C239.394,411.5 240.2,410.694 240.2,409.7 C240.2,408.706 239.394,407.9 238.4,407.9 C237.406,407.9 236.6,408.706 236.6,409.7 C236.6,410.694 237.406,411.5 238.4,411.5 Z" id="路径" fill="#42D392" fill-rule="nonzero"></path>
            <path d="M239.3,411 C238.2,411.3 237.2,410.6 236.9,409.6 C236.8,409.2 236.8,408.8 236.9,408.5 C236.5,408.9 236.4,409.5 236.5,410.1 C236.7,411.1 237.7,411.7 238.7,411.4 C239.1,411.3 239.4,411.1 239.6,410.8 C239.6,411 239.5,411 239.3,411 Z" id="路径" fill="#000000" fill-rule="nonzero" opacity="0.15"></path>
            <polygon id="路径" fill="#000000" fill-rule="nonzero" opacity="0.15" points="239.7 412.6 242.8 411.9 240.4 419.6"></polygon>
            <path d="M273.7,378.5 C256.8,374.5 259.6,399.8 242.1,396.4 C225.7,393.2 240.5,373.4 240.5,373.4 L255,370.8 L274.5,373.2 L273.7,378.5 Z" id="路径" fill="#21252B" fill-rule="nonzero"></path>
            <path d="M244.2,397.5 C244.2,397.5 242.2,397.6 239.2,396.1" id="路径" stroke="#F69797" stroke-width="1.2986" stroke-linecap="round"></path>
            <path d="M270.3,426.5 L269.9,424.8 L269.8,424.8 C269.8,424.8 264.9,426.8 259.4,426 C259.1,426 258.8,426.2 258.7,426.5 C258.7,426.8 258.9,427.1 259.2,427.2 C260.2,427.3 261.1,427.4 262,427.4 C262.8,427.4 263.5,427.4 264.2,427.3 C265.1,428 267.3,429.4 270.8,428.6 L270.3,426.5 Z" id="路径" fill="#000000" fill-rule="nonzero" opacity="0.15"></path>
            <path d="M239.7,412.6 C239.7,412.6 242.7,429.3 251.5,440.6 C251.5,440.6 239.7,443.4 230.6,441.3 C222.2,439.4 239.7,412.6 239.7,412.6 Z" id="路径" fill="#21252B" fill-rule="nonzero"></path>
        </g>
    </g>
</svg>