<?xml version="1.0" encoding="UTF-8"?>
<svg width="163px" height="176px" viewBox="0 0 163 176" version="1.1" xmlns="http://www.w3.org/2000/svg" xmlns:xlink="http://www.w3.org/1999/xlink">
    <title>cube01</title>
    <defs>
        <radialGradient cx="50%" cy="0%" fx="50%" fy="0%" r="107.776511%" gradientTransform="translate(0.500000,0.000000),scale(1.000000,0.927846),rotate(90.000000),translate(-0.500000,-0.000000)" id="radialGradient-1">
            <stop stop-color="#42D392" stop-opacity="0.75" offset="0%"></stop>
            <stop stop-color="#647EFF" stop-opacity="0.75" offset="100%"></stop>
        </radialGradient>
    </defs>
    <g id="cube-page" stroke="none" stroke-width="1" fill="none" fill-rule="evenodd">
        <path d="M77.925926,174.814815 C76.851852,174.666667 75.7407408,174.444444 74.7037037,174.185185 C73.6296297,173.888889 72.5925926,173.555556 71.5925926,173.111111 C70.5925926,172.703704 69.5925926,172.185185 68.6296297,171.666667 L9.29629629,137.111111 C8.59259258,136.703704 7.92592598,136.259259 7.25925937,135.740741 C6.62962969,135.259259 6,134.703704 5.44444453,134.111111 C4.88888906,133.518519 4.3333334,132.925926 3.85185195,132.259259 C3.37037051,131.62963 2.88888906,130.925926 2.48148145,130.222222 C2.07407383,129.518519 1.70370371,128.777778 1.40740742,128.037037 C1.11111113,127.296296 0.851851953,126.518519 0.629629687,125.740741 C0.407407422,124.962963 0.259259375,124.148148 0.148148242,123.333333 C0.0370371094,122.518519 0,121.703704 0,120.888889 L0,54.1851853 C0,53.3703705 0.0370371094,52.5555556 0.148148242,51.7407408 C0.259259375,50.9259259 0.407407422,50.1481482 0.629629687,49.3333333 C0.851851953,48.5555556 1.11111113,47.7777779 1.40740742,47.0370371 C1.70370371,46.2962962 2.07407402,45.5555556 2.48148145,44.8518519 C2.88888887,44.1481482 3.3333332,43.4814816 3.81481484,42.8148148 C4.29629629,42.1851851 4.85185195,41.5555556 5.40740742,40.962963 C5.96296289,40.3703705 6.59259258,39.8518519 7.22222227,39.3333333 C7.85185195,38.8518519 8.55555566,38.3703705 9.25925937,37.962963 L68.6296297,3.40740737 C69.5925926,2.8518519 70.5555557,2.37037026 71.5925926,1.92592593 C72.5925926,1.51851851 73.6666666,1.14814819 74.7037037,0.851851904 C75.7777777,0.555555615 76.851852,0.33333335 77.925926,0.222222217 C80.1111111,-0.0740740723 82.3333334,-0.0740740723 84.4814814,0.222222217 C85.5555555,0.370370459 86.6666666,0.592592529 87.7037037,0.851851904 C88.7777777,1.14814819 89.8148148,1.48148159 90.8148148,1.92592593 C91.8148148,2.37037026 92.8148148,2.8518519 93.7777777,3.40740737 L153.148148,37.962963 C153.851852,38.3703705 154.518519,38.8148148 155.185185,39.3333333 C155.814815,39.8148148 156.444444,40.3703705 157,40.962963 C157.555555,41.5555556 158.111111,42.1481482 158.592593,42.8148148 C159.074074,43.4444445 159.555555,44.1481482 159.925926,44.8518519 C160.333333,45.5555556 160.703704,46.2962964 161,47.0370371 C161.296296,47.7777779 161.555555,48.5555556 161.777778,49.3333333 C162,50.1111111 162.148148,50.9259259 162.259259,51.7407408 C162.370371,52.5555556 162.407407,53.3703705 162.407407,54.1851853 L162.407407,120.888889 C162.407407,121.703704 162.37037,122.518519 162.259259,123.333333 C162.148148,124.148148 162,124.925926 161.777778,125.740741 C161.555555,126.518519 161.296296,127.296296 161,128.037037 C160.703704,128.777778 160.333333,129.518519 159.925926,130.222222 C159.518519,130.925926 159.074074,131.592593 158.592593,132.259259 C158.111111,132.888889 157.555555,133.518519 157,134.111111 C156.407407,134.703704 155.814815,135.222222 155.185185,135.740741 C154.555555,136.222222 153.851852,136.703704 153.148148,137.111111 L93.7777777,171.666667 C92.8148148,172.222222 91.8518518,172.703704 90.8148148,173.148148 C89.8148148,173.555556 88.7407408,173.925926 87.7037037,174.222222 C86.6666666,174.518519 85.5555555,174.740741 84.4814814,174.851852 C83.6222222,174.940741 82.7629629,175.005926 81.8847407,175.028444 L81.2222223,175.037037 L81.2222223,175.037037 C80.1111111,175.037037 79.0370371,174.962963 77.925926,174.814815 Z M150.037,57.467 L106.71003,82.9501449 C94.7966016,89.9569309 87.4814814,102.745779 87.4814814,116.566952 L87.4816185,160.955893 C87.518621,160.933973 87.5556068,160.911649 87.5925926,160.888889 L146.962963,126.333333 L147.62963,125.888889 C147.851852,125.703704 148.037037,125.555556 148.259259,125.333333 C148.444445,125.148148 148.62963,124.925926 148.777778,124.703704 L149.222222,124.037037 C149.370371,123.814815 149.481481,123.555556 149.592593,123.296296 C149.703704,123.037037 149.777778,122.777778 149.851852,122.518519 C149.925926,122.259259 149.962963,122 150,121.703704 C150.037037,121.444445 150.037037,121.148148 150.037037,120.888889 L150.037,57.467 Z M12.518,57.533 L12.5185186,120.888889 C12.5185186,121.148148 12.5185186,121.444444 12.5555557,121.703704 C12.5925928,121.962963 12.6296297,122.259259 12.7037037,122.518519 C12.7777777,122.777778 12.851852,123.037037 12.9629631,123.296296 C13.0740742,123.555556 13.1851854,123.777778 13.3333334,124.037037 C13.4814816,124.259259 13.6296297,124.518519 13.7777777,124.703704 C13.925926,124.925926 14.1111111,125.111111 14.2962963,125.333333 C14.4814814,125.518519 14.7037037,125.703704 14.925926,125.888889 C15.1481482,126.037037 15.3703705,126.222222 15.5925926,126.333333 L74.9629631,160.888889 L74.9629631,116.566952 C74.9629631,102.745779 67.647843,89.9569309 55.7344148,82.9501449 L12.518,57.533 Z M81.2222223,12.5555556 C80.6666668,12.5555556 80.1111111,12.5925927 79.5925926,12.6666667 C79.074074,12.7407408 78.5185186,12.8518519 77.9629631,13.0000001 C77.4444445,13.1481484 76.925926,13.3333335 76.4074074,13.5185185 C75.8888889,13.7407408 75.4074074,13.962963 74.925926,14.2592593 L18.971,46.826 L61.4484373,71.8128063 C73.6534527,78.9922271 88.7909918,78.9922271 100.996007,71.8128063 L143.566,46.771 L87.4814814,14.2592593 C87,14.0000001 86.5185186,13.7407408 86,13.5185185 C85.4814814,13.2962962 84.9629629,13.1111111 84.4444445,13.0000001 C83.925926,12.8518519 83.3703705,12.740741 82.851852,12.6666667 C82.3333334,12.5925927 81.7777779,12.5555556 81.2222223,12.5555556 Z" id="cube01" fill="url(#radialGradient-1)" fill-rule="nonzero"></path>
    </g>
</svg>