<?xml version="1.0" encoding="UTF-8"?>
<svg width="1195px" height="762px" viewBox="0 0 1195 762" version="1.1" xmlns="http://www.w3.org/2000/svg" xmlns:xlink="http://www.w3.org/1999/xlink">
    <title>speed</title>
    <g id="speed" stroke="none" stroke-width="1" fill="none" fill-rule="evenodd">
        <g id="编组-2" transform="translate(0.925422, 0.743185)">
            <path d="M924.019,329.4 L924.179,329.62 L930.899,338.62 L931.059,338.84 L931.309,338.73 L937.309,336.06 C939.149,337.5 941.169,338.703 943.309,339.64 C943.489,341.9 943.659,344.14 943.819,346.22 L943.819,346.49 L944.099,346.49 L955.219,348.11 L955.489,348.11 L955.589,347.86 C956.399,345.73 957.209,343.63 957.959,341.7 C960.289,341.405 962.569,340.828 964.759,339.98 L969.759,344.26 L969.959,344.43 L970.169,344.28 L979.169,337.55 L979.359,337.4 L979.259,337.18 C978.329,335.07 977.409,333.01 976.569,331.18 C978.019,329.321 979.229,327.285 980.169,325.12 L986.779,324.59 L986.999,324.59 L986.999,324.38 C987.559,320.473 988.089,316.763 988.599,313.25 L988.599,313.06 L988.409,312.98 L982.189,310.6 C981.889,308.234 981.299,305.915 980.419,303.7 L984.739,298.62 L984.829,298.51 L984.749,298.4 L977.979,289.4 L977.979,289.33 L977.899,289.33 L973.309,291.43 L972.129,291.98 L971.729,292.19 C971.629,292.078 971.509,291.978 971.389,291.89 C971.159,291.7 970.799,291.41 970.299,291.06 C968.809,289.997 967.219,289.092 965.539,288.36 C965.409,286.52 965.249,284.36 965.059,281.65 L965.059,281.52 L964.929,281.52 L953.809,279.85 L953.649,279.85 L953.589,280.01 C952.849,281.93 952.049,284.01 951.179,286.22 C948.819,286.491 946.499,287.066 944.279,287.93 L939.279,283.6 L939.119,283.46 L938.949,283.59 L929.949,290.28 L929.769,290.42 L929.859,290.63 C930.729,292.63 931.629,294.65 932.539,296.69 C931.089,298.528 929.869,300.545 928.929,302.69 L922.309,303.25 L922.059,303.25 L922.059,303.5 C921.529,307.12 920.989,310.826 920.419,314.62 L920.419,314.88 L920.659,314.98 L926.829,317.36 C927.109,319.686 927.679,321.968 928.529,324.15 L924.239,329.15 L924.019,329.4 Z M964.019,306.4 C964.509,307.257 964.949,308.138 965.349,309.04 C966.339,311.538 966.459,314.295 965.689,316.87 C965.169,318.629 964.249,320.242 962.999,321.58 C961.559,323.113 959.739,324.237 957.729,324.84 C956.649,325.172 955.519,325.333 954.389,325.32 C953.209,325.329 952.039,325.154 950.909,324.8 C948.529,324.07 946.439,322.598 944.949,320.597 C943.459,318.597 942.649,316.173 942.639,313.68 C942.609,312.504 942.779,311.332 943.129,310.21 C943.439,309.123 943.919,308.091 944.549,307.15 C945.459,305.773 946.639,304.599 948.029,303.704 C949.409,302.809 950.969,302.212 952.599,301.951 C954.229,301.69 955.889,301.77 957.489,302.186 C959.079,302.602 960.579,303.346 961.869,304.37 C962.609,304.993 963.309,305.657 963.969,306.36 L964.019,306.4 Z M971.169,291.82 C970.869,291.6 970.559,291.4 970.249,291.19 L970.379,291.27 L971.169,291.82 Z" id="形状" fill="#61656D" fill-rule="nonzero"></path>
            <path d="M924.019,329.4 L924.179,329.62 L930.899,338.62 L931.059,338.84 L931.309,338.73 L937.309,336.06 C939.149,337.5 941.169,338.703 943.309,339.64 C943.489,341.9 943.659,344.14 943.819,346.22 L943.819,346.49 L944.099,346.49 L955.219,348.11 L955.489,348.11 L955.589,347.86 C956.399,345.73 957.209,343.63 957.959,341.7 C960.289,341.405 962.569,340.828 964.759,339.98 L969.759,344.26 L969.959,344.43 L970.169,344.28 L979.169,337.55 L979.359,337.4 L979.259,337.18 C978.329,335.07 977.409,333.01 976.569,331.18 C978.019,329.321 979.229,327.285 980.169,325.12 L986.779,324.59 L986.999,324.59 L986.999,324.38 C987.559,320.473 988.089,316.763 988.599,313.25 L988.599,313.06 L988.409,312.98 L982.189,310.6 C981.889,308.234 981.299,305.915 980.419,303.7 L984.739,298.62 L984.829,298.51 L984.749,298.4 L977.979,289.4 L977.979,289.33 L977.899,289.33 L973.309,291.43 L972.129,291.98 L971.729,292.19 C971.629,292.078 971.509,291.978 971.389,291.89 C971.159,291.7 970.799,291.41 970.299,291.06 C968.809,289.997 967.219,289.092 965.539,288.36 C965.409,286.52 965.249,284.36 965.059,281.65 L965.059,281.52 L964.929,281.52 L953.809,279.85 L953.649,279.85 L953.589,280.01 C952.849,281.93 952.049,284.01 951.179,286.22 C948.819,286.491 946.499,287.066 944.279,287.93 L939.279,283.6 L939.119,283.46 L938.949,283.59 L929.949,290.28 L929.769,290.42 L929.859,290.63 C930.729,292.63 931.629,294.65 932.539,296.69 C931.089,298.528 929.869,300.545 928.929,302.69 L922.309,303.25 L922.059,303.25 L922.059,303.5 C921.529,307.12 920.989,310.826 920.419,314.62 L920.419,314.88 L920.659,314.98 L926.829,317.36 C927.109,319.686 927.679,321.968 928.529,324.15 L924.239,329.15 L924.019,329.4 Z M964.019,306.4 C964.509,307.257 964.949,308.138 965.349,309.04 C966.339,311.538 966.459,314.295 965.689,316.87 C965.169,318.629 964.249,320.242 962.999,321.58 C961.559,323.113 959.739,324.237 957.729,324.84 C956.649,325.172 955.519,325.333 954.389,325.32 C953.209,325.329 952.039,325.154 950.909,324.8 C948.529,324.07 946.439,322.598 944.949,320.597 C943.459,318.597 942.649,316.173 942.639,313.68 C942.609,312.504 942.779,311.332 943.129,310.21 C943.439,309.123 943.919,308.091 944.549,307.15 C945.459,305.773 946.639,304.599 948.029,303.704 C949.409,302.809 950.969,302.212 952.599,301.951 C954.229,301.69 955.889,301.77 957.489,302.186 C959.079,302.602 960.579,303.346 961.869,304.37 C962.609,304.993 963.309,305.657 963.969,306.36 L964.019,306.4 Z M971.169,291.82 C970.869,291.6 970.559,291.4 970.249,291.19 L970.379,291.27 L971.169,291.82 Z" id="形状" fill="#FFFFFF" fill-rule="nonzero" opacity="0.5"></path>
            <path d="M914.399,239.98 L914.609,240.26 L923.179,251.78 L923.389,252.06 L923.709,251.92 L931.409,248.51 C933.769,250.348 936.349,251.883 939.089,253.08 C939.309,255.97 939.529,258.83 939.739,261.48 L939.739,261.83 L940.089,261.83 L954.289,263.9 L954.639,263.9 L954.759,263.58 C955.759,260.87 956.829,258.19 957.759,255.71 C960.729,255.348 963.649,254.609 966.439,253.51 L972.849,258.99 L973.099,259.2 L973.359,259.01 C977.359,256.01 981.249,253.11 984.869,250.42 L985.119,250.23 L984.989,249.94 C983.789,247.26 982.619,244.62 981.549,242.22 C983.399,239.843 984.949,237.243 986.149,234.48 L994.589,233.8 L994.869,233.8 L994.869,233.53 C995.589,228.53 996.279,223.79 996.869,219.32 L996.869,219.07 L996.629,218.98 L988.629,215.98 C988.259,212.958 987.509,209.997 986.379,207.17 L991.889,200.67 L992.009,200.53 L991.899,200.39 L983.259,188.92 L983.189,188.83 L983.089,188.88 L977.239,191.55 L975.729,192.26 C975.389,192.42 975.219,192.51 975.209,192.52 C975.079,192.38 974.929,192.253 974.779,192.14 C974.479,191.9 974.029,191.53 973.389,191.08 C971.489,189.727 969.449,188.575 967.309,187.64 C967.139,185.29 966.939,182.48 966.699,179.06 L966.699,178.9 L966.539,178.9 L952.339,176.76 L952.139,176.76 L952.059,176.96 C951.059,179.41 950.059,182.01 948.969,184.88 C945.949,185.234 942.999,185.974 940.169,187.08 L933.739,181.54 L933.529,181.36 L933.309,181.52 L921.779,190.08 L921.549,190.25 L921.659,190.52 L925.309,198.25 C923.449,200.617 921.899,203.211 920.689,205.97 L912.269,206.61 L911.949,206.61 L911.899,206.94 C911.229,211.553 910.539,216.286 909.809,221.14 L909.809,221.47 L910.119,221.59 L917.979,224.59 C918.349,227.563 919.079,230.479 920.169,233.27 C918.359,235.376 916.539,237.51 914.689,239.67 L914.399,239.98 Z M965.399,210.56 C965.309,210.62 966.189,211.68 967.099,213.93 C968.359,217.12 968.509,220.643 967.529,223.93 C966.869,226.172 965.689,228.227 964.089,229.93 C962.259,231.887 959.929,233.319 957.359,234.08 C955.979,234.51 954.539,234.719 953.099,234.7 C951.589,234.718 950.089,234.492 948.659,234.03 C945.619,233.099 942.949,231.22 941.049,228.668 C939.149,226.115 938.109,223.022 938.089,219.84 C938.059,216.876 938.919,213.97 940.539,211.49 C941.699,209.731 943.209,208.233 944.979,207.091 C946.749,205.948 948.739,205.185 950.819,204.852 C952.899,204.518 955.029,204.62 957.059,205.151 C959.099,205.683 961.009,206.633 962.659,207.94 C964.569,209.48 965.309,210.63 965.419,210.56 L965.399,210.56 Z" id="形状" fill="#B2B6BB" fill-rule="nonzero"></path>
            <path d="M1069.819,320.85 C1066.639,322.009 1063.349,322.833 1060.009,323.31 L1055.739,334.36 L1033.539,331.08 L1032.639,319.27 C1029.579,317.846 1026.679,316.111 1023.979,314.09 L1013.139,318.87 L999.779,300.87 L1007.499,291.87 C1006.339,288.695 1005.519,285.407 1005.049,282.06 L994.049,277.77 L997.359,255.62 L1009.159,254.74 C1010.599,251.663 1012.349,248.744 1014.399,246.03 L1009.649,235.23 L1027.559,221.99 L1036.559,229.72 C1039.789,228.546 1043.149,227.721 1046.559,227.26 L1050.849,216.26 L1072.609,219.58 L1073.429,231.38 C1075.939,232.631 1078.369,234.044 1080.699,235.61 L1082.519,236.82 L1091.889,232.55 L1093.229,232.1 L1106.289,249.52 L1098.679,258.46 C1099.879,261.693 1100.729,265.045 1101.219,268.46 L1112.219,272.7 L1109.269,292.98 L1109.019,294.69 L1097.249,295.61 C1095.819,298.698 1094.079,301.627 1092.039,304.35 L1096.829,315.18 L1078.829,328.53 L1069.819,320.85 Z M1088.019,303.85 L1088.649,303.05 C1090.989,300.054 1092.949,296.775 1094.469,293.29 L1094.879,292.35 L1105.959,291.49 L1108.379,274.89 L1097.979,270.89 L1097.859,269.89 C1097.399,266.076 1096.449,262.338 1095.029,258.77 L1094.659,257.77 L1101.829,249.35 L1091.949,236.25 L1082.099,240.73 L1078.689,238.46 C1076.239,236.814 1073.669,235.35 1070.999,234.08 L1070.059,233.67 L1069.299,222.57 L1052.919,220.07 L1048.919,230.38 L1047.919,230.5 C1044.109,230.938 1040.379,231.862 1036.809,233.25 L1035.809,233.62 L1027.369,226.34 L1013.839,236.34 L1018.309,246.52 L1017.679,247.32 C1015.329,250.298 1013.359,253.564 1011.839,257.04 L1011.419,257.98 L1000.299,258.81 L997.799,275.58 L1008.189,279.58 L1008.309,280.58 C1008.739,284.348 1009.659,288.045 1011.039,291.58 L1011.409,292.58 L1004.139,301.03 L1014.309,314.65 L1024.509,310.15 L1025.319,310.79 C1028.289,313.113 1031.539,315.058 1034.989,316.58 L1035.929,316.99 L1036.769,328.11 L1053.589,330.59 L1057.589,320.19 L1058.589,320.07 C1062.359,319.614 1066.049,318.687 1069.589,317.31 L1070.589,316.94 L1079.049,324.19 L1092.629,314.09 L1088.019,303.85 Z M1052.699,295.78 C1050.549,295.787 1048.419,295.449 1046.389,294.78 C1042.059,293.439 1038.259,290.761 1035.549,287.13 L1035.549,287.13 C1032.869,283.493 1031.409,279.105 1031.379,274.59 C1031.339,272.441 1031.649,270.3 1032.289,268.25 C1032.859,266.283 1033.729,264.415 1034.869,262.71 C1036.829,259.711 1039.509,257.252 1042.659,255.558 C1045.819,253.863 1049.349,252.987 1052.929,253.01 C1057.829,253.03 1062.589,254.704 1066.429,257.76 C1069.199,260.004 1071.349,262.915 1072.679,266.22 C1074.459,270.761 1074.659,275.767 1073.269,280.44 C1072.249,283.864 1070.399,286.979 1067.869,289.503 C1065.339,292.027 1062.219,293.878 1058.799,294.89 L1058.049,295.1 C1056.299,295.576 1054.509,295.819 1052.699,295.82 L1052.699,295.78 Z M1044.819,258.29 C1041.929,259.726 1039.469,261.903 1037.689,264.6 C1035.759,267.577 1034.739,271.052 1034.75871,274.6 C1034.769,278.412 1036.009,282.119 1038.279,285.178 C1040.559,288.237 1043.749,290.487 1047.399,291.6 C1050.779,292.655 1054.409,292.679 1057.809,291.67 C1060.689,290.822 1063.319,289.266 1065.439,287.144 C1067.569,285.022 1069.129,282.401 1069.989,279.52 C1071.169,275.54 1070.979,271.278 1069.449,267.42 C1068.319,264.68 1066.519,262.271 1064.209,260.42 C1060.979,257.878 1056.999,256.488 1052.899,256.47 C1051.269,256.474 1049.649,256.686 1048.079,257.1 C1046.949,257.391 1045.859,257.803 1044.819,258.33 L1044.819,258.29 Z" id="形状" fill="#B2B6BB" fill-rule="nonzero"></path>
            <path d="M1192.249,761.25 L1.36,761.25 C0.61,761.25 0,760.4 0,759.35 C0,758.3 0.61,757.45 1.36,757.45 L1192.249,757.45 C1192.999,757.45 1193.599,758.3 1193.599,759.35 C1193.599,760.4 1192.999,761.25 1192.249,761.25 Z" id="路径" fill="#B2B6BB" fill-rule="nonzero"></path>
            <path d="M920.539,70.1 L266.839,70.1 C263.962,70.1 261.629,72.432 261.629,75.31 L261.629,551.51 C261.629,554.387 263.962,556.72 266.839,556.72 L920.539,556.72 C923.419,556.72 925.749,554.387 925.749,551.51 L925.749,75.31 C925.749,72.432 923.419,70.1 920.539,70.1 Z" id="路径" fill="#42D392" fill-rule="nonzero"></path>
            <path d="M920.539,70.1 L266.839,70.1 C263.962,70.1 261.629,72.432 261.629,75.31 L261.629,551.51 C261.629,554.387 263.962,556.72 266.839,556.72 L920.539,556.72 C923.419,556.72 925.749,554.387 925.749,551.51 L925.749,75.31 C925.749,72.432 923.419,70.1 920.539,70.1 Z" id="路径" fill="#FFFFFF" fill-rule="nonzero" opacity="0.6"></path>
            <path d="M265.749,69.25 L921.159,69.25 C921.839,69.25 922.519,69.385 923.149,69.647 C923.789,69.908 924.359,70.292 924.839,70.776 C925.329,71.26 925.709,71.834 925.969,72.466 C926.239,73.098 926.369,73.776 926.369,74.46 L926.369,102.63 L260.539,102.63 L260.539,74.46 C260.539,73.078 261.088,71.753 262.065,70.776 C263.043,69.799 264.368,69.25 265.749,69.25 Z" id="路径" fill="#42D392" fill-rule="nonzero" opacity="0.4"></path>
            <path d="M913.579,69.99 L259.878,69.99 C257.001,69.99 254.668,72.323 254.668,75.2 L254.668,551.4 C254.668,554.278 257.001,556.61 259.878,556.61 L913.579,556.61 C916.459,556.61 918.789,554.278 918.789,551.4 L918.789,75.2 C918.789,72.323 916.459,69.99 913.579,69.99 Z" id="路径" fill="#42D392" fill-rule="nonzero"></path>
            <path d="M913.579,69.99 L259.878,69.99 C257.001,69.99 254.668,72.323 254.668,75.2 L254.668,551.4 C254.668,554.278 257.001,556.61 259.878,556.61 L913.579,556.61 C916.459,556.61 918.789,554.278 918.789,551.4 L918.789,75.2 C918.789,72.323 916.459,69.99 913.579,69.99 Z" id="路径" fill="#FFFFFF" fill-rule="nonzero" opacity="0.8"></path>
            <path d="M913.159,557.45 L260.309,557.45 C255.139,557.45 253.829,556.22 253.829,551.15 L253.829,75.45 C253.829,70.38 255.139,69.15 260.309,69.15 L913.169,69.15 C918.349,69.15 919.659,70.38 919.659,75.45 L919.659,551.15 C919.649,556.25 918.309,557.45 913.159,557.45 Z M260.309,70.82 C256.079,70.82 255.539,71.3 255.539,75.45 L255.539,551.15 C255.539,555.3 256.079,555.77 260.309,555.77 L913.169,555.77 C917.409,555.77 917.949,555.3 917.949,551.15 L917.949,75.45 C917.949,71.3 917.409,70.82 913.169,70.82 L260.309,70.82 Z" id="形状" fill="#42D392" fill-rule="nonzero"></path>
            <path d="M913.159,557.45 L260.309,557.45 C255.139,557.45 253.829,556.22 253.829,551.15 L253.829,75.45 C253.829,70.38 255.139,69.15 260.309,69.15 L913.169,69.15 C918.349,69.15 919.659,70.38 919.659,75.45 L919.659,551.15 C919.649,556.25 918.309,557.45 913.159,557.45 Z M260.309,70.82 C256.079,70.82 255.539,71.3 255.539,75.45 L255.539,551.15 C255.539,555.3 256.079,555.77 260.309,555.77 L913.169,555.77 C917.409,555.77 917.949,555.3 917.949,551.15 L917.949,75.45 C917.949,71.3 917.409,70.82 913.169,70.82 L260.309,70.82 Z" id="形状" fill="#FFFFFF" fill-rule="nonzero" opacity="0.6"></path>
            <path d="M919.589,102.63 L253.769994,102.63 L253.769994,74.46 C253.769994,73.776 253.902,73.099 254.163,72.467 C254.424,71.835 254.806,71.261 255.289,70.777 C255.772,70.293 256.346,69.909 256.978,69.647 C257.609,69.385 258.286,69.25 258.97,69.25 L914.389,69.25 C915.069,69.25 915.749,69.385 916.379,69.647 C917.009,69.909 917.589,70.293 918.069,70.777 C918.549,71.261 918.939,71.835 919.199,72.467 C919.459,73.099 919.589,73.776 919.589,74.46 L919.589,102.63 Z" id="路径" fill="#42D392" fill-rule="nonzero"></path>
            <path d="M853.959,93.15 C857.229,93.15 859.889,90.495 859.889,87.22 C859.889,83.945 857.229,81.29 853.959,81.29 C850.679,81.29 848.029,83.945 848.029,87.22 C848.029,90.495 850.679,93.15 853.959,93.15 Z" id="路径" fill="#FFFFFF" fill-rule="nonzero"></path>
            <path d="M872.809,93.15 C876.089,93.15 878.739,90.495 878.739,87.22 C878.739,83.945 876.089,81.29 872.809,81.29 C869.539,81.29 866.879,83.945 866.879,87.22 C866.879,90.495 869.539,93.15 872.809,93.15 Z" id="路径" fill="#FFFFFF" fill-rule="nonzero"></path>
            <path d="M891.659,93.15 C894.939,93.15 897.589,90.495 897.589,87.22 C897.589,83.945 894.939,81.29 891.659,81.29 C888.389,81.29 885.729,83.945 885.729,87.22 C885.729,90.495 888.389,93.15 891.659,93.15 Z" id="路径" fill="#FFFFFF" fill-rule="nonzero"></path>
            <path d="M802.099,313.2 L371.369,313.2 C362.351,313.2 355.039,320.511 355.039,329.53 L355.039,331.26 C355.039,340.279 362.351,347.59 371.369,347.59 L802.099,347.59 C811.119,347.59 818.429,340.279 818.429,331.26 L818.429,329.53 C818.429,320.511 811.119,313.2 802.099,313.2 Z" id="路径" fill="#FFFFFF" fill-rule="nonzero"></path>
            <path d="M802.099,313.2 L371.369,313.2 C362.351,313.2 355.039,320.511 355.039,329.53 L355.039,331.26 C355.039,340.279 362.351,347.59 371.369,347.59 L802.099,347.59 C811.119,347.59 818.429,340.279 818.429,331.26 L818.429,329.53 C818.429,320.511 811.119,313.2 802.099,313.2 Z" id="路径" stroke="#4D61FC" stroke-width="1.12"></path>
            <path d="M372.239,316.7 L673.439,316.7 L673.439,344.09 L372.239,344.09 C364.029,344.09 358.489,338.27 358.489,331.09 L358.489,329.72 C358.489,322.53 364.029,316.7 372.239,316.7 Z" id="路径" fill="#42D392" fill-rule="nonzero"></path>
            <path d="M576.84,326.08 C576.84,323.23 578.62,321.44 581.08,321.46 C583.54,321.48 585.24,323.28 585.21,326.16 C585.18,329.04 583.46,330.8 581,330.77 C578.54,330.74 576.82,328.92 576.84,326.08 Z M582.84,326.08 C582.84,324.27 582.17,323.4 581.1,323.39 C580.03,323.38 579.34,324.26 579.32,326.05 C579.3,327.84 580.02,328.74 581.06,328.74 C582.1,328.74 582.78,327.94 582.8,326.13 L582.84,326.08 Z M591.18,321.7 L594.05,321.7 L582.31,338.56 L579.44,338.56 L591.18,321.7 Z M588.29,334.1 C588.29,331.25 590.07,329.46 592.51,329.48 C594.95,329.5 596.69,331.33 596.67,334.17 C596.65,337.01 594.88,338.81 592.42,338.79 C589.96,338.77 588.23,336.99 588.25,334.15 L588.29,334.1 Z M594.23,334.15 C594.23,332.37 593.55,331.47 592.49,331.46 C591.43,331.45 590.72,332.31 590.71,334.12 C590.7,335.93 591.4,336.8 592.44,336.81 C593.48,336.82 594.17,335.99 594.19,334.25 L594.23,334.15 Z" id="形状" fill="#FFFFFF" fill-rule="nonzero"></path>
            <path d="M472.867,224.14 L461.877,224.14 C455.393,224.14 450.137,229.396 450.137,235.88 L450.137,264.74 C450.137,271.223 455.393,276.48 461.877,276.48 L472.867,276.48 C479.351,276.48 484.607,271.223 484.607,264.74 L484.607,235.88 C484.607,229.396 479.351,224.14 472.867,224.14 Z" id="路径" fill="#FFFFFF" fill-rule="nonzero"></path>
            <path d="M524.09,242.01 L513.1,242.01 C506.616,242.01 501.36,247.266 501.36,253.75 L501.36,264.74 C501.36,271.224 506.616,276.48 513.1,276.48 L524.09,276.48 C530.574,276.48 535.83,271.224 535.83,264.74 L535.83,253.75 C535.83,247.266 530.574,242.01 524.09,242.01 Z" id="路径" fill="#FFFFFF" fill-rule="nonzero"></path>
            <path d="M575.301,242.01 L564.311,242.01 C557.827,242.01 552.571,247.266 552.571,253.75 L552.571,264.74 C552.571,271.224 557.827,276.48 564.311,276.48 L575.301,276.48 C581.785,276.48 587.041,271.224 587.041,264.74 L587.041,253.75 C587.041,247.266 581.785,242.01 575.301,242.01 Z" id="路径" fill="#FFFFFF" fill-rule="nonzero"></path>
            <path d="M626.52,224.14 L615.529,224.14 C609.046,224.14 603.789,229.396 603.789,235.88 L603.789,264.74 C603.789,271.223 609.046,276.48 615.529,276.48 L626.52,276.48 C633.003,276.48 638.26,271.223 638.26,264.74 L638.26,235.88 C638.26,229.396 633.003,224.14 626.52,224.14 Z" id="路径" fill="#FFFFFF" fill-rule="nonzero"></path>
            <path d="M666.75,224.14 L666.74,224.14 C660.257,224.14 655,229.396 655,235.88 L655,264.74 C655,271.223 660.257,276.48 666.74,276.48 L666.75,276.48 C673.234,276.48 678.49,271.223 678.49,264.74 L678.49,235.88 C678.49,229.396 673.234,224.14 666.75,224.14 Z" id="路径" fill="#FFFFFF" fill-rule="nonzero"></path>
            <path d="M711.579,242.01 L706.979,242.01 C700.495,242.01 695.239,247.266 695.239,253.75 L695.239,264.74 C695.239,271.224 700.495,276.48 706.979,276.48 L711.579,276.48 C718.063,276.48 723.319,271.224 723.319,264.74 L723.319,253.75 C723.319,247.266 718.063,242.01 711.579,242.01 Z" id="路径" fill="#FFFFFF" fill-rule="nonzero"></path>
            <path d="M745.818,379.18 L427.648,379.18 C425.51,379.18 423.778,380.912 423.778,383.05 L423.778,444.24 C423.778,446.377 425.51,448.11 427.648,448.11 L745.818,448.11 C747.955,448.11 749.688,446.377 749.688,444.24 L749.688,383.05 C749.688,380.912 747.955,379.18 745.818,379.18 Z" id="路径" fill="#FFFFFF" fill-rule="nonzero"></path>
            <polygon id="路径" fill="#DADDDF" fill-rule="nonzero" points="727.85 392.16 529.7 392.16 529.7 396.02 727.85 396.02"></polygon>
            <polygon id="路径" fill="#DADDDF" fill-rule="nonzero" points="727.85 405.2 529.7 405.2 529.7 409.06 727.85 409.06"></polygon>
            <polygon id="路径" fill="#DADDDF" fill-rule="nonzero" points="727.85 418.24 529.7 418.24 529.7 422.1 727.85 422.1"></polygon>
            <polygon id="路径" fill="#DADDDF" fill-rule="nonzero" points="657.51 431.27 529.7 431.27 529.7 435.13 657.51 435.13"></polygon>
            <polygon id="路径" fill="#F4F4F4" fill-rule="nonzero" points="511.069 383.93 429.219 383.93 429.219 443.35 511.069 443.35"></polygon>
            <polygon id="路径" fill="#DADDDF" fill-rule="nonzero" points="429.219 426.65 453.369 412.88 470.219 422.36 496.709 404.11 511.069 415.69 511.069 443.36 429.359 443.36"></polygon>
            <path d="M464.308,396.03 C464.308,397.426 463.894,398.791 463.118,399.952 C462.342,401.113 461.24,402.018 459.95,402.552 C458.66,403.087 457.24,403.227 455.871,402.954 C454.501,402.682 453.243,402.009 452.256,401.022 C451.268,400.035 450.596,398.777 450.324,397.407 C450.051,396.038 450.191,394.618 450.725,393.328 C451.26,392.038 452.165,390.935 453.326,390.16 C454.487,389.384 455.852,388.97 457.248,388.97 C459.12,388.97 460.916,389.714 462.24,391.038 C463.564,392.362 464.308,394.157 464.308,396.03 L464.308,396.03 Z" id="路径" fill="#DADDDF" fill-rule="nonzero"></path>
            <path d="M745.818,465.28 L427.648,465.28 C425.51,465.28 423.778,467.013 423.778,469.15 L423.778,530.34 C423.778,532.478 425.51,534.21 427.648,534.21 L745.818,534.21 C747.955,534.21 749.688,532.478 749.688,530.34 L749.688,469.15 C749.688,467.013 747.955,465.28 745.818,465.28 Z" id="路径" fill="#FFFFFF" fill-rule="nonzero"></path>
            <polygon id="路径" fill="#DADDDF" fill-rule="nonzero" points="727.85 478.27 529.7 478.27 529.7 482.13 727.85 482.13"></polygon>
            <polygon id="路径" fill="#DADDDF" fill-rule="nonzero" points="727.85 491.3 529.7 491.3 529.7 495.16 727.85 495.16"></polygon>
            <polygon id="路径" fill="#DADDDF" fill-rule="nonzero" points="727.85 504.34 529.7 504.34 529.7 508.2 727.85 508.2"></polygon>
            <polygon id="路径" fill="#DADDDF" fill-rule="nonzero" points="657.51 517.38 529.7 517.38 529.7 521.24 657.51 521.24"></polygon>
            <polygon id="路径" fill="#F4F4F4" fill-rule="nonzero" points="511.069 470.04 429.219 470.04 429.219 529.46 511.069 529.46"></polygon>
            <path d="M484.918,503.234 C486.869,495.064 481.827,486.858 473.657,484.907 C465.486,482.956 457.281,487.998 455.33,496.169 C453.379,504.339 458.421,512.545 466.591,514.496 C474.762,516.447 482.967,511.405 484.918,503.234 Z" id="路径" fill="#DADDDF" fill-rule="nonzero"></path>
            <polygon id="路径" fill="#F4F4F4" fill-rule="nonzero" points="475.261 499.75 471.291 502.04 467.321 504.34 467.321 499.75 467.321 495.16 471.291 497.46"></polygon>
            <path d="M417.307,76.67 L287.607,76.67 C286.939,76.672 286.285,76.86 285.718,77.213 C285.151,77.566 284.693,78.071 284.397,78.67 L271.707,104.18 L433.197,104.18 L420.497,78.66 C420.203,78.065 419.748,77.564 419.185,77.212 C418.621,76.861 417.971,76.673 417.307,76.67 L417.307,76.67 Z" id="路径" fill="#DADDDF" fill-rule="nonzero"></path>
            <polygon id="路径" fill="#DADDDF" fill-rule="nonzero" points="917.409 102.91 253.77 102.91 253.77 140.16 917.409 140.16"></polygon>
            <path d="M348.887473,110.66 L348.887473,131.16 C348.874,131.446 348.97,131.727 349.156,131.944 C349.342,132.162 349.604,132.3 349.889,132.33 L880.499,132.33 C880.779,132.3 881.049,132.162 881.229,131.944 C881.419,131.727 881.509,131.446 881.49975,131.16 L881.49975,110.66 C881.509,110.374 881.419,110.094 881.229,109.876 C881.049,109.659 880.779,109.521 880.499,109.49 L349.939,109.49 C349.645,109.508 349.37,109.641 349.174,109.86 C348.977,110.079 348.875,110.366 348.887473,110.66 Z" id="路径" fill="#FFFFFF" fill-rule="nonzero"></path>
            <polygon id="路径" fill="#42D392" fill-rule="nonzero" points="907.649 114.64 890.899 114.64 890.899 116.85 907.649 116.85"></polygon>
            <polygon id="路径" fill="#42D392" fill-rule="nonzero" points="907.649 119.07 890.899 119.07 890.899 121.28 907.649 121.28"></polygon>
            <polygon id="路径" fill="#42D392" fill-rule="nonzero" points="907.649 123.51 890.899 123.51 890.899 125.72 907.649 125.72"></polygon>
            <path d="M867.439,126 L867.139,125.83 C867.069,125.773 867.009,125.696 866.969,125.608 C866.939,125.52 866.929,125.424 866.939,125.33 L867.589,121.52 L864.589,118.64 L864.659,118.31 C864.689,118.218 864.739,118.136 864.809,118.074 C864.889,118.012 864.979,117.972 865.069,117.96 L868.889,117.4 L870.719,113.69 L871.059,113.69 C871.159,113.691 871.249,113.717 871.329,113.766 C871.409,113.816 871.479,113.886 871.519,113.97 L873.219,117.43 L877.319,118.02 L877.449,118.33 C877.479,118.421 877.489,118.519 877.469,118.613 C877.449,118.707 877.399,118.793 877.329,118.86 L874.559,121.55 L875.259,125.63 L875.019,125.85 C874.939,125.91 874.849,125.946 874.749,125.954 C874.659,125.963 874.559,125.945 874.469,125.9 L871.059,124.1 L867.439,126 Z M866.009,118.73 L868.539,121.19 L868.539,121.49 L867.979,124.71 L871.099,123.07 L871.369,123.18 L874.269,124.71 L873.679,121.25 L873.849,121.03 L876.209,118.73 L872.719,118.22 L872.569,117.97 L871.129,115.04 L869.569,118.19 L869.289,118.26 L866.009,118.73 Z" id="形状" fill="#000000" fill-rule="nonzero" opacity="0.3"></path>
            <path d="M302.15,114.46 C302.011,114.378 301.848,114.344 301.687,114.364 C301.526,114.384 301.377,114.458 301.262,114.572 C301.148,114.687 301.075,114.836 301.054,114.997 C301.034,115.158 301.068,115.321 301.15,115.46 L305.02,119.33 L294.73,119.33 C294.537,119.33 294.351,119.407 294.214,119.544 C294.077,119.681 294,119.867 294,120.06 C294,120.254 294.077,120.439 294.214,120.576 C294.351,120.713 294.537,120.79 294.73,120.79 L305.21,120.79 L301.21,124.79 C301.085,124.927 301.016,125.105 301.016,125.29 C301.016,125.475 301.085,125.654 301.21,125.79 C301.345,125.92 301.524,125.992 301.71,125.992 C301.897,125.992 302.076,125.92 302.21,125.79 L307.9,120.1 L302.15,114.46 Z" id="路径" fill="#000000" fill-rule="nonzero" opacity="0.3"></path>
            <path d="M278.569,119.36 L268.309,119.36 L272.179,115.49 C272.261,115.351 272.295,115.188 272.275,115.027 C272.255,114.867 272.181,114.717 272.067,114.602 C271.952,114.488 271.803,114.415 271.642,114.394 C271.481,114.374 271.318,114.408 271.179,114.49 L265.399,120.25 L271.089,125.95 C271.157,126.018 271.239,126.071 271.328,126.107 C271.417,126.143 271.513,126.161 271.609,126.160068 C271.754,126.162 271.897,126.12 272.018,126.04 C272.14,125.96 272.235,125.845 272.291,125.711 C272.346,125.576 272.361,125.429 272.332,125.286 C272.303,125.143 272.233,125.013 272.129,124.91 L268.129,120.91 L278.609,120.91 C278.802,120.91 278.988,120.834 279.125,120.697 C279.262,120.56 279.339,120.374 279.339,120.18 C279.339,119.987 279.262,119.801 279.125,119.664 C278.988,119.527 278.802,119.45 278.609,119.45 L278.569,119.36 Z" id="路径" fill="#000000" fill-rule="nonzero" opacity="0.3"></path>
            <g id="编组" opacity="0.3" transform="translate(322.922369, 113.298842)" fill="#000000" fill-rule="nonzero">
                <path d="M5.83563099,13.7511579 C4.95863099,13.7511579 4.09163099,13.5541579 3.30163099,13.1741579 C2.51063099,12.7931579 1.81663099,12.2391579 1.26963099,11.5531579 C0.723630994,10.8671579 0.338630994,10.0661579 0.144630994,9.21115789 C-0.0493690057,8.35515789 -0.0483690057,7.46715789 0.148630994,6.61215789 C0.345630994,5.75715789 0.732630994,4.95815789 1.28163099,4.27315789 C1.83063099,3.58915789 2.52663099,3.03715789 3.31863099,2.65915789 C4.11063099,2.28115789 4.97763099,2.08715789 5.85463099,2.09109727 C6.73163099,2.09415789 7.59663099,2.29615789 8.38563099,2.68115789 C8.56063099,2.76615789 8.69463099,2.91615789 8.75863099,3.10015789 C8.82263099,3.28415789 8.81063099,3.48615789 8.72563099,3.66115789 C8.64063099,3.83615789 8.48963099,3.97015789 8.30563099,4.03415789 C8.12263099,4.09715789 7.92063099,4.08615789 7.74563099,4.00115789 C7.15263099,3.70315789 6.49863099,3.54815789 5.83563099,3.55115789 C4.97063099,3.54915789 4.12463099,3.80315789 3.40463099,4.28215789 C2.68463099,4.76115789 2.12363099,5.44315789 1.79063099,6.24115789 C1.45863099,7.04015789 1.37063099,7.91915789 1.53863099,8.76715789 C1.70563099,9.61515789 2.12163099,10.3951579 2.73163099,11.0071579 C3.34263099,11.6191579 4.12163099,12.0371579 4.96963099,12.2061579 C5.81763099,12.3751579 6.69663099,12.2891579 7.49563099,11.9591579 C8.29463099,11.6281579 8.97763099,11.0681579 9.45863099,10.3501579 C9.93863099,9.63115789 10.195631,8.78515789 10.195631,7.92115789 C10.195631,7.72715789 10.272631,7.54115789 10.409631,7.40415789 C10.546631,7.26815789 10.731631,7.19115789 10.925631,7.19115789 C11.119631,7.19115789 11.304631,7.26815789 11.441631,7.40415789 C11.578631,7.54115789 11.655631,7.72715789 11.655631,7.92115789 C11.655631,9.46515789 11.042631,10.9471579 9.95163099,12.0401579 C8.86063099,13.1331579 7.37963099,13.7481579 5.83563099,13.7511579 L5.83563099,13.7511579 Z" id="路径"></path>
                <path d="M6.74463099,6.22115789 C6.57063099,6.22615789 6.39963099,6.16915789 6.26363099,6.05915789 C6.12763099,5.94915789 6.03563099,5.79415789 6.00363099,5.62215789 C5.97263099,5.45115789 6.00363099,5.27315789 6.09163099,5.12215789 C6.18063099,4.97215789 6.31963099,4.85715789 6.48463099,4.80115789 L9.23463099,3.75115789 L8.17463099,1.00115789 C8.10863099,0.819157895 8.11563099,0.618157895 8.19363099,0.441157895 C8.27163099,0.264157895 8.41563099,0.124157895 8.59463099,0.0511578947 C8.68463099,0.0151578947 8.78063099,-0.00184210526 8.87763099,0.000157894737 C8.97363099,0.00215789474 9.06963099,0.0231578947 9.15763099,0.0621578947 C9.24563099,0.101157895 9.32563099,0.157157895 9.39163099,0.228157895 C9.45863099,0.298157895 9.51063099,0.380157895 9.54463099,0.471157895 L11.124631,4.59115789 L7.01463099,6.17115789 C6.92763099,6.20215789 6.83663099,6.21915789 6.74463099,6.22115789 L6.74463099,6.22115789 Z" id="路径"></path>
            </g>
            <path d="M410.49,91.62 L414.58,87.52 C414.727,87.374 414.81,87.176 414.811009,86.968 C414.812,86.761 414.731,86.562 414.585,86.415 C414.439,86.268 414.241,86.185 414.033,86.1839908 C413.826,86.183 413.627,86.264 413.48,86.41 L409.38,90.51 L405.28,86.41 C405.131,86.266 404.932,86.186 404.725,86.186 C404.518,86.186 404.319,86.266 404.17,86.41 C404.096,86.483 404.038,86.569 403.998,86.664 C403.958,86.759 403.938,86.862 403.938,86.965 C403.938,87.068 403.958,87.17 403.998,87.266 C404.038,87.361 404.096,87.447 404.17,87.52 L408.27,91.62 L404.17,95.72 C404.096,95.793 404.038,95.879 403.998,95.974 C403.958,96.069 403.938,96.172 403.938,96.275 C403.938,96.378 403.958,96.48 403.998,96.576 C404.038,96.671 404.096,96.757 404.17,96.83 C404.242,96.903 404.329,96.962 404.424,97.002 C404.519,97.041 404.622,97.062 404.725,97.062 C404.828,97.062 404.93,97.041 405.026,97.002 C405.121,96.962 405.207,96.903 405.28,96.83 L409.38,92.73 L413.48,96.83 C413.627,96.976 413.826,97.057 414.033,97.056 C414.241,97.055 414.439,96.972 414.585,96.825 C414.731,96.678 414.812,96.479 414.811009,96.271 C414.81,96.064 414.727,95.866 414.58,95.72 L410.49,91.62 Z" id="路径" fill="#000000" fill-rule="nonzero" opacity="0.3"></path>
            <path d="M304.919,305.52 C388.977,305.52 457.119,237.378 457.119,153.32 C457.119,69.262 388.977,1.12 304.919,1.12 C220.861,1.12 152.719,69.262 152.719,153.32 C152.719,237.378 220.861,305.52 304.919,305.52 Z" id="路径" fill="#FFFFFF" fill-rule="nonzero"></path>
            <path d="M360.719,11.68 C396.611,28.319 424.617,58.278 438.803,95.209 C452.989,132.14 452.242,173.143 436.719,209.532 C421.196,245.922 392.118,274.84 355.642,290.16 C319.167,305.481 278.161,306.001 241.309,291.61 C259.798,300.132 279.809,304.859 300.158,305.511 C320.506,306.163 340.778,302.726 359.775,295.405 C378.772,288.084 396.108,277.027 410.756,262.888 C425.404,248.748 437.067,231.815 445.055,213.088 C453.043,194.362 457.194,174.224 457.261849,153.865 C457.329,133.506 453.313,113.341 445.449,94.562 C437.586,75.783 426.036,58.772 411.482,44.536 C396.928,30.299 379.667,19.127 360.719,11.68 Z" id="路径" fill="#000000" fill-rule="nonzero" opacity="0.15"></path>
            <path d="M400.868,174.41 C395.165,199.144 380.114,220.713 358.868,234.6 L378.528,264.54 C407.231,245.746 427.632,216.658 435.528,183.27 L400.868,174.41 Z" id="路径" fill="#42D392" fill-rule="nonzero"></path>
            <path d="M400.868,174.41 C395.165,199.144 380.114,220.713 358.868,234.6 L378.528,264.54 C407.231,245.746 427.632,216.658 435.528,183.27 L400.868,174.41 Z" id="路径" fill="#000000" fill-rule="nonzero" opacity="0.4"></path>
            <path d="M308.829,53.8 C323.232,54.377 337.332,58.11 350.133,64.737 C362.934,71.364 374.123,80.722 382.908,92.15 L410.149,68.87 C398.002,53.502 382.636,40.981 365.131,32.187 C347.627,23.393 328.409,18.541 308.829,17.97 L308.829,53.8 Z" id="路径" fill="#42D392" fill-rule="nonzero"></path>
            <path d="M308.829,53.8 C323.232,54.377 337.332,58.11 350.133,64.737 C362.934,71.364 374.123,80.722 382.908,92.15 L410.149,68.87 C398.002,53.502 382.636,40.981 365.131,32.187 C347.627,23.393 328.409,18.541 308.829,17.97 L308.829,53.8 Z" id="路径" fill="#000000" fill-rule="nonzero" opacity="0.2"></path>
            <path d="M387.469,98.56 C397.894,114.523 403.431,133.184 403.399,152.25 C403.396,157.103 403.039,161.949 402.329,166.75 L437.159,175.64 C438.502,167.916 439.171,160.09 439.159159,152.25 C439.18,124.684 430.671,97.788 414.799,75.25 L387.469,98.56 Z" id="路径" fill="#42D392" fill-rule="nonzero"></path>
            <path d="M387.469,98.56 C397.894,114.523 403.431,133.184 403.399,152.25 C403.396,157.103 403.039,161.949 402.329,166.75 L437.159,175.64 C438.502,167.916 439.171,160.09 439.159159,152.25 C439.18,124.684 430.671,97.788 414.799,75.25 L387.469,98.56 Z" id="路径" fill="#000000" fill-rule="nonzero" opacity="0.3"></path>
            <path d="M224.74,95.07 C233.459,82.828 244.865,72.744 258.083,65.591 C271.302,58.437 285.982,54.404 301,53.8 L301,17.97 C280.805,18.563 261.004,23.707 243.075,33.019 C225.145,42.331 209.549,55.57 197.45,71.75 L224.74,95.07 Z" id="路径" fill="#42D392" fill-rule="nonzero"></path>
            <path d="M207.538,166.97 C206.802,162.098 206.431,157.178 206.428,152.25 C206.415,134.448 211.255,116.978 220.428,101.72 L192.938,78.23 C173.892,106.985 166.658,141.971 172.738,175.92 L207.538,166.97 Z" id="路径" fill="#42D392" fill-rule="nonzero"></path>
            <path d="M207.538,166.97 C206.802,162.098 206.431,157.178 206.428,152.25 C206.415,134.448 211.255,116.978 220.428,101.72 L192.938,78.23 C173.892,106.985 166.658,141.971 172.738,175.92 L207.538,166.97 Z" id="路径" fill="#FFFFFF" fill-rule="nonzero" opacity="0.2"></path>
            <path d="M209.019,174.68 L174.309,183.54 C182.267,216.828 202.662,245.81 231.309,264.54 L250.959,234.6 C229.793,220.764 214.772,199.304 209.019,174.68 L209.019,174.68 Z" id="路径" fill="#42D392" fill-rule="nonzero"></path>
            <path d="M209.019,174.68 L174.309,183.54 C182.267,216.828 202.662,245.81 231.309,264.54 L250.959,234.6 C229.793,220.764 214.772,199.304 209.019,174.68 L209.019,174.68 Z" id="路径" fill="#FFFFFF" fill-rule="nonzero" opacity="0.4"></path>
            <path d="M304.92,306.64 C220.37,306.64 151.59,237.86 151.59,153.32 C151.59,68.78 220.37,5.68434189e-14 304.92,5.68434189e-14 C389.47,5.68434189e-14 458.24,68.78 458.24,153.32 C458.24,237.86 389.46,306.64 304.92,306.64 Z M304.92,2.24 C221.61,2.24 153.83,70.01 153.83,153.32 C153.83,236.63 221.61,304.4 304.92,304.4 C388.23,304.4 456,236.63 456,153.32 C456,70.01 388.22,2.25 304.92,2.25 L304.92,2.24 Z" id="形状" fill="#B2B6BB" fill-rule="nonzero"></path>
            <path d="M307.989,142.35 C310.096,143.256 312.475,143.292 314.609,142.451 C316.743,141.61 318.457,139.96 319.379,137.86 L366.739,40.58 C366.84,40.268 366.829,39.93 366.708,39.625 C366.586,39.32 366.362,39.067 366.074,38.909 C365.787,38.752 365.453,38.7 365.13,38.762 C364.808,38.824 364.518,38.997 364.309,39.25 L304.139,129.67 C303.456,130.73 303.012,131.926 302.838,133.174 C302.663,134.423 302.763,135.695 303.129,136.901 C303.495,138.107 304.12,139.22 304.959,140.161 C305.798,141.101 306.832,141.849 307.989,142.35 L307.989,142.35 Z" id="路径" fill="#21252B" fill-rule="nonzero"></path>
            <path d="M304.921,182.42 C320.992,182.42 334.021,169.391 334.021,153.32 C334.021,137.248 320.992,124.22 304.921,124.22 C288.849,124.22 275.821,137.248 275.821,153.32 C275.821,169.391 288.849,182.42 304.921,182.42 Z" id="路径" fill="#DADDDF" fill-rule="nonzero"></path>
            <path d="M304.917,172.35 C315.427,172.35 323.947,163.83 323.947,153.32 C323.947,142.81 315.427,134.29 304.917,134.29 C294.407,134.29 285.887,142.81 285.887,153.32 C285.887,163.83 294.407,172.35 304.917,172.35 Z" id="路径" fill="#42D392" fill-rule="nonzero"></path>
            <path d="M304.92,161.15 C309.245,161.15 312.75,157.645 312.75,153.32 C312.75,148.996 309.245,145.49 304.92,145.49 C300.596,145.49 297.09,148.996 297.09,153.32 C297.09,157.645 300.596,161.15 304.92,161.15 Z" id="路径" fill="#FFFFFF" fill-rule="nonzero"></path>
            <path d="M304.919,182.420002 C299.163,182.422 293.536,180.717 288.749,177.52 C283.962,174.324 280.231,169.78 278.027,164.463 C275.823,159.146 275.245,153.294 276.367,147.649 C277.489,142.003 280.259,136.817 284.329,132.746 C288.398,128.676 293.583,125.903 299.228,124.78 C304.873,123.656 310.725,124.232 316.043,126.434 C321.361,128.636 325.906,132.366 329.104,137.152 C332.302,141.937 334.009,147.564 334.009,153.32 C334.001,161.033 330.934,168.429 325.481,173.884 C320.027,179.34 312.633,182.409 304.919,182.420002 L304.919,182.420002 Z M304.919,126.419998 C299.606,126.418 294.412,127.991 289.994,130.942 C285.575,133.892 282.131,138.086 280.096,142.994 C278.062,147.902 277.529,153.303 278.564,158.514 C279.599,163.725 282.157,168.512 285.913,172.269 C289.669,176.027 294.455,178.586 299.665,179.623 C304.876,180.66 310.277,180.129 315.186,178.096 C320.094,176.063 324.29,172.621 327.242,168.203 C330.193,163.786 331.769,158.593 331.769,153.28 C331.751,146.167 328.915,139.352 323.883,134.325 C318.85,129.298 312.032,126.47 304.919,126.46 L304.919,126.419998 Z" id="形状" fill="#B2B6BB" fill-rule="nonzero"></path>
            <g id="编组" opacity="0.2" transform="translate(285.918184, 134.309925)" fill="#000000" fill-rule="nonzero">
                <path d="M18.9998165,38.0000749 C15.2428165,38.0000749 11.5688165,36.8850749 8.44481647,34.7970749 C5.31981647,32.7100749 2.88481647,29.7420749 1.44681647,26.2710749 C0.00881647418,22.7990749 -0.368183526,18.9780749 0.364816474,15.2930749 C1.09881647,11.6070749 2.90781647,8.22207492 5.56481647,5.56507492 C8.22281647,2.90707492 11.6078165,1.09807492 15.2938165,0.365074921 C18.9788165,-0.367925079 22.7998165,0.00807492095 26.2708165,1.44607492 C29.7428165,2.88407492 32.7108165,5.31907492 34.7978165,8.44407492 C36.8858165,11.5680749 37.9998165,15.2420749 37.9998165,19.0000749 C37.9998165,24.0390749 35.9988165,28.8710749 32.4348165,32.4350749 C28.8718165,35.9980749 24.0388165,38.0000749 18.9998165,38.0000749 L18.9998165,38.0000749 Z M18.9998165,2.19007492 C15.6738165,2.19007492 12.4218165,3.17607492 9.65581647,5.02407492 C6.88981647,6.87207492 4.73381647,9.49907492 3.46081647,12.5730749 C2.18781647,15.6460749 1.85481647,19.0280749 2.50381647,22.2910749 C3.15281647,25.5540749 4.75481647,28.5510749 7.10681647,30.9030749 C9.45881647,33.2550749 12.4558165,34.8570749 15.7188165,35.5060749 C18.9818165,36.1550749 22.3638165,35.8220749 25.4368165,34.5490749 C28.5108165,33.2760749 31.1378165,31.1200749 32.9858165,28.3540749 C34.8338165,25.5880749 35.8198165,22.3360749 35.8198165,19.0100749 C35.8118165,14.5510749 34.0378165,10.2770749 30.8848165,7.12507492 C27.7328165,3.97207492 23.4588165,2.19807492 18.9998165,2.19007492 L18.9998165,2.19007492 Z" id="形状"></path>
            </g>
            <path d="M339.598,251.81 L270.218,251.81 C269.599,251.81 269.098,252.311 269.098,252.93 L269.098,269.72 C269.098,270.338 269.599,270.84 270.218,270.84 L339.598,270.84 C340.217,270.84 340.718,270.338 340.718,269.72 L340.718,252.93 C340.718,252.311 340.217,251.81 339.598,251.81 Z" id="路径" fill="#868A91" fill-rule="nonzero"></path>
            <path d="M121.087,698.07 C114.727,606.74 107.687,600.7 107.387,600.49 L107.827,599.66 C108.137,599.81 115.507,604.32 122.027,698 L121.087,698.07 Z" id="路径" fill="#3F4249" fill-rule="nonzero"></path>
            <path d="M127.681,698.06 L126.731,698 C130.921,631.28 126.361,594.9 126.321,594.54 L127.261,594.41 C127.261,594.77 131.871,631.24 127.681,698.06 Z" id="路径" fill="#3F4249" fill-rule="nonzero"></path>
            <path d="M133.42,700.06 C128.34,658.45 141.28,626.75 141.42,626.43 L142.29,626.8 C142.16,627.11 129.29,658.59 134.36,699.94 L133.42,700.06 Z" id="路径" fill="#3F4249" fill-rule="nonzero"></path>
            <path d="M138.717,705.13 C136.594,690.28 136.705,675.197 139.047,660.38 L139.977,660.56 C137.652,675.271 137.541,690.246 139.647,704.99 L138.717,705.13 Z" id="路径" fill="#3F4249" fill-rule="nonzero"></path>
            <path d="M141.571,627.18 L145.681,626.84 C148.592,626.602 151.417,625.736 153.961,624.3 C155.207,623.576 156.496,622.928 157.821,622.36 C162.901,620.36 168.561,620.69 174.021,620.42 C182.961,619.966 191.721,617.726 199.781,613.83 C200.251,613.624 200.643,613.274 200.901,612.83 C201.751,611.3 200.181,609.93 198.831,609.1 C191.921,604.84 184.881,600.52 177.041,598.41 C169.201,596.3 160.311,596.63 153.611,601.25 C145.761,606.65 142.901,617.75 141.611,627.19" id="路径" fill="#42D392" fill-rule="nonzero"></path>
            <path d="M200.997,612.309 C200.756,612.217 200.522,612.107 200.297,611.979 L198.357,610.979 C196.667,610.099 194.237,608.789 191.167,607.319 C187.595,605.562 183.874,604.126 180.047,603.03 C175.368,601.69 170.471,601.293 165.637,601.859 C160.797,602.403 156.225,604.365 152.497,607.499 C149.59,610.206 147.263,613.476 145.657,617.109 C144.531,619.554 143.53,622.054 142.657,624.599 C142.357,625.459 142.107,626.139 141.927,626.669 C141.854,626.915 141.757,627.153 141.637,627.379 C141.675,627.125 141.736,626.874 141.817,626.629 C141.977,626.099 142.197,625.4 142.457,624.53 C143.247,621.948 144.192,619.417 145.287,616.949 C146.865,613.234 149.202,609.89 152.147,607.129 C155.931,603.894 160.599,601.87 165.547,601.319 C170.454,600.74 175.427,601.158 180.167,602.549 C184.01,603.664 187.74,605.137 191.307,606.949 C194.367,608.469 196.767,609.83 198.427,610.78 L200.317,611.889 C200.547,612.009 200.764,612.149 200.967,612.309" id="路径" fill="#000000" fill-rule="nonzero" opacity="0.3"></path>
            <path d="M191.138,617.6 C191.058,617.73 185.688,614.25 179.138,609.85 C172.588,605.45 167.378,601.77 167.458,601.64 C167.538,601.51 172.908,604.99 179.458,609.4 C186.008,613.81 191.228,617.48 191.138,617.6 Z" id="路径" fill="#000000" fill-rule="nonzero" opacity="0.3"></path>
            <path d="M185.418,601.36 C184.158,601.79 182.839,602.026 181.508,602.06 C180.182,602.259 178.834,602.259 177.508,602.06 C178.809,601.826 180.127,601.692 181.448,601.66 C182.773,601.471 184.11,601.387 185.448,601.41" id="路径" fill="#000000" fill-rule="nonzero" opacity="0.3"></path>
            <path d="M161.92,598.3 C161.481,599.303 160.887,600.231 160.16,601.05 C159.544,601.997 158.793,602.85 157.93,603.58 C158.369,602.577 158.963,601.649 159.69,600.83 C160.306,599.882 161.057,599.03 161.92,598.3" id="路径" fill="#000000" fill-rule="nonzero" opacity="0.3"></path>
            <path d="M166.729,620.76 C165.823,620.383 164.959,619.914 164.149,619.36 C162.599,618.42 160.499,617.04 158.259,615.42 C156.019,613.8 154.049,612.25 152.629,611.13 C151.83,610.56 151.084,609.921 150.399,609.22 C151.271,609.669 152.095,610.205 152.859,610.82 L158.579,614.98 C160.809,616.6 162.859,617.98 164.359,619.04 C165.193,619.55 165.985,620.125 166.729,620.76" id="路径" fill="#000000" fill-rule="nonzero" opacity="0.3"></path>
            <polygon id="路径" fill="#61656D" fill-rule="nonzero" points="152.7 757.56 112.08 757.56 104.52 701.81 160.26 701.81"></polygon>
            <polygon id="路径" fill="#61656D" fill-rule="nonzero" points="164.988 710.32 99.798 710.32 98.848 698.03 165.928 698.03"></polygon>
            <polygon id="路径" fill="#000000" fill-rule="nonzero" opacity="0.2" points="105.668 710.32 159.108 710.32 152.698 757.56 146.288 757.12 149.868 714.1 106.088 713.36"></polygon>
            <polygon id="路径" fill="#000000" fill-rule="nonzero" opacity="0.2" points="151.029 698.12 149.129 710.32 164.989 710.32 165.929 698.03"></polygon>
            <g id="编组" opacity="0.2" transform="translate(108.149000, 724.320000)" fill="#FFFFFF" fill-rule="nonzero">
                <polygon id="路径" points="48.33 0.03 0 0.03 0 0.97 48.33 0.97"></polygon>
            </g>
            <g id="编组" opacity="0.2" transform="translate(108.149000, 728.090000)" fill="#FFFFFF" fill-rule="nonzero">
                <polygon id="路径" points="48.33 0.03 0 0.03 0 0.97 48.33 0.97"></polygon>
            </g>
            <path d="M108.498,600.06 C104.588,597.06 100.448,596.511 95.548,596.711 C90.639,597.037 85.834,598.275 81.378,600.36 C73.708,603.72 66.508,608.67 61.928,615.68 C57.348,622.69 55.748,631.951 59.178,639.591 C59.446,640.386 59.998,641.055 60.728,641.47 C61.586,641.709 62.502,641.631 63.308,641.25 C72.028,638.4 80.808,635.531 88.828,631.081 C96.848,626.631 104.138,620.431 108.438,612.331 C109.55,610.422 110.254,608.304 110.508,606.11 C110.627,605.013 110.511,603.903 110.166,602.854 C109.821,601.805 109.255,600.843 108.508,600.031" id="路径" fill="#42D392" fill-rule="nonzero"></path>
            <path d="M108.58,599.14 C108.38,599.25 108.169,599.337 107.95,599.4 L106.12,600.03 L104.8,600.47 C104.32,600.64 103.8,600.85 103.25,601.07 C102.15,601.52 100.87,601.96 99.52,602.62 L97.38,603.62 C96.64,603.96 95.9,604.38 95.12,604.78 C93.54,605.56 91.94,606.55 90.24,607.56 C86.606,609.842 83.153,612.4 79.91,615.21 C76.71,618.07 73.731,621.169 71,624.48 C69.79,626.04 68.6,627.48 67.63,628.97 C67.13,629.7 66.63,630.38 66.18,631.07 L64.95,633.07 C64.12,634.33 63.52,635.54 62.95,636.58 C62.66,637.1 62.39,637.58 62.15,638.04 L61.55,639.29 L60.69,641.02 C60.605,641.229 60.494,641.428 60.36,641.61 C60.413,641.392 60.49,641.18 60.59,640.98 L61.35,639.2 C61.53,638.81 61.72,638.38 61.92,637.92 C62.12,637.46 62.41,636.92 62.68,636.44 C63.24,635.38 63.82,634.15 64.63,632.88 C65.01,632.23 65.42,631.55 65.84,630.88 C66.26,630.21 66.77,629.49 67.27,628.75 C68.27,627.26 69.41,625.75 70.62,624.2 C73.349,620.85 76.339,617.72 79.56,614.84 C82.824,612.01 86.308,609.445 89.98,607.17 C91.7,606.17 93.32,605.17 94.92,604.42 C95.71,604.03 96.46,603.61 97.21,603.28 L99.38,602.28 C100.74,601.65 102.04,601.22 103.16,600.8 C103.72,600.6 104.24,600.4 104.72,600.24 L106.07,599.84 L107.93,599.31 C108.144,599.238 108.365,599.188 108.59,599.16" id="路径" fill="#000000" fill-rule="nonzero" opacity="0.3"></path>
            <path d="M78.028,615.68 C74.917,616.877 71.742,617.902 68.518,618.75 C65.344,619.775 62.116,620.623 58.848,621.29 C61.961,620.097 65.136,619.073 68.358,618.22 C71.535,617.205 74.763,616.357 78.028,615.68 Z" id="路径" fill="#000000" fill-rule="nonzero" opacity="0.3"></path>
            <path d="M77.638,636.67 C77.465,635.68 77.395,634.675 77.428,633.67 C77.378,631.84 77.368,629.3 77.428,626.51 C77.488,623.72 77.658,621.18 77.808,619.36 C77.838,618.367 77.962,617.38 78.178,616.41 C78.273,617.408 78.273,618.412 78.178,619.41 C78.118,621.41 78.038,623.86 77.958,626.55 C77.878,629.24 77.828,631.69 77.778,633.7 C77.803,634.703 77.746,635.706 77.608,636.7" id="路径" fill="#000000" fill-rule="nonzero" opacity="0.3"></path>
            <path d="M95.618,627.51 C95.468,627.51 94.988,622.38 94.548,616.02 C94.108,609.66 93.878,604.5 94.018,604.489985 C94.158,604.48 94.648,609.62 95.088,615.98 C95.528,622.34 95.768,627.5 95.618,627.51 Z" id="路径" fill="#000000" fill-rule="nonzero" opacity="0.3"></path>
            <path d="M73.238,603.99 C74.233,603.862 75.237,603.829 76.238,603.89 C78.118,603.89 80.718,603.96 83.578,604.06 C86.438,604.16 89.038,604.27 90.918,604.38 C91.924,604.391 92.928,604.488 93.918,604.67 C92.907,604.799 91.885,604.833 90.868,604.77 C88.988,604.77 86.388,604.7 83.528,604.6 C80.668,604.5 78.058,604.39 76.188,604.28 C75.181,604.271 74.178,604.173 73.188,603.99" id="路径" fill="#000000" fill-rule="nonzero" opacity="0.3"></path>
            <path d="M100.638,580.19 L95.638,589.32 C95.518,589.54 95.368,589.78 95.128,589.8 C94.888,589.82 94.658,589.57 94.518,589.34 C90.065,582.527 85.621,575.71 81.188,568.89 L84.258,567.15 L100.638,580.19 Z" id="路径" fill="#42D392" fill-rule="nonzero"></path>
            <path d="M100.638,580.19 L95.638,589.32 C95.518,589.54 95.368,589.78 95.128,589.8 C94.888,589.82 94.658,589.57 94.518,589.34 C90.065,582.527 85.621,575.71 81.188,568.89 L84.258,567.15 L100.638,580.19 Z" id="路径" fill="#000000" fill-rule="nonzero" opacity="0.2"></path>
            <path d="M127.678,596.65 L82.208,569.82 C81.713,569.599 81.32,569.199 81.108,568.7 C80.918,568.03 81.428,567.38 81.908,566.88 C85.035,563.637 88.824,561.106 93.017,559.458 C97.21,557.81 101.709,557.084 106.208,557.33 C110.708,557.649 115.063,559.06 118.897,561.44 C122.73,563.82 125.926,567.098 128.208,570.99 C132.598,578.83 132.738,589.2 127.708,596.65" id="路径" fill="#42D392" fill-rule="nonzero"></path>
            <path d="M88.758,561.25 C88.955,561.204 89.156,561.181 89.358,561.18 C89.748,561.18 90.358,561.09 91.078,561.1 C93.193,561.07 95.305,561.237 97.388,561.6 C100.493,562.12 103.518,563.037 106.388,564.33 C113.494,567.459 119.397,572.802 123.218,579.56 C124.786,582.289 125.993,585.21 126.808,588.25 C127.382,590.283 127.761,592.366 127.938,594.47 C128.018,595.22 127.988,595.41 128.008,595.8 C127.975,596.157 127.855,596.5 127.658,596.8 C127.795,596.041 127.819,595.266 127.728,594.5 C127.467,592.422 127.035,590.368 126.438,588.36 C124.151,580.702 119.498,573.965 113.145,569.115 C106.793,564.264 99.068,561.55 91.078,561.36 C89.588,561.36 88.768,561.36 88.758,561.3" id="路径" fill="#000000" fill-rule="nonzero" opacity="0.3"></path>
            <path d="M121.521,578.13 C120.798,578.55 120.03,578.886 119.231,579.13 C117.781,579.7 115.751,580.43 113.491,581.13 C111.231,581.83 109.151,582.42 107.641,582.79 C106.834,583.041 106.002,583.202 105.161,583.27 C105.919,582.905 106.713,582.62 107.531,582.42 L113.321,580.61 L119.101,578.75 C119.882,578.44 120.693,578.213 121.521,578.07" id="路径" fill="#000000" fill-rule="nonzero" opacity="0.3"></path>
            <path d="M114.358,558.9 C114.765,560.558 114.946,562.264 114.898,563.97 C115.037,565.672 114.942,567.384 114.618,569.06 C114.397,567.377 114.31,565.678 114.358,563.98 C114.225,562.29 114.225,560.591 114.358,558.9" id="路径" fill="#000000" fill-rule="nonzero" opacity="0.3"></path>
            <path d="M81.809,569.31 C82.876,568.826 83.984,568.438 85.119,568.15 C87.179,567.51 90.059,566.7 93.269,565.93 C96.479,565.16 99.399,564.56 101.529,564.19 C102.671,563.938 103.831,563.781 104.999,563.72 C103.892,564.087 102.759,564.371 101.609,564.57 C99.499,565.04 96.609,565.69 93.389,566.46 C90.169,567.23 87.309,567.98 85.219,568.52 C84.102,568.862 82.963,569.126 81.809,569.31" id="路径" fill="#000000" fill-rule="nonzero" opacity="0.3"></path>
            <path d="M146.668,647.45 C142.748,646.45 138.088,650.22 137.278,654.19 C136.468,658.16 137.958,662.19 139.698,665.87 C143.558,673.96 148.878,681.46 155.888,687.05 C162.898,692.64 171.678,696.21 180.638,696.16 C178.988,688.47 181.078,680.44 180.158,672.64 C179.348,665.76 176.226,659.358 171.302,654.484 C166.379,649.609 159.946,646.551 153.058,645.81 C150.558,645.54 147.658,645.14 146.668,647.45" id="路径" fill="#42D392" fill-rule="nonzero"></path>
            <path d="M180.64,696.16 C180.442,696.099 180.254,696.012 180.08,695.9 C179.565,695.611 179.076,695.276 178.62,694.9 C176.976,693.475 175.659,691.711 174.76,689.73 C174.13,688.52 173.43,687.2 172.76,685.73 L170.66,681.07 C169.901,679.351 169.036,677.681 168.07,676.07 C167.011,674.364 165.82,672.742 164.51,671.22 C161.83,668.07 158.95,665.35 156.46,662.75 C154.206,660.477 152.152,658.015 150.32,655.39 C149.095,653.606 148.088,651.683 147.32,649.66 C147.07,648.94 146.89,648.37 146.8,647.98 C146.733,647.786 146.693,647.584 146.68,647.38 C146.73,647.38 146.95,648.18 147.52,649.58 C148.358,651.549 149.404,653.423 150.64,655.17 C152.499,657.744 154.566,660.163 156.82,662.4 C159.32,664.97 162.21,667.69 164.92,670.87 C166.249,672.411 167.453,674.056 168.52,675.79 C169.492,677.398 170.357,679.069 171.11,680.79 C171.837,682.443 172.523,684.003 173.17,685.47 C173.83,686.92 174.51,688.25 175.11,689.47 C175.965,691.43 177.21,693.196 178.77,694.66 C179.91,695.66 180.68,696.01 180.65,696.06" id="路径" fill="#000000" fill-rule="nonzero" opacity="0.3"></path>
            <path d="M160.399,689.77 C160.418,688.883 160.539,688 160.759,687.14 C161.069,685.53 161.569,683.31 162.249,680.9 C162.929,678.49 163.649,676.34 164.249,674.81 C164.512,673.959 164.871,673.14 165.319,672.37 C165.169,673.244 164.935,674.102 164.619,674.93 C164.129,676.49 163.469,678.65 162.789,681.05 C162.109,683.45 161.559,685.64 161.149,687.22 C160.989,688.092 160.744,688.946 160.419,689.77" id="路径" fill="#000000" fill-rule="nonzero" opacity="0.3"></path>
            <path d="M179.898,670.91 C178.962,670.771 178.039,670.557 177.138,670.27 C175.458,669.83 173.138,669.27 170.528,668.64 C167.918,668.01 165.528,667.64 163.868,667.28 C162.928,667.161 162.001,666.957 161.098,666.67 C162.047,666.646 162.996,666.723 163.928,666.9 C165.658,667.13 168.048,667.53 170.648,668.11 C173.248,668.69 175.588,669.37 177.248,669.9 C178.164,670.139 179.053,670.474 179.898,670.9" id="路径" fill="#000000" fill-rule="nonzero" opacity="0.3"></path>
            <path d="M145.88,676.39 C145.914,675.378 146.055,674.373 146.3,673.39 C146.64,671.52 147.19,668.95 147.92,666.15 C148.65,663.35 149.43,660.83 150.05,659.03 C150.329,658.039 150.704,657.078 151.17,656.16 C150.997,657.179 150.743,658.182 150.41,659.16 C149.9,660.98 149.18,663.5 148.41,666.29 C147.64,669.08 147.07,671.63 146.64,673.48 C146.451,674.499 146.184,675.502 145.84,676.48" id="路径" fill="#000000" fill-rule="nonzero" opacity="0.3"></path>
            <path d="M170.919061,654.47 C170.919061,654.62 166.019,654.22 160.009,653.58 C156.367,653.291 152.742,652.817 149.149,652.16 C152.798,652.269 156.439,652.563 160.059,653.04 C166.059,653.68 170.939,654.32 170.919061,654.47 Z" id="路径" fill="#000000" fill-rule="nonzero" opacity="0.3"></path>
            <path d="M127.37,608.74 C127.04,605.18 123.44,602.49 119.86,602.449451 C116.28,602.41 112.94,604.56 110.75,607.39 C108.69,610.328 107.204,613.629 106.37,617.12 C103.96,625.52 102.64,634.34 103.67,643.02 C104.7,651.7 108.22,660.23 114.45,666.36 C115.45,667.36 116.77,668.36 118.16,668.06 C118.922,667.84 119.612,667.423 120.16,666.85 C126.256,661.27 131.088,654.451 134.331,646.85 C137.573,639.249 139.152,631.042 138.96,622.78 C138.87,619.49 138.43,616.05 136.6,613.3 C134.77,610.55 130.52,607.64 127.41,608.74" id="路径" fill="#42D392" fill-rule="nonzero"></path>
            <path d="M116.398,667.56 C116.352,667.36 116.328,667.156 116.328,666.95 C116.328,666.49 116.328,665.95 116.248,665.2 C116.178,663.68 116.168,661.48 116.248,658.76 C116.328,656.04 116.488,652.76 116.818,649.22 C117.148,645.68 117.678,641.72 118.418,637.63 C119.158,633.54 120.068,629.63 120.998,626.2 C121.928,622.77 122.928,619.63 123.838,617.07 C124.748,614.51 125.538,612.43 126.138,611.07 L126.828,609.46 C126.898,609.268 126.989,609.083 127.098,608.91 C127.067,609.113 127.009,609.311 126.928,609.5 L126.328,611.15 C125.798,612.57 125.058,614.64 124.208,617.22 C123.358,619.8 122.418,622.9 121.488,626.37 C120.558,629.84 119.698,633.69 118.948,637.76 C118.198,641.83 117.698,645.76 117.318,649.31 C116.938,652.86 116.738,656.1 116.638,658.81 C116.538,661.52 116.488,663.72 116.488,665.24 C116.488,665.95 116.488,666.53 116.488,666.99 C116.505,667.193 116.505,667.397 116.488,667.6" id="路径" fill="#000000" fill-rule="nonzero" opacity="0.3"></path>
            <path d="M118.79,637.79 C118.262,638.522 117.655,639.192 116.98,639.79 C115.8,640.96 114.13,642.54 112.23,644.21 C110.33,645.88 108.54,647.33 107.23,648.34 C106.552,648.934 105.811,649.45 105.02,649.88 C105.63,649.207 106.299,648.592 107.02,648.04 L111.91,643.8 L116.76,639.51 C117.393,638.875 118.086,638.302 118.83,637.8" id="路径" fill="#000000" fill-rule="nonzero" opacity="0.3"></path>
            <path d="M133.19,649.38 C132.474,648.543 131.825,647.65 131.25,646.71 L126.76,640.15 L122.17,633.66 C121.492,632.794 120.88,631.878 120.34,630.92 C121.128,631.69 121.844,632.53 122.48,633.43 C123.74,635.03 125.43,637.28 127.21,639.84 C128.99,642.4 130.51,644.76 131.58,646.5 C132.198,647.412 132.737,648.376 133.19,649.38" id="路径" fill="#000000" fill-rule="nonzero" opacity="0.3"></path>
            <path d="M125.647,612.919 C125.727,613.049 120.947,616.269 114.967,620.109 C108.987,623.949 104.077,626.97 103.967,626.84 C103.857,626.71 108.667,623.5 114.647,619.65 C120.627,615.8 125.527,612.799 125.647,612.919 Z" id="路径" fill="#000000" fill-rule="nonzero" opacity="0.3"></path>
            <path d="M139.129,627.47 C136.593,625.384 134.179,623.153 131.899,620.79 C129.487,618.558 127.197,616.198 125.039,613.72 C127.578,615.807 129.995,618.037 132.279,620.4 C134.684,622.636 136.971,624.996 139.129,627.47" id="路径" fill="#000000" fill-rule="nonzero" opacity="0.3"></path>
            <path d="M180.83,440.3 L107.67,463.87 C107.54,463.927 107.401,463.956 107.259,463.956 C107.118,463.956 106.979,463.924 106.85,463.866 C106.722,463.807 106.607,463.722 106.514,463.616 C106.421,463.51 106.351,463.385 106.31,463.25 L75.91,368.72 C75.86,368.59 75.838,368.451 75.846,368.312 C75.853,368.172 75.889,368.036 75.952,367.912 C76.016,367.788 76.104,367.678 76.212,367.59 C76.32,367.502 76.445,367.437 76.58,367.4 L131.39,349.74 L156.66,361.89 L181.51,438.98 C181.592,439.245 181.566,439.532 181.439,439.779 C181.312,440.026 181.093,440.213 180.83,440.3 L180.83,440.3 Z" id="路径" fill="#DADDDF" fill-rule="nonzero"></path>
            <polygon id="路径" fill="#FFFFFF" fill-rule="nonzero" points="147.189 365.001 90.735 383.377 91.586 385.992 148.041 367.616"></polygon>
            <polygon id="路径" fill="#FFFFFF" fill-rule="nonzero" points="149.916 373.379 93.461 391.755 94.313 394.37 150.767 375.994"></polygon>
            <polygon id="路径" fill="#FFFFFF" fill-rule="nonzero" points="152.631 381.736 96.176 400.112 97.027 402.727 153.482 384.351"></polygon>
            <polygon id="路径" fill="#FFFFFF" fill-rule="nonzero" points="155.357 390.101 98.903 408.477 99.754 411.092 156.209 392.716"></polygon>
            <polygon id="路径" fill="#FFFFFF" fill-rule="nonzero" points="158.08 398.468 101.625 416.844 102.477 419.459 158.931 401.083"></polygon>
            <polygon id="路径" fill="#FFFFFF" fill-rule="nonzero" points="160.799 406.835 104.344 425.211 105.195 427.826 161.65 409.45"></polygon>
            <polygon id="路径" fill="#FFFFFF" fill-rule="nonzero" points="163.546 414.373 107.145 432.777 107.997 435.39 164.399 416.985"></polygon>
            <polygon id="路径" fill="#FFFFFF" fill-rule="nonzero" points="166.244 423.557 109.789 441.933 110.641 444.548 167.095 426.172"></polygon>
            <path d="M131.387,349.74 L156.657,361.89 L138.307,367.8 C138.177,367.85 138.038,367.872 137.898,367.864 C137.759,367.857 137.623,367.82 137.499,367.757 C137.375,367.694 137.265,367.606 137.177,367.498 C137.089,367.39 137.024,367.265 136.987,367.13 L131.387,349.74 Z" id="路径" fill="#DADDDF" fill-rule="nonzero"></path>
            <path d="M131.387,349.74 L156.657,361.89 L138.307,367.8 C138.177,367.85 138.038,367.872 137.898,367.864 C137.759,367.857 137.623,367.82 137.499,367.757 C137.375,367.694 137.265,367.606 137.177,367.498 C137.089,367.39 137.024,367.265 136.987,367.13 L131.387,349.74 Z" id="路径" fill="#000000" fill-rule="nonzero" opacity="0.2"></path>
            <path d="M1109.929,587.63 L1036.769,611.25 C1036.639,611.298 1036.499,611.318 1036.359,611.309 C1036.219,611.3 1036.089,611.263 1035.959,611.199 C1035.839,611.135 1035.729,611.046 1035.639,610.938 C1035.559,610.829 1035.489,610.704 1035.459,610.57 L1005.009,516.1 C1004.959,515.97 1004.939,515.831 1004.939,515.691 C1004.949,515.552 1004.989,515.416 1005.049,515.292 C1005.109,515.168 1005.199,515.058 1005.309,514.97 C1005.419,514.882 1005.539,514.817 1005.679,514.78 L1060.489,497.12 L1085.759,509.25 L1110.609,586.35 C1110.649,586.479 1110.669,586.615 1110.659,586.75 C1110.649,586.885 1110.609,587.016 1110.539,587.136 C1110.479,587.256 1110.389,587.361 1110.289,587.446 C1110.179,587.531 1110.059,587.594 1109.929,587.63 L1109.929,587.63 Z" id="路径" fill="#DADDDF" fill-rule="nonzero"></path>
            <polygon id="路径" fill="#FFFFFF" fill-rule="nonzero" points="1076.299 512.416 1019.849 530.792 1020.699 533.407 1077.149 515.031"></polygon>
            <polygon id="路径" fill="#FFFFFF" fill-rule="nonzero" points="1078.269 519.427 1021.869 537.832 1022.719 540.445 1079.129 522.04"></polygon>
            <polygon id="路径" fill="#FFFFFF" fill-rule="nonzero" points="1081.739 529.15 1025.289 547.526 1026.139 550.141 1082.589 531.765"></polygon>
            <polygon id="路径" fill="#FFFFFF" fill-rule="nonzero" points="1084.479 537.515 1028.019 555.891 1028.869 558.506 1085.329 540.13"></polygon>
            <polygon id="路径" fill="#FFFFFF" fill-rule="nonzero" points="1087.189 545.882 1030.739 564.258 1031.589 566.873 1088.039 548.497"></polygon>
            <polygon id="路径" fill="#FFFFFF" fill-rule="nonzero" points="1089.919 554.24 1033.459 572.616 1034.309 575.231 1090.769 556.855"></polygon>
            <polygon id="路径" fill="#FFFFFF" fill-rule="nonzero" points="1092.639 562.614 1036.189 580.99 1037.039 583.605 1093.489 565.229"></polygon>
            <polygon id="路径" fill="#FFFFFF" fill-rule="nonzero" points="1095.349 570.972 1038.899 589.348 1039.749 591.963 1096.209 573.587"></polygon>
            <path d="M1060.489,497.08 L1085.759,509.25 L1067.409,515.17 C1067.139,515.255 1066.859,515.231 1066.609,515.103 C1066.359,514.976 1066.169,514.755 1066.089,514.49 L1060.489,497.08 Z" id="路径" fill="#DADDDF" fill-rule="nonzero"></path>
            <path d="M1060.489,497.08 L1085.759,509.25 L1067.409,515.17 C1067.139,515.255 1066.859,515.231 1066.609,515.103 C1066.359,514.976 1066.169,514.755 1066.089,514.49 L1060.489,497.08 Z" id="路径" fill="#000000" fill-rule="nonzero" opacity="0.2"></path>
            <path d="M797.369,728.68 L800.939,730.16 C803.879,731.47 807.059,732.16 810.279,732.17 C813.499,732.18 816.679,731.51 819.629,730.22 L819.779,730.22 L820.009,730.22 C821.239,729.66 822.489,728.7 823.679,729.22 L836.289,734.94 C836.609,735.1 836.969,735.16 837.319,735.12 C837.679,735.07 838.009,734.93 838.289,734.71 C838.539,734.52 838.749,734.27 838.899,733.99 C839.039,733.71 839.119,733.4 839.129,733.08 C839.139,732.76 839.079,732.45 838.959,732.16 C838.829,731.87 838.639,731.61 838.399,731.4 L829.169,723.99 L842.959,734.73 C843.269,734.97 843.639,735.13 844.039,735.2 C844.429,735.27 844.829,735.24 845.209,735.11 C845.569,734.98 845.889,734.76 846.139,734.48 C846.389,734.19 846.569,733.85 846.659,733.48 C846.739,733.11 846.739,732.72 846.639,732.35 C846.539,731.98 846.349,731.65 846.089,731.37 L836.359,721.08 L849.149,734.49 C849.469,734.83 849.879,735.06 850.329,735.16 C850.789,735.25 851.259,735.21 851.689,735.04 C852.059,734.91 852.399,734.7 852.679,734.41 C852.959,734.13 853.159,733.78 853.279,733.41 C853.389,733.03 853.419,732.63 853.349,732.23 C853.279,731.84 853.119,731.48 852.879,731.16 L843.359,719.07 L858.169,730.74 C858.419,730.95 858.699,731.12 859.009,731.22 C859.319,731.32 859.649,731.35 859.979,731.32 C860.299,731.29 860.619,731.2 860.909,731.04 C861.189,730.89 861.449,730.68 861.649,730.42 C862.269,729.99 862.329,728.33 861.309,727.42 L844.849,712.25 C843.279,710.63 841.159,709.64 838.909,709.48 L810.529,711.22 L797.369,728.68 Z" id="路径" fill="#FC9D9D" fill-rule="nonzero"></path>
            <path d="M838.199,732.14 C838.049,732.14 838.049,732.14 837.899,731.98 L829.399,725.19 C829.259,725.04 829.119,724.73 829.269,724.59 C829.419,724.45 829.729,724.3 829.879,724.46 L838.379,731.24 C838.529,731.4 838.669,731.7 838.509,731.85 L838.199,732.14 Z" id="路径" fill="#000000" fill-rule="nonzero" opacity="0.15"></path>
            <path d="M845.579,732.1 C845.429,732.1 845.279,732.1 845.289,731.94 L836.139,722.27 C836.059,722.19 836.019,722.08 836.029,721.97 C836.029,721.85 836.079,721.75 836.159,721.67 C836.239,721.59 836.349,721.55 836.459,721.56 C836.579,721.56 836.679,721.61 836.759,721.69 L845.909,731.36 C845.979,731.44 846.019,731.55 846.019,731.66 C846.019,731.77 845.979,731.88 845.909,731.96 C845.889,732.11 845.739,732.1 845.579,732.1 Z" id="路径" fill="#000000" fill-rule="nonzero" opacity="0.15"></path>
            <path d="M826.309,727.95 C829.119,729.55 833.999,732.14 835.619,733.25 C837.979,734.69 838.789,732.91 838.789,732.91 C838.849,733.3 838.809,733.7 838.659,734.06 C838.519,734.43 838.279,734.75 837.969,734.99 C837.679,735.18 837.339,735.3 836.999,735.34 C836.649,735.38 836.299,735.34 835.969,735.22 L823.359,729.5 C822.169,729.01 820.909,729.97 819.689,730.5 L822.049,728.07 C822.689,727.68 823.409,727.46 824.159,727.44 C824.909,727.42 825.649,727.59 826.309,727.95 L826.309,727.95 Z" id="路径" fill="#000000" fill-rule="nonzero" opacity="0.15"></path>
            <path d="M810.529,718.59 L842.889,720.2 C843.919,720.24 844.939,720.52 845.849,721 C846.769,721.48 847.569,722.16 848.189,722.99 L848.809,723.81 L791.809,733.14 L799.909,719.36 L810.529,718.59 Z" id="路径" fill="#000000" fill-rule="nonzero" opacity="0.15"></path>
            <path d="M353.191,580.36 L360.311,561.64 C360.311,561.64 368.711,544.56 362.681,532.43 C362.681,532.43 351.351,508.43 339.681,498.24 L330.411,488.14 C330.411,488.14 331.181,479.32 343.281,487.14 C346.42,489.143 349.832,490.682 353.411,491.71 C358.793,493.414 363.678,496.408 367.641,500.43 C374.044,508.474 382.143,515.006 391.361,519.56 C391.361,519.56 415.241,527.85 399.731,544.88 L399.571,545.09 C394.291,552.018 390.771,560.123 389.311,568.71 L386.651,584.1 L353.191,580.36 Z" id="路径" fill="#FC9D9D" fill-rule="nonzero"></path>
            <path d="M346.909,501.44 L366.219,526.17 C379.219,541.32 366.959,563.62 366.959,563.62 L359.959,562.25 L360.539,560.66 C360.539,560.66 368.699,543.47 362.539,531.42 C362.539,531.42 350.879,507.58 339.059,497.54 L331.619,489.65 L330.239,485.65 L346.909,501.44 Z" id="路径" fill="#000000" fill-rule="nonzero" opacity="0.15"></path>
            <path d="M740.309,677.25 L738.609,697.099 C738.609,697.099 747.609,699.39 757.489,702.58 C766.589,705.52 775.869,707.16 785.489,708.58 C791.989,709.53 811.639,710.99 811.639,710.99 L811.639,724.73 L711.789,736.87 L724.9,676.02 L740.309,677.25 Z" id="路径" fill="#FC9D9D" fill-rule="nonzero"></path>
            <polygon id="路径" fill="#3F4249" fill-rule="nonzero" points="810.749 711.01 810.749 724.75 803.299 725.08 803.589 710.45"></polygon>
            <path d="M325.77,587.25 L323.39,567.36 C323.39,567.36 322.87,548.36 311.9,540.36 C311.9,540.36 290.7,524.36 275.62,520.79 L262.73,516.17 C262.73,516.17 259.3,508 273.67,509.33 C277.379,509.637 281.114,509.412 284.76,508.66 C290.317,507.665 296.034,508.046 301.41,509.77 C310.822,513.909 321.031,515.924 331.31,515.67 C331.31,515.67 356.31,511.9 350.49,534.19 C350.49,534.19 350.49,534.28 350.49,534.45 C349.013,543.028 349.638,551.837 352.31,560.12 L357.11,574.97 L325.77,587.25 Z" id="路径" fill="#FC9D9D" fill-rule="nonzero"></path>
            <polygon id="路径" fill="#21252B" fill-rule="nonzero" points="484.939 668.49 386.079 670.68 353.059 560.65 316.399 571.03 344.669 714.09"></polygon>
            <polygon id="路径" fill="#000000" fill-rule="nonzero" opacity="0.3" points="484.939 668.49 386.169 670.81 379.209 650.8 353.059 560.65 316.399 571.03 344.669 714.09"></polygon>
            <path d="M711.77,734.69 L724.88,673.84 L738.31,674.65 L733.31,692.25 L731.67,715.51 C731.67,715.51 742.15,715.25 756.27,716.23 C768.51,717.09 780.78,719.59 793.039,719.23 L811.669,718.68 L811.669,722.53 L711.77,734.69 Z" id="路径" fill="#000000" fill-rule="nonzero" opacity="0.15"></path>
            <path d="M539.738,661.25 C539.738,661.25 504.938,660.81 473.318,671.37 C466.6,673.658 459.688,675.331 452.668,676.37 L364.668,693.591 L393.968,566.591 L356.068,555.48 L298.068,718.97 C298.068,718.97 287.348,753.43 315.678,757.26 L550.018,757.26 L539.738,661.25 Z" id="路径" fill="#21252B" fill-rule="nonzero"></path>
            <path d="M357.091,701.18 C357.861,697.35 365.521,692.75 365.521,692.75 C365.521,692.75 356.331,692.75 351.731,698.88" id="路径" stroke="#000000" opacity="0.43"></path>
            <path d="M378.191,680.37 C378.761,676.51 386.191,671.53 386.191,671.53 C386.191,671.53 377.011,671.99 372.731,678.34" id="路径" stroke="#000000" opacity="0.43"></path>
            <path d="M297.388,721.52 C296.718,730.02 299.728,747.09 322.818,748.04 L547.818,744.35 L550.008,757.35 L315.638,757.35 C291.918,754.13 295.568,729.47 297.388,721.52 Z" id="路径" fill="#000000" fill-rule="nonzero" opacity="0.3"></path>
            <path d="M538.579,714.72 C538.579,714.72 506.579,714.07 474.109,719.86 C466.857,721.14 459.539,722.01 452.189,722.47 L331.899,728.98 C331.899,728.98 328.309,728.98 328.309,725.62 C328.309,720.84 323.789,726.62 322.659,726.06 C320.919,725.19 322.219,723.45 323.659,719.31 L373.929,568.72" id="路径" stroke="#000000" opacity="0.43"></path>
            <polygon id="路径" fill="#42D392" fill-rule="nonzero" points="742.59 662.48 740.92 683.42 735.7 682.55"></polygon>
            <polygon id="路径" fill="#000000" fill-rule="nonzero" opacity="0.2" points="742.59 662.48 737.88 682.99 735.7 682.55"></polygon>
            <path d="M750.948,631.88 C750.948,631.88 751.358,643.98 747.948,649.02 L746.778,633.54 L750.468,627.63 L750.948,631.88 Z" id="路径" fill="#42D392" fill-rule="nonzero"></path>
            <path d="M750.948,631.88 C750.948,631.88 751.358,643.98 747.948,649.02 L746.778,633.54 L750.468,627.63 L750.948,631.88 Z" id="路径" fill="#000000" fill-rule="nonzero" opacity="0.2"></path>
            <path d="M757.909,546.57 L739.079,576.73 L714.989,604.36 L743.989,637.53 L758.989,615.99 L767.059,622.99 C767.319,623.25 767.599,623.49 767.879,623.72 C773.219,628.1 776.879,629.87 784.389,621.72 L792.809,611.42 L797.349,612.19 C797.439,612.201 797.519,612.201 797.609,612.19 C797.929,612.206 798.249,612.159 798.549,612.051 C798.859,611.943 799.129,611.777 799.369,611.561 C799.609,611.346 799.799,611.086 799.939,610.795 C800.079,610.505 800.149,610.191 800.169,609.87 L800.719,597.57 L801.049,597.02 L802.259,596.02 C807.339,591.577 811.099,585.814 813.109,579.37 L815.109,573.04 L757.909,546.57 Z" id="路径" fill="#FC9D9D" fill-rule="nonzero"></path>
            <path d="M767.019,575.63 L772.569,576.51 L767.979,589.81 C767.895,590.052 767.864,590.31 767.888,590.565 C767.912,590.82 767.991,591.068 768.119,591.29 L773.699,601.22 C773.926,601.626 774.068,602.073 774.116,602.536 C774.165,602.999 774.118,603.466 773.979,603.91 L772.879,607.47 C772.696,608.058 772.676,608.684 772.82,609.283 C772.965,609.882 773.268,610.43 773.699,610.87 C774.265,611.449 775.018,611.809 775.824,611.884 C776.63,611.959 777.436,611.745 778.099,611.28 L781.429,608.95 C782.389,608.283 783.535,607.936 784.704,607.957 C785.872,607.979 787.004,608.368 787.939,609.07 C789.416,610.114 790.678,611.431 791.659,612.95 L784.479,621.72 C776.959,629.84 773.309,628.07 767.969,623.72 C767.689,623.49 767.409,623.25 767.149,622.99 L759.309,616.17 L759.119,615.87 L756.309,612.25 C754.468,609.885 753.382,607.021 753.191,604.03 C753,601.039 753.714,598.06 755.239,595.48 L767.019,575.63 Z" id="路径" fill="#000000" fill-rule="nonzero"></path>
            <path d="M747.988,649.02 L743.528,659.66 L730.478,698.66 L681.968,729.77 L650.408,745.55 C648.079,746.71 645.645,747.65 643.138,748.35 C632.698,751.24 590.058,758.35 556.978,757.26 L548.528,757.37 C548.528,757.37 536.528,686.7 528.258,665.37 L526.068,660.79 C526.012,660.676 525.985,660.549 525.988612,660.422 C525.994,660.294 526.03,660.17 526.094,660.06 C526.159,659.95 526.249,659.857 526.358,659.791 C526.467,659.725 526.591,659.687 526.718,659.68 C531.488,659.44 550.648,658.56 575.388,658.84 C575.388,658.84 600.448,657.69 624.138,637.92 C629.658,633.262 635.466,628.957 641.528,625.03 L678.308,601.51 C678.308,601.51 699.368,590.98 716.778,594.89 L728.778,603.81 L747.988,649.02 Z" id="路径" fill="#42D392" fill-rule="nonzero"></path>
            <path d="M815.639,574.51 L796.079,571.19 C795.239,570.911 794.329,570.881 793.469,571.102 C792.609,571.324 791.833,571.788 791.229,572.44 L788.909,574.89 C785.909,578.19 782.269,578.17 778.199,576.36 L774.259,574.36 L769.259,580.82 C768.91,581.258 768.416,581.557 767.866,581.664 C767.316,581.77 766.746,581.676 766.259,581.4 L766.259,581.4 C765.744,581.09 765.372,580.589 765.226,580.006 C765.08,579.423 765.171,578.806 765.479,578.29 L767.019,575.68 L757.429,571.25 L751.809,577.77 C745.159,581.92 737.719,578.27 737.719,578.27 C741.499,562.15 743.549,546.14 755.719,535.5 L756.019,535.24 C760.229,531.5 770.649,529.82 776.219,535.32 C778.219,537.38 781.129,535.72 782.449,535.47 C789.149,532.09 801.539,537.2 805.749,545.26 L808.259,550.7 C810.679,554.48 815.069,555.7 819.259,557.63 C825.799,559.55 825.169,571.09 815.639,574.51 Z" id="路径" fill="#000000" fill-rule="nonzero"></path>
            <path d="M754.038,623.6 L750.958,611.25 C750.909,610.907 750.973,610.556 751.14,610.252 C751.307,609.947 751.568,609.705 751.884,609.561 C752.2,609.417 752.555,609.379 752.894,609.453 C753.233,609.527 753.54,609.708 753.768,609.97 L759.108,615.87 L754.038,623.6 Z" id="路径" fill="#000000" fill-rule="nonzero" opacity="0.15"></path>
            <path d="M758.308,590.581 L766.798,576.25 C767.692,574.715 767.944,572.889 767.5,571.169 C767.057,569.448 765.953,567.972 764.428,567.06 L764.428,567.06 C762.894,566.167 761.069,565.915 759.35,566.359 C757.632,566.802 756.157,567.906 755.248,569.43 L753.578,572.25 C751.778,575.309 751.265,578.957 752.152,582.394 C753.039,585.83 755.253,588.774 758.308,590.581 L758.308,590.581 Z" id="路径" fill="#FC9D9D" fill-rule="nonzero"></path>
            <path d="M743.528,579.81 L752.448,583.6 C751.997,581.749 751.788,579.846 751.828,577.94 C750.643,578.797 749.296,579.405 747.869,579.726 C746.443,580.048 744.966,580.076 743.528,579.81 L743.528,579.81 Z" id="路径" fill="#000000" fill-rule="nonzero" opacity="0.15"></path>
            <path d="M797.889,596.493 C798.669,595.166 798.329,593.515 797.129,592.805 C795.929,592.095 794.319,592.594 793.529,593.921 C792.749,595.248 793.089,596.9 794.289,597.61 C795.499,598.32 797.109,597.82 797.889,596.493 Z" id="路径" fill="#000000" fill-rule="nonzero"></path>
            <path d="M797.479,595.27 C797.689,595.27 797.859,595.1 797.859,594.89 C797.859,594.68 797.689,594.51 797.479,594.51 C797.269,594.51 797.099,594.68 797.099,594.89 C797.099,595.1 797.269,595.27 797.479,595.27 Z" id="路径" fill="#FFFFFF" fill-rule="nonzero"></path>
            <path d="M738.468,652.71 C738.078,646.2 736.828,638.81 733.528,634.26 C730.017,628.547 724.756,624.121 718.528,621.64 L718.528,622.93 L727.098,700.3 L730.388,699.2 L735.728,682.55 L737.578,670.87 C738.529,664.866 738.827,658.777 738.468,652.71 L738.468,652.71 Z" id="路径" fill="#000000" fill-rule="nonzero" opacity="0.2"></path>
            <path d="M762.808,577.96 L764.228,575.56 C764.81,574.546 764.973,573.344 764.682,572.212 C764.39,571.08 763.668,570.106 762.668,569.5 C762.12,569.153 761.501,568.935 760.857,568.861 C760.213,568.786 759.561,568.858 758.948,569.07 L758.828,569.07 C758.688,569.106 758.558,569.172 758.446,569.264 C758.334,569.355 758.243,569.47 758.179,569.6 C758.116,569.73 758.082,569.872 758.079,570.017 C758.076,570.162 758.104,570.305 758.162,570.438 C758.22,570.57 758.306,570.689 758.414,570.785 C758.522,570.881 758.65,570.953 758.788,570.995 C758.927,571.037 759.073,571.048 759.216,571.028 C759.359,571.008 759.497,570.958 759.618,570.88 C759.958,570.747 760.325,570.697 760.689,570.733 C761.052,570.77 761.401,570.892 761.708,571.09 L761.708,571.09 C762.284,571.431 762.702,571.987 762.868,572.636 C763.035,573.284 762.938,573.973 762.598,574.55 L761.188,576.95 C761.069,577.185 761.038,577.455 761.103,577.71 C761.167,577.966 761.322,578.189 761.538,578.34 C761.64,578.42 761.76,578.475 761.888,578.499 C762.016,578.524 762.147,578.517 762.272,578.48 C762.397,578.442 762.51,578.376 762.604,578.285 C762.697,578.195 762.767,578.083 762.808,577.96 L762.808,577.96 Z" id="路径" fill="#21252B" fill-rule="nonzero" opacity="0.2"></path>
            <path d="M789.778,615.49 C788.008,614.24 786.437,612.73 785.118,611.01 C785.049,610.919 784.951,610.853 784.841,610.823 C784.731,610.793 784.613,610.8 784.507,610.843 C784.401,610.887 784.313,610.964 784.255,611.063 C784.197,611.162 784.174,611.277 784.188,611.39 C784.546,614.012 785.623,616.483 787.298,618.53 L789.778,615.49 Z" id="路径" fill="#FFFFFF" fill-rule="nonzero"></path>
            <path d="M740.731,647.07 C741.791,650.748 742.652,654.48 743.311,658.25 L744.431,657.53 C743.933,653.995 743.225,650.492 742.311,647.04" id="路径" fill="#000000" fill-rule="nonzero" opacity="0.2"></path>
            <path d="M804.969,591.25 C804.409,591.54 802.759,589.33 800.409,587.72 C798.059,586.11 795.869,585.58 795.919,584.94 C795.919,584.64 796.609,584.49 797.679,584.66 C799.089,584.929 800.429,585.503 801.599,586.34 C802.809,587.16 803.829,588.227 804.599,589.47 C805.129,590.38 805.229,591.07 804.969,591.25 Z" id="路径" fill="#000000" fill-rule="nonzero"></path>
            <path d="M747.988,649.02 C748.308,617.25 728.308,591.73 726.448,589.42 C726.405,589.379 726.347,589.355 726.288,589.355 C726.228,589.355 726.171,589.379 726.128,589.42 C723.154,591.492 720.028,593.337 716.778,594.94 C716.778,594.94 736.348,619.74 744.428,657.58 L747.988,649.02 Z" id="路径" fill="#42D392" fill-rule="nonzero"></path>
            <polygon id="路径" fill="#61656D" fill-rule="nonzero" points="789.719 754.43 781.379 735.51 883.529 735.51 903.629 754.43"></polygon>
            <polygon id="路径" fill="#000000" fill-rule="nonzero" opacity="0.2" points="789.719 754.43 781.379 735.51 883.529 735.51 903.629 754.43"></polygon>
            <polygon id="路径" fill="#61656D" fill-rule="nonzero" points="790.077 755.09 781.297 735.57 785.427 735.57 792.929 752.42"></polygon>
            <path d="M792.809,752.04 L900.539,751.17 C901.379,751.19 902.179,751.55 902.759,752.16 C903.339,752.77 903.649,753.59 903.629937,754.43 C903.639,754.85 903.569,755.26 903.419,755.65 C903.279,756.04 903.049,756.4 902.759,756.71 C902.479,757.01 902.129,757.25 901.749,757.42 C901.369,757.59 900.959,757.69 900.539,757.7 L792.809,757.7 C792.389,757.69 791.982,757.59 791.6,757.42 C791.219,757.25 790.875,757.01 790.588,756.71 C790.301,756.4 790.077,756.04 789.928,755.65 C789.779,755.26 789.708,754.85 789.72,754.43 L789.72,755.3 C789.699,754.46 790.012,753.64 790.591,753.03 C791.171,752.42 791.969,752.06 792.809,752.04 Z" id="路径" fill="#61656D" fill-rule="nonzero"></path>
            <path d="M883.529,735.51 L923.709,665.67 C923.809,665.503 923.959,665.379 924.149,665.322 C924.329,665.265 924.529,665.278 924.709,665.36 L944.939,675.47 L899.709,751.25 L883.529,735.51 Z" id="路径" fill="#61656D" fill-rule="nonzero"></path>
            <path d="M883.529,735.51 L923.709,665.67 C923.809,665.503 923.959,665.379 924.149,665.322 C924.329,665.265 924.529,665.278 924.709,665.36 L944.939,675.47 L899.709,751.25 L883.529,735.51 Z" id="路径" fill="#000000" fill-rule="nonzero" opacity="0.2"></path>
            <path d="M898.309,753.48 L942.819,675.35 C942.929,675.149 943.119,675 943.339,674.935 C943.559,674.869 943.799,674.893 943.999,675 L946.539,676.36 C946.639,676.417 946.729,676.493 946.809,676.584 C946.879,676.676 946.929,676.781 946.969,676.894 C946.999405,677.007 947.009,677.125 946.989,677.241 C946.979,677.357 946.939,677.469 946.879,677.57 L902.009,755.66 C901.949,755.76 901.879,755.85 901.789,755.92 C901.689,755.99 901.589,756.05 901.469,756.08 C901.359,756.11 901.239,756.11 901.129,756.1 C901.009,756.08 900.899,756.04 900.799,755.98 L898.619,754.66 C898.519,754.6 898.439,754.53 898.369,754.44 C898.299,754.35 898.249,754.24 898.219,754.13 C898.189,754.03 898.189,753.91 898.199,753.8 C898.219,753.69 898.249,753.58 898.309,753.48 Z" id="路径" fill="#61656D" fill-rule="nonzero"></path>
            <path d="M939.369,675.73 L924.369,668.24 C924.279,668.199 924.179,668.191 924.089,668.218 C923.989,668.246 923.909,668.307 923.859,668.39 L885.909,734.39 C885.869,734.47 885.849,734.56 885.859,734.64 C885.869,734.73 885.919,734.81 885.979,734.87 L898.389,746.34 C898.429,746.38 898.479,746.41 898.539,746.43 C898.589,746.45 898.649,746.45 898.709,746.44 C898.759,746.44 898.819,746.41 898.869,746.38 C898.909,746.35 898.949,746.3 898.979,746.25 L939.499,676.25 C939.549,676.164 939.569,676.061 939.539,675.964 C939.519,675.866 939.459,675.782 939.369,675.73 L939.369,675.73 Z" id="路径" fill="#000000" fill-rule="nonzero" opacity="0.2"></path>
            <path d="M687.399,739.25 L678.309,688.71 L727.859,692.15 L726.079,721.42 C726.079,721.42 740.939,719.77 763.469,721.64 C771.389,722.3 779.359,724.05 787.289,723.45 L808.289,722.72 L810.469,743.17 C810.469,743.17 745.639,758.83 714.759,758.4 C714.809,758.4 693.049,762.31 687.399,739.25 Z" id="路径" fill="#FC9D9D" fill-rule="nonzero"></path>
            <path d="M726.119,721.42 L723.819,726.17 C723.783,726.25 723.776,726.34 723.799,726.43 C723.822,726.51 723.874,726.59 723.947,726.64 C724.019,726.69 724.106,726.71 724.195,726.71 C724.283,726.7 724.366,726.66 724.429,726.6 L729.649,721.42 L726.119,721.42 Z" id="路径" fill="#000000" fill-rule="nonzero" opacity="0.15"></path>
            <path d="M738.527,696.86 L736.227,701.61 C736.185,701.691 736.173,701.785 736.194,701.874 C736.215,701.963 736.268,702.041 736.342,702.094 C736.416,702.148 736.507,702.173 736.598,702.165 C736.689,702.157 736.774,702.116 736.837,702.05 L741.187,697.73 L738.527,696.86 Z" id="路径" fill="#000000" fill-rule="nonzero" opacity="0.15"></path>
            <path d="M694.509,734.69 C694.509,734.69 695.639,752.3 717.399,758.4 L714.809,758.4 C714.809,758.4 693.049,762.31 687.399,739.26 L678.309,688.71 L689.829,689.51 L694.509,734.69 Z" id="路径" fill="#000000" fill-rule="nonzero" opacity="0.15"></path>
            <path d="M546.739,744.25 C569.649,745.7 618.949,742.08 636.309,737.85 C643.399,736.12 653.409,733.07 659.309,728.85 C677.579,715.72 681.439,706.57 681.439,706.57 L685.209,727.67 L681.939,729.77 L656.309,742.59 C649.335,746.08 641.94,748.65 634.309,750.25 C613.198,754.54 591.738,756.88 570.199,757.25 L548.549,757.36 L546.739,744.25 Z" id="路径" fill="#000000" fill-rule="nonzero" opacity="0.2"></path>
            <path d="M801.499,741.12 L805.059,742.61 C807.999,743.92 811.179,744.61 814.399,744.62 C817.619,744.63 820.799,743.96 823.749,742.67 L824.129,742.67 C825.359,742.11 826.619,741.15 827.799,741.67 L840.409,747.39 C840.729,747.54 841.089,747.6 841.439,747.56 C841.799,747.52 842.129,747.38 842.409,747.16 C842.669,746.97 842.869,746.72 843.019,746.44 C843.169,746.16 843.249,745.85 843.259,745.53 C843.269,745.22 843.209,744.9 843.089,744.61 C842.959,744.32 842.769,744.06 842.529,743.85 L833.289,736.44 L847.079,747.17 C847.389,747.42 847.759,747.58 848.159,747.65 C848.549,747.72 848.949,747.69 849.329,747.56 C849.689,747.43 850.009,747.21 850.269,746.93 C850.519,746.64 850.699,746.3 850.789,745.93 C850.869,745.56 850.869,745.17 850.769,744.8 C850.669,744.43 850.479,744.1 850.209,743.82 L840.479,733.53 L853.269,746.94 C853.589,747.27 854.009,747.5 854.459,747.6 C854.909,747.7 855.379,747.65 855.809,747.48 C856.189,747.35 856.529,747.14 856.799,746.86 C857.079,746.57 857.279,746.23 857.399,745.85 C857.519,745.47 857.539,745.07 857.469,744.68 C857.399,744.29 857.239,743.92 856.999,743.61 L847.489,731.51 L862.289,743.19 C862.539,743.4 862.829,743.56 863.139,743.66 C863.449,743.76 863.779,743.79 864.099,743.76 C864.429,743.73 864.739,743.64 865.029,743.48 C865.319,743.33 865.569,743.11 865.769,742.86 C866.389,742.43 866.449,740.78 865.429,739.86 L848.999,724.73 C847.439,723.1 845.319,722.12 843.069,721.96 L806.849,722.96 L801.499,741.12 Z" id="路径" fill="#FC9D9D" fill-rule="nonzero"></path>
            <path d="M842.309,744.58 C842.159,744.58 842.159,744.58 842.009,744.42 L833.509,737.64 C833.369,737.49 833.229,737.18 833.379,737.03 C833.529,736.88 833.849,736.75 833.989,736.91 L842.489,743.69 C842.639,743.84 842.779,744.15 842.619,744.29 L842.309,744.58 Z" id="路径" fill="#000000" fill-rule="nonzero" opacity="0.15"></path>
            <path d="M849.709,744.55 C849.559,744.55 849.399,744.55 849.409,744.38 L840.259,734.72 C840.189,734.64 840.149,734.53 840.149,734.42 C840.149,734.3 840.189,734.19 840.259,734.11 C840.349,734.04 840.449,734 840.559,734 C840.669,734 840.779,734.04 840.859,734.11 L850.009,743.78 C850.089,743.86 850.129,743.97 850.129,744.09 C850.129,744.2 850.089,744.31 850.009,744.39 C850.009,744.56 849.859,744.55 849.709,744.55 Z" id="路径" fill="#000000" fill-rule="nonzero" opacity="0.15"></path>
            <path d="M830.409,740.39 C833.219,742 838.099,744.59 839.719,745.7 C842.079,747.14 842.889,745.36 842.889,745.36 C842.949,745.75 842.909,746.15 842.769,746.51 C842.619,746.88 842.379,747.2 842.069,747.44 C841.779,747.63 841.439,747.74 841.099,747.78 C840.749,747.82 840.399,747.78 840.069,747.67 L827.459,741.95 C826.269,741.46 825.009,742.41 823.789,742.95 L826.159,740.53 C826.789,740.13 827.519,739.91 828.269,739.89 C829.009,739.86 829.749,740.04 830.409,740.39 L830.409,740.39 Z" id="路径" fill="#000000" fill-rule="nonzero" opacity="0.15"></path>
            <path d="M590.579,655.88 C590.579,655.88 579.519,659.88 584.309,670.37 C584.309,670.37 588.659,681.25 596.489,685.6 C596.489,685.6 588.549,678.91 587.409,668.41 C587.409,668.05 587.329,667.7 587.269,667.34 C586.959,665.46 586.269,657.75 594.269,654.71 L590.579,655.88 Z" id="路径" fill="#000000" fill-rule="nonzero" opacity="0.2"></path>
            <path d="M800.439,710.66 L813.509,711.62 C814.229,711.67 814.859,711.13 814.909,710.41 C814.969,709.69 814.419,709.07 813.699,709.02 L800.629,708.06 C799.909,708 799.279,708.54 799.229,709.26 C799.169,709.98 799.709,710.61 800.439,710.66 Z" id="路径" fill="#21252B" fill-rule="nonzero"></path>
            <path d="M284.371,520.72 L312.801,534.01 C331.211,541.64 330.421,567.01 330.421,567.01 L323.591,568.95 L323.391,567.27 C323.391,567.27 322.871,548.27 311.901,540.27 C311.901,540.27 290.701,524.27 275.621,520.7 L265.411,517.04 L262.411,514.1 L284.371,520.72 Z" id="路径" fill="#000000" fill-rule="nonzero" opacity="0.15"></path>
            <path d="M737.119,653.25 C737.199,663.67 735.729,678.44 730.699,698.89 L676.308963,694.95 L676.308963,663.25 C676.308963,663.25 676.089,616.39 709.639,620.36 C725.659,622.3 736.989,637.11 737.119,653.25 Z" id="路径" fill="#42D392" fill-rule="nonzero"></path>
            <path d="M746.518,643.56 L741.758,645.15 C736.69,626.961 728.206,609.904 716.758,594.89 L713.368,594.51 C713.368,594.51 722.228,601.86 731.308,622.25 C733.758,627.75 737.308,649.25 737.308,649.25 C737.308,649.25 744.308,646.25 747.788,650.25 L748.198,649.47 L746.518,643.56 Z" id="路径" fill="#000000" fill-rule="nonzero" opacity="0.2"></path>
            <path d="M676.308963,663.25 C676.308963,663.25 676.089,616.39 709.639,620.36 C710.459,620.46 711.269,620.6 712.059,620.76 C704.819,620 693.929,623.35 688.559,636.98 C688.559,636.98 685.009,645.1 683.489,664.68 C682.889,672.33 683.049,695.56 683.049,695.56 L676.308963,694.95 L676.308963,663.25 Z" id="路径" fill="#000000" fill-rule="nonzero" opacity="0.2"></path>
            <path d="M747.989,649.25 C747.989,649.25 748.309,646.25 738.309,647.25 C738.309,647.25 734.699,625.16 730.309,616.25 L747.769,641.86 L747.989,649.25 Z" id="路径" fill="#42D392" fill-rule="nonzero"></path>
        </g>
    </g>
</svg>